<svg id="Layer_1" data-name="Layer 1" xmlns="http://www.w3.org/2000/svg" viewBox="0 0 626 130"><defs><style>.cls-1{fill:#fff;}</style></defs><g id="Page-1"><g id="DSC_Logo_2019_Wordmark_Void_RGB" data-name="DSC Logo 2019 Wordmark Void RGB"><g id="Group"><path id="Shape" class="cls-1" d="M145.4,78.5c.3,4.9,3.8,9.7,11.3,9.7,5.6,0,8.4-3,8.4-6.2,0-2.6-1.7-4.8-7.1-5.9l-8.2-1.9c-15.3-3.3-21.4-12-21.4-22.1C128.4,39,140,28.3,156,28.3c20.8,0,28,13,28.7,21.4L166.5,53c-.6-4.8-3.6-8.8-10.3-8.8-4.2,0-7.8,2.5-7.8,6.2,0,3,2.5,4.8,5.6,5.3l9.5,1.9c14.9,3,22.1,12,22.1,22.5,0,12.3-9.4,24.3-28.6,24.3-22.5,0-29.7-14.6-30.3-22.5Z"/><path id="Shape-2" data-name="Shape" class="cls-1" d="M212.5,66.4c0,11.4,7.7,17.8,16.8,17.8,8.5,0,13.3-5.3,14.9-10.7l19.4,5.9c-3.2,12.6-15,25-34.2,25-21.4,0-38.6-15.7-38.6-38s16.8-38.1,37.8-38.1c19.8,0,31.3,12.1,34.5,25l-19.6,5.9c-1.6-5.5-5.9-10.7-14.4-10.7C219.9,48.5,212.5,54.9,212.5,66.4Z"/><path id="Shape-3" data-name="Shape" class="cls-1" d="M343.3,66.3c0,22.2-16.6,38.1-38.1,38.1s-38.1-15.9-38.1-38.1,16.8-38,38.1-38C326.7,28.3,343.3,44,343.3,66.3Zm-21.9,0c0-12.1-7.8-17.8-16.2-17.8-8.2,0-16.2,5.6-16.2,17.8,0,12,7.9,17.9,16.2,17.9S321.4,78.4,321.4,66.3Z"/><polygon id="Shape-4" data-name="Shape" class="cls-1" points="391.3 102.2 369.2 102.2 339.7 30.5 363.5 30.5 380.1 75.1 395.4 30.5 418.6 30.5 391.3 102.2"/><path id="Shape-5" data-name="Shape" class="cls-1" d="M486.3,81.6c-3.5,12.4-14.9,22.8-33.1,22.8-19.8,0-37.4-14.2-37.4-38.3,0-23.1,17.2-37.8,35.8-37.8,22.2,0,36,13.7,36,36.8a56.33,56.33,0,0,1-.4,6.8h-50c.4,8.1,7.8,13.9,16.3,13.9,7.9,0,12.4-3.8,14.4-9.4ZM466.4,57.7c-.3-5.5-4-12.1-14.4-12.1-9.2,0-13.9,6.8-14.3,12.1Z"/><path id="Shape-6" data-name="Shape" class="cls-1" d="M541.5,52.1a28.84,28.84,0,0,0-6.9-.7c-8.8,0-16.8,5.2-16.8,19.5v31.3h-22V30.4H517v9.7c3.8-8.1,12.9-10.4,18.6-10.4a23.58,23.58,0,0,1,5.8.7V52.1Z"/><polygon id="Shape-7" data-name="Shape" class="cls-1" points="558.4 129.8 574.7 92.5 544.5 30.5 569 30.5 586.5 68.9 602.4 30.5 625.7 30.5 581.5 129.8 558.4 129.8"/><g id="Shape-8" data-name="Shape"><path class="cls-1" d="M67.4,51.3A30.41,30.41,0,0,0,37,20.8H6.5V.4H37C66.5.4,89.8,22,89.8,51.3S66.5,102.2,37,102.2H6.5V81.8H37A30.34,30.34,0,0,0,67.4,51.3Z"/><path class="cls-1" d="M6.2,38.3Z"/><path class="cls-1" d="M21.4,33.4h0l-.1.1A.1.1,0,0,0,21.4,33.4Z"/><path class="cls-1" d="M23.1,31c0-.1-.1,0-.1,0s-.1.1.1,0Z"/><path class="cls-1" d="M11.3,66.6Z"/><path class="cls-1" d="M42.6,49.8h0c-.1-.2-.1-.2-.1-.1Z"/><path class="cls-1" d="M6.9,49.9c-.1,0-.1,0,0,.1s.1.1,0-.1Z"/><path class="cls-1" d="M7,42H7l-.1.1h0Z"/><path class="cls-1" d="M8.8,50.6c-.1.1-.1.3,0,.3a.1.1,0,0,0,.1-.1C8.9,50.7,8.9,50.5,8.8,50.6Z"/><path class="cls-1" d="M11.1,66.3h0c0,.1.1.1,0,0Z"/><path class="cls-1" d="M9.5,58a.1.1,0,0,0,.1.1c.1,0,.1,0,0-.1S9.4,57.9,9.5,58Z"/><path class="cls-1" d="M10.7,65.4h0a.1.1,0,0,0,.1.1c-.1,0-.1,0-.1-.1Z"/><path class="cls-1" d="M16.7,32h0c0,.1.1.1,0,0Z"/><path class="cls-1" d="M25.1,49.9c-.2-.1-.2-.1-.1.1s.3.2.3,0A.35.35,0,0,0,25.1,49.9Z"/><path class="cls-1" d="M21.3,51.5h-.1a.1.1,0,0,0,.1.1c.1.1.1.1.1,0A.1.1,0,0,1,21.3,51.5Z"/><path class="cls-1" d="M31.2,50.4h0c.1-.1,0-.1,0-.1s-.1,0,0,.1Z"/><path class="cls-1" d="M21.2,51.9h0c.1.1.1,0,.1,0s0-.1-.1,0C21.3,51.8,21.3,51.9,21.2,51.9Z"/><path class="cls-1" d="M31.1,52.7c0,.1,0,.3.1.3h0a.49.49,0,0,0-.1-.3v0Z"/><path class="cls-1" d="M42.9,41.7h0c-.1.1,0,.1,0,0Z"/><path class="cls-1" d="M30.5,56.7v-.2a.58.58,0,0,0-.1.4v.5c0,.1,0,.2.1.2s.1.1.1-.3v-.4C30.5,56.8,30.5,56.8,30.5,56.7Z"/><path class="cls-1" d="M25.1,36.6a.1.1,0,0,1-.1.1c0,.1.2,0,.2-.1S25.2,36.5,25.1,36.6Z"/><path class="cls-1" d="M30.1,54.6h.3c.1,0,.1,0,.1-.1a.49.49,0,0,1,.1-.3q.15-.3,0-.3a.44.44,0,0,0-.5.1,1,1,0,0,0-.1.4C29.9,54.6,29.9,54.6,30.1,54.6Z"/><path class="cls-1" d="M34.3,34h0a.1.1,0,0,0,.1.1l-.1-.1Z"/><path class="cls-1" d="M28,35.7h0c-.1,0-.1,0-.2.1s0,.1-.1.1h-.1a.1.1,0,0,0,.1.1.27.27,0,0,0,.3-.3Z"/><path class="cls-1" d="M27.5,34h0c.1.1.1,0,.1,0s0-.1-.1,0Z"/><path class="cls-1" d="M27.5,35.6h0c.1.1.1,0,0,0Z"/><path class="cls-1" d="M27.3,35.9V36c.1,0,.1,0,0-.1C27.4,35.8,27.3,35.8,27.3,35.9Z"/><path class="cls-1" d="M15.8,34.1c0-.1-.1,0-.1,0h.1Z"/><path class="cls-1" d="M13.1,39.2a.1.1,0,0,0-.1.1c-.1.1-.1.1.1,0Z"/><path class="cls-1" d="M15.4,35.2h0c0-.1-.1-.1-.2,0v.1A.31.31,0,0,1,15.4,35.2Z"/><path class="cls-1" d="M15.1,33.8l.1-.1H15a.1.1,0,0,1-.1.1c-.1.1,0,.1.1.1A.1.1,0,0,0,15.1,33.8Z"/><path class="cls-1" d="M13.8,34.4Z"/><path class="cls-1" d="M13.8,39.1h0a.1.1,0,0,0-.1.1C13.7,39.3,13.7,39.2,13.8,39.1Z"/><path class="cls-1" d="M14.7,38.5h0a.14.14,0,0,0,0-.2v.2Z"/><path class="cls-1" d="M15.3,31.8Z"/><path class="cls-1" d="M15.8,31.5c.1-.1,0-.1-.1,0a.1.1,0,0,0-.1.1h.1Z"/><path class="cls-1" d="M13,35.7a.1.1,0,0,0-.1-.1v.1Z"/><path class="cls-1" d="M14.9,32h0c-.1.1-.1.1-.2.1h0C14.9,32.1,15,32,14.9,32Z"/><path class="cls-1" d="M13.3,62.7v-.1c0-.1-.1.1,0,.1Z"/><path class="cls-1" d="M15.4,38.5h0c-.2.1-.2.1-.1.1A.1.1,0,0,1,15.4,38.5Z"/><path class="cls-1" d="M10.4,40.8a4.67,4.67,0,0,0-.5,1c0,.1.2-.1.3-.4s.2-.3.3-.5.2-.2.3-.1,0,.2-.1.2-.1.1-.1.2h.1c.1-.1.1-.1.1.1v.2c.1-.1.1-.2.2-.3a1.44,1.44,0,0,0,.2-.3l.1.1c0,.2.2,0,.1-.2s-.1-.2-.1-.1a.1.1,0,0,1-.1.1v-.1C11.2,40.5,10.6,40.6,10.4,40.8Z"/><path class="cls-1" d="M11.4,41.4c.1,0,.3,0,.3-.1s.1-.2,0-.2a.35.35,0,0,1-.2.1C11.2,41.2,11.1,41.4,11.4,41.4Z"/><path class="cls-1" d="M9.6,36.1l-.2.2-.2.2h.1l.1-.1.1-.1v.1c0,.1,0,0,.1,0s.2-.1.2-.2c.2-.1.2-.2.1-.1H9.8c.1-.1,0-.1-.3.1-.1.1-.1.1-.2.1.1,0,.1,0,.2-.1Z"/><path class="cls-1" d="M11.3,36.4c0-.1,0-.1-.1,0v.1C11.2,36.6,11.2,36.5,11.3,36.4Z"/><path class="cls-1" d="M10.9,39.7c.1-.1,0-.2,0,0-.1-.1-.1,0,0,0Z"/><path class="cls-1" d="M10.1,38l-.1.1s.3-.3.3-.4,0-.1-.1.1l-.1.1C10.2,37.9,10.2,38,10.1,38Z"/><path class="cls-1" d="M10.4,40.4c.1-.1.1-.1.1,0s0,.2.2.2h.2c0-.1,0-.1.1-.2v-.2a.1.1,0,0,1-.1-.1c0-.2-.1-.2-.5.1a1.87,1.87,0,0,0-.4.3S10.3,40.5,10.4,40.4Z"/><path class="cls-1" d="M12.3,35.2h0l-.1.1a.1.1,0,0,0,.1-.1Z"/><path class="cls-1" d="M9.8,39.6a.35.35,0,0,0,.1-.2v-.1C9.8,39.4,9.7,39.6,9.8,39.6Z"/><path class="cls-1" d="M9.9,37.5a.35.35,0,0,0-.2.1c-.1.1-.1.1.1,0S10,37.4,9.9,37.5Z"/><path class="cls-1" d="M9.9,38.8a.31.31,0,0,0-.1.2v.1s-.1.1,0,.1l.1-.1c0-.1.1-.3,0-.3Z"/><path class="cls-1" d="M10.7,41.7c-.2.1-.2.2-.1.2s.6-.2.6-.3S11.2,41.4,10.7,41.7Z"/><path class="cls-1" d="M10.3,38.6c0,.1-.1.1,0,0a.31.31,0,0,1-.2.1.3.3,0,0,0,0,.4v.3c-.1.1-.1.2,0,.1s.1-.3.2-.5A.48.48,0,0,1,10.3,38.6Z"/><path class="cls-1" d="M10,39.9l.1-.1v-.1l-.1.1C9.9,39.9,9.9,39.9,10,39.9Z"/><path class="cls-1" d="M9.7,36.9h0c-.1.1-.1.2-.3.3s-.1.1-.2.1h.1a.35.35,0,0,0,.2-.1s.2-.1.2-.2a.31.31,0,0,1,.2-.1.1.1,0,0,0,.1-.1c.1-.1,0-.1-.2.1Z"/><path class="cls-1" d="M36.8,41.6c-.1,0-.1,0-.1.1s0,.1.1.1.1,0,.1-.1A.1.1,0,0,0,36.8,41.6Z"/><path class="cls-1" d="M37,33.7c-.1,0-.1.1,0,0,0,.1,0,.1.1.1-.1.1-.1.1-.1-.1Z"/><path class="cls-1" d="M36.1,40.5c-.1.1-.2.1-.1.3s.1.1.1,0,.1-.2,0-.3c.1.1.2.1.1,0v-.1C36.3,40.5,36.2,40.5,36.1,40.5Z"/><path class="cls-1" d="M34.9,34.1v.1l.1.1c0,.1,0,.1.1.1v-.2C35,34,34.9,34,34.9,34.1Z"/><path class="cls-1" d="M36.8,33.9c-.1-.1-.2-.2-.2-.1a.35.35,0,0,0,.2.1Z"/><path class="cls-1" d="M37.1,40.1h0c.1.1.1.2.2.2v-.1C37.2,40.2,37.2,40.1,37.1,40.1Z"/><path class="cls-1" d="M39.6,38.6v.2a1.17,1.17,0,0,1-.2.7c-.1,0-.1,0,0,.1a.1.1,0,0,0,.1-.1.1.1,0,0,1,.1-.1c.1,0,.1-.3,0-.5Z"/><path class="cls-1" d="M40.2,43.3h0c0,.1,0,.2.1.2a.31.31,0,0,0-.1-.2C40.3,43.4,40.3,43.3,40.2,43.3Z"/><path class="cls-1" d="M24.7,26.9A24.4,24.4,0,1,0,49.1,51.3,24.37,24.37,0,0,0,24.7,26.9ZM46.9,53.4Zm-1.5-1Zm-.2-.3h0c.1,0-.1.5-.1.5S45.1,52.1,45.2,52.1Zm-.1.9c.1,0,.1,0,.1.1s0,.1-.1.1H45A.35.35,0,0,1,45.1,53Zm0,.9V54h0v-.1Zm-.3-3.4v-.2a4.17,4.17,0,0,1,.2.6h0v.2c-.1,0-.1-.1-.2-.2s-.1-.2-.1-.1l-.1.1h0v-.2c0-.1.1-.1.1,0S44.8,50.7,44.8,50.5Zm.1,2.7c0,.1-.1,0,0,0v0Zm0,1.6h0c0,.1,0,.1-.1.1l.1-.1Zm0-2.5c-.1.1-.1.1-.2.1s-.2,0-.2.1v.2c0,.1,0,.1.1,0a.1.1,0,0,1,.1-.1l-.1.2c0,.1-.1.1-.1.2v.5c0,.1,0,.3-.1.3v-.2c.1-.1,0-.1,0,0v-.4a.44.44,0,0,0-.1.3.44.44,0,0,1-.1.3v-.2c0-.1.1-.2,0-.3s.1-.5.1-.6a.31.31,0,0,1,.1-.2,1.47,1.47,0,0,1,.2-.4c.1.2.2.2.3.2Zm-.2,2c-.1,0-.1.1,0,0-.1.1-.2.2-.2.3l-.1.1c-.1-.1,0-.3.3-.4Zm-.8.4h0c.1.2,0,.2,0,.1v-.1Zm0-.1a.1.1,0,0,0-.1.1h0c-.1-.1,0-.2.1-.1h0v0Zm-.1-1.1c0,.1-.1.1,0,0-.1-.1-.1-.1-.2,0h-.2c-.1,0-.1,0-.1-.2v-.2a1.76,1.76,0,0,1,.1-.6.1.1,0,0,1,.1-.1c.1,0,.1,0,.1-.1a.35.35,0,0,1,.1-.2c.1-.1.2-.2.2-.3s0-.2.1-.2a.31.31,0,0,1,.1-.2c0-.3.1-.3.2-.1s.1.1.1.2.1.1,0,.1v.8c.1,0,0,.1-.1.1a.35.35,0,0,0-.1.2c0,.1-.1.2-.1.3a.35.35,0,0,1-.1.2A1.44,1.44,0,0,1,43.8,53.5Zm-.1,1.1h0c-.1-.1,0-.1,0,0Zm-1.6-1.4v.1h0v-.1Zm-.1-.4h0v-.1c.1-.1.1,0,0,.1C42.1,52.7,42.1,52.8,42,52.8Zm.1-.6c-.1-.2-.3-.5-.3-.5s0-.1.1,0H42s.3.2.3.4.1.3.2.3.1,0,.1.1a.35.35,0,0,0,.1.2v.2a1,1,0,0,0,.1.4.63.63,0,0,1,0,.6c-.1.2-.1.3-.2.3s-.3-.5-.3-.8v-.7C42.2,52.6,42.2,52.4,42.1,52.2Zm.8,2.1c0,.1.1.1.2,0h.2a.1.1,0,0,0,.1.1c.1,0,.1,0,.1.1s-.4.1-.5.1h-.2c-.2,0-.3-.1-.2-.2S42.9,54.2,42.9,54.3Zm0-1.1c.1-.1.1-.1.1.1v.2A.19.19,0,0,1,42.9,53.2Zm.1.3c0-.1.1-.1,0,0Zm.4.8h0c.1-.1.1,0,0,0Zm0-13.1a.35.35,0,0,1,.1.2c.1.1.1.2.1.1h-.1c0,.1,0,0-.2-.6a2.49,2.49,0,0,0-.3-.7,1.42,1.42,0,0,1-.2-.4v-.1c0-.1,0-.1.1.1a.37.37,0,0,1,.1.3,3.63,3.63,0,0,0,.3.7c.1.1.1.2,0,.2S43.4,41,43.4,41.2Zm.2,6v.1s-.1,0,0-.1c-.1-.1-.1-.2-.2-.4v-.2h0C43.5,46.6,43.6,47.1,43.6,47.2Zm.6,2.9v.3h0Zm-.1-.6h0c.1,0,.1.1.1.2h0C44.2,49.6,44.2,49.5,44.1,49.5Zm.5.9v-.3c0,.1,0,.1-.1-.1v-.1c.1,0,.1.2.2.4C44.6,50.4,44.6,50.5,44.6,50.4Zm0-.2h0a.1.1,0,0,1,.1.1h0a.1.1,0,0,0-.1-.1Zm-.5,4.2c.1,0,.1.1,0,.1H44A.1.1,0,0,1,44.1,54.4Zm.5-4.7c.1,0,.1.1.1.4h0c0-.1-.1-.1,0-.2v-.1C44.5,49.7,44.5,49.7,44.6,49.7Zm-.1.1h0c-.1-.1,0-.1,0,0Zm-.1-.3h-.1s-.1-.1-.1,0a.1.1,0,0,1-.1-.1v-.1l-.1-.2a.31.31,0,0,1-.1-.2v-.2a.37.37,0,0,0-.1-.3c0-.1,0-.1.1-.1s.1,0,.1.2.1.3,0,.3c0,.2.1.5.2.5s.2.1.2.2ZM44.3,44c.1.2.1.3,0,.2h0a.1.1,0,0,1-.1.1c-.1,0-.1,0-.1.1s0,.2-.1,0a.1.1,0,0,0-.1-.1v.1c.1.1.1.3,0,.2v.1c0,.1,0,.1-.1,0v-.2h0c-.1-.1-.1,0,0,.1s.1.1.1.3,0,.3-.1,0-.1-.2-.1-.2-.1-.1-.1-.2c0-.3.1-.4.2-.4s.1,0,.1-.4h0c0,.1,0,.1.1,0a1.49,1.49,0,0,0-.1-.6c-.1-.3-.1-.4-.1-.3h0v-.1a.44.44,0,0,1,.1.3c.1.2.1.3.2.4A2,2,0,0,1,44.3,44ZM44,42.4h0c0,.2,0,.2-.1.1s-.2-.1-.2,0v.2c0,.1,0,.1-.1,0a.49.49,0,0,1-.1-.3,1.58,1.58,0,0,0-.1-.4c-.1-.2,0-.2.1.1.1.1.1.2.2.2C44,42.2,44.1,42.4,44,42.4Zm-.1-1.6Zm-3.1-5.7h0l.2.2c-.1-.1-.1-.2-.2-.2Zm-.8-.5h0c.1,0,.2.1.3.2a1.24,1.24,0,0,1,.3.2c0,.1-.4-.1-.5-.2A.31.31,0,0,1,40,34.6Zm.8.7c.1.1,0,0-.1,0a.1.1,0,0,1-.1-.1A.31.31,0,0,1,40.8,35.3Zm-2.9-1.1c.1,0,0,.1,0,0Zm-1.7-1.4c0-.1.2-.1.2,0l.1.1a.35.35,0,0,1,.2.1h-.6C36.1,32.9,36.1,32.9,36.2,32.8Zm-1.1-.5h0v-.1c.1-.1.5,0,.5.2a.35.35,0,0,0,.2.1c.1,0,.1.1.2.2s0,.1-.2,0-.4-.2-.4-.3a.35.35,0,0,0-.2-.1Zm-3.3-.9h.1c.1,0,.1,0,0,.1a.1.1,0,0,0-.1-.1Zm-.4-.1c.1,0,.2,0,.2.1s-.3,0-.3,0S31.3,31.3,31.4,31.3Zm-.3,0c.1,0,.1.1,0,0Zm-.2,2.1.1-.1a.1.1,0,0,1,.1-.1V33a.35.35,0,0,0,.1-.2c.1-.2.5-.3.8-.3h.3c.1-.1.4,0,.4.1a.35.35,0,0,1-.2.1c-.5.1-.7.1-.7.2a.1.1,0,0,1-.1.1c-.1,0-.4.4-.4.6s.1.2.2.3l.2.2h-.2a1,1,0,0,1-.3-.1.35.35,0,0,0-.2-.1C30.9,33.5,30.8,33.4,30.9,33.4Zm-.1.7c0,.1-.1.2-.2.1v-.1C30.6,34,30.8,34,30.8,34.1Zm-.7-2.9h0c-.2.1-.2.1-.2,0A.14.14,0,0,1,30.1,31.2Zm-4.6-.6h.3c0-.1.5,0,.6.1s-.4.2-.5.2a1,1,0,0,0-.3-.1C25.1,30.7,25.1,30.6,25.5,30.6Zm-.7.2h0a.1.1,0,0,0,.1-.1c0-.1.2-.1.2,0s.1.1.1,0h.1a.35.35,0,0,0,.2.1c.1,0,.2.1.4.2a.31.31,0,0,0,.2.1v.1c-.1.1-.4.1-.4,0a.22.22,0,0,0-.2-.2l-.1.1a.1.1,0,0,1-.1.1l-.1.1c0,.1-.1.1-.2,0s-.2-.1-.1-.1,0,0,0-.1-.1-.1.1-.1.2-.1.1-.1h-.2c-.1.1-.4,0-.4-.1v-.1a.1.1,0,0,1-.1-.1C24.2,30.7,24.7,30.7,24.8,30.8ZM21,38.3v-.2a.35.35,0,0,1,.1-.2c.1,0,.1-.1.2-.1a.28.28,0,0,1,.5,0c0,.1,0,.2-.1.2a.35.35,0,0,0-.1.2c0,.1-.1.4-.3.4s-.2.1-.3.1h-.2c-.1-.1,0-.1.1-.2A.31.31,0,0,0,21,38.3Zm.7-1.4h0C21.6,37,21.6,36.9,21.7,36.9Zm0,2.1c.1-.1.2-.2.3-.2s.1,0,0-.1h-.2l.1-.1c.1,0,.1-.1.1-.2s0-.1.1-.1.1-.1.2-.1V38c0-.1,0-.1-.1-.1s-.2,0-.1-.2,0-.3-.1-.1v-.2c-.1,0,0,0,.1-.2s.1-.3.2-.3.1-.1.2-.1.1,0,0,.1-.1.2.1.1.2.1,0,.3-.1.1,0,.2.1.1.1.2,0,.2.1.2a.35.35,0,0,1,.1.2.35.35,0,0,0,.1.2c.1,0,.2.2,0,.3s-.1.1-.1.2v.1h-.2a4.33,4.33,0,0,1-.5.1c-.2,0-.3.1-.4.1S21.6,39.1,21.7,39Zm1.2-3.7a.44.44,0,0,1-.3-.1c.1-.1.1-.2,0-.2s-.1,0,0-.1.1-.1-.1-.1-.1-.1.1-.2.1,0,.2.1a.1.1,0,0,0,.1.1,1,1,0,0,1,.4-.1.44.44,0,0,0,.3-.1v-.1a.78.78,0,0,1,.4.4C24,35.2,23.3,35.4,22.9,35.3Zm-3.4-5.1h.1c0,.1-.3.1-.3,0Zm-5.8,2,.1-.1.1-.1a.44.44,0,0,1,.3-.1.37.37,0,0,1,.3.1h.3c0-.1.1-.1.3-.1a.44.44,0,0,0,.3-.1,1.58,1.58,0,0,0-.4.1h-.1c.1-.1.1-.1,0-.1a.1.1,0,0,0-.1.1.19.19,0,0,1-.3,0c-.1-.1,0-.1.2-.2s.2-.1.3-.1a.35.35,0,0,0,.2-.1c.1,0,.1,0,.2-.1s.3-.1.4-.2a3.4,3.4,0,0,1,2-.3,1,1,0,0,1-.3.1.44.44,0,0,0-.3.1.35.35,0,0,1-.2.1.76.76,0,0,0-.4.2c-.3.2-.7.3-.8.4s-.2.1-.1.1.1,0,0,.1a.31.31,0,0,1-.2.1c-.1,0-.1.1-.2.1l-.1.1c-.1.1-.1.1,0,.1s0,.1-.7.2-.7.1-.4,0c.1-.1.2-.1.1-.1l.2-.1h.2v-.1h-.1c-.1,0-.2,0-.1-.1h0a1,1,0,0,1-.5.2c-.1,0-.1-.1,0-.2h0C13.7,32.3,13.7,32.3,13.7,32.2Zm.2.4c0-.1.1-.1.1,0Zm.1.1h0c0,.1,0,.1-.1.1l.1-.1Zm-.6-.4Zm-.1.2.1-.1h.1c.1,0,.1,0,0,.1s0,.1,0,.1h-.1C13.3,32.7,13.3,32.6,13.3,32.5Zm0,.4s.1-.1.1,0h.2c.1,0,.2,0,.2.1s.1.1.5,0a2.81,2.81,0,0,1,.5-.1V33a.1.1,0,0,0-.1.1,4.08,4.08,0,0,0-.7.2c-.5.1-.6.1-.6,0v-.2l-.1-.1S13.2,33,13.3,32.9Zm0,.2c0,.1-.2.3-.3.2h0l.1-.1Zm-.6-.5a.35.35,0,0,1,.2-.1h.2c.1,0,.2.1.1.2s-.2.1-.2,0h-.2c-.2.1-.2.1-.1-.1h0C12.7,32.7,12.6,32.7,12.7,32.6Zm-.2.4h0C12.4,33,12.5,32.9,12.5,33Zm0,.2c0,.1.1.1.1,0s.1-.1.1,0,.1,0,.1,0a.1.1,0,0,1,.1-.1c.1,0,.1,0,.1.1s-.2.3-.3.3-.1,0,0-.1,0-.2-.2-.2a.1.1,0,0,1-.1.1h0C12.4,33.2,12.5,33.1,12.5,33.2Zm-.2.2h0C12.2,33.5,12.2,33.4,12.3,33.4Zm0,.5h0c-.1,0,0-.2.1-.2a.77.77,0,0,1,.3-.1l-.1.1c-.1.1-.1.1,0,.1s0,.2-.2.2l-.1.1h-.1a.1.1,0,0,0-.1-.1v-.1h.1C12.2,34,12.3,33.9,12.3,33.9Zm-.4-.9c.1,0,.1-.1.2-.1h0c.1,0,0,.1-.2.1Zm0,.1h0c.1,0,0,.1-.1.1h-.1A.35.35,0,0,1,11.9,33.1Zm-.3.4s.1.1.1,0,.1,0,.1-.1,0-.1.1-.1.1-.1.1,0,0,.1.1,0h.1a.52.52,0,0,1-.4.2c-.1,0-.2.1-.4.2a.77.77,0,0,1-.3.1.1.1,0,0,1,.1-.1c.1,0,.1,0,.1-.1h-.1l-.1.1h-.2l.2-.2c.1-.1.2-.2.3-.2C11.4,33.5,11.5,33.5,11.6,33.5Zm-.7.3.1-.1-.1.1Zm-.1-.1c.3-.2.6-.4.5-.2a1.44,1.44,0,0,1-.3.2l-.1.1c0-.1,0,0-.1-.1h0a.22.22,0,0,1-.2.2h-.1C10.7,33.8,10.7,33.7,10.8,33.7Zm-.9.9.2-.2a.1.1,0,0,1,.1-.1c.1,0,.2-.1.3-.1s.2,0,.2-.1.2,0,.1.1h.1c0,.1,0,.1.1,0s.1-.1.1,0,0,0,.1,0,.2-.1.2,0,0,.1.1-.1.1-.1.1-.2l.1-.1c.1-.1.3-.1.2-.1l-.1.1a.77.77,0,0,0-.2.3v.2a.1.1,0,0,1,.1.1l.1.1h-.1c-.1,0-.1,0-.1.1s-.3.2-.4.2H11c-.2.1-.7.3-.7.2s0-.1-.1,0h-.1v-.1c.1,0,.1-.1.2-.1s.2-.1.3-.1.1,0,.1-.1h-.2c-.2,0-.3.1-.3,0l.1-.1c.1,0,.1-.1,0-.1h-.1c.1-.1.1-.1.2-.1s.1-.1.2-.1a.1.1,0,0,0-.1.1q-.3.15-.3.3c-.1.1-.3.2-.4.1l-.1-.1C9.8,34.7,9.8,34.7,9.9,34.6ZM2.5,47.3a.1.1,0,0,1-.1.1c.1,0,.1,0,.1-.1v0Zm3.2,6v0Zm5.8,13.4v.2a.1.1,0,0,1-.1-.1h-.1c-.1,0-.1,0-.1-.1v-.1a.77.77,0,0,0-.1-.3,1.24,1.24,0,0,0-.2-.3h0v-.3l-.1.1c0,.1,0,.1-.1-.1a.35.35,0,0,0-.1-.2l-.1-.1a.1.1,0,0,1,.1.1l.1.1c-.1-.4-.1-.5-.3-.5V65a.14.14,0,0,1,.2,0c.1,0,.1,0,.1-.1v-.3c0-.4-.1-.5-.2-.5a.14.14,0,0,0,0,.2v.2a.1.1,0,0,1-.1-.1.76.76,0,0,0-.1-.4c-.1-.2,0-.3,0-.3a.49.49,0,0,0-.1-.3.9.9,0,0,1-.1-.5,3.42,3.42,0,0,0-.1-1.1q-.15-.3,0-.3v-.1a1,1,0,0,0-.1-.4,8.81,8.81,0,0,0-.2-1.7,2,2,0,0,0-.6-1.1,2.62,2.62,0,0,1-.6-.8,1.69,1.69,0,0,0-.2-.5,7.93,7.93,0,0,1-.4-.9c-.1-.3-.3-.6-.3-.7a1.08,1.08,0,0,1-.2-.9c.1-.1.1-.3,0-.3a.35.35,0,0,1-.1-.2c0-.2,0-.9.1-.9a.35.35,0,0,0,.1-.2c0-.1,0-.2.1-.2s.2-1.1.3-1.4v-.4c0-.1-.3.2-.3.3s-.1.1-.2,0a.35.35,0,0,0-.1-.2c-.1-.1-.1-.1-.1-.2s0-.2-.2-.3v-.9a.1.1,0,0,0-.1-.1c-.2,0-.4-.3-.5-.5-.1-.4-.1-.4-.3-.3s-.2.1-.3-.1a1.44,1.44,0,0,1-.2-.3.35.35,0,0,1-.1-.2c-.1-.1-.2-.4-.1-.5a.31.31,0,0,1,.1-.2,1.45,1.45,0,0,0,.1-1v-.8c0-.2,0-.5.1-.6s.1-.3,0-.3-.1-.1-.1.2a1,1,0,0,1-.1.3v.8a.49.49,0,0,1-.1.3c0,.2-.1.3,0,.3v.3c-.1.1-.1-.5,0-.6V46c-.1-.4-.1-.3,0-.4s.1-.1.1-.3a1.49,1.49,0,0,1,.1-.6c.1-.5.1-.6,0-.7s-.1-.1,0-.1a1,1,0,0,0,.1-.4c0-.2.1-.3.1-.4s.1-.1,0-.1,0-.2.1-.3v-.1a8.26,8.26,0,0,1,.7-1.3,1.55,1.55,0,0,0,.3-.6c.1-.2.1-.2.1-.1s.1.1.2,0,.1-.3,0-.3v-.2a1,1,0,0,0-.1.3v.2c-.1,0-.2-.4-.1-.5H7c0,.1.1.1.1,0V40c-.1,0,0-.1,0-.1a.31.31,0,0,1,.1-.2v-.1c-.1,0,0,0,.1-.1s.1-.1,0-.1c-.2.2-.2.1,0-.1a.31.31,0,0,0,.1-.2c-.1,0,0-.2,0-.3h0c-.1,0-.1,0-.1.1v.2l-.1.1a.31.31,0,0,1,.1-.2v-.1h0l.1-.1s.2-.2.1-.2l-.1.1a.1.1,0,0,1-.1.1v-.1l.1-.1a.1.1,0,0,1,.1-.1h0a.1.1,0,0,1-.1.1v.1l-.2.4a1.42,1.42,0,0,1,.2-.4c.1-.1.1-.1,0-.1s-.1.1-.1,0,.1-.2,0-.2a.1.1,0,0,1-.1-.1c0-.1,0-.1-.1.1a.1.1,0,0,1-.1.1.35.35,0,0,1-.2.1c-.1.1-.3.2-.1.1s.1-.1,0-.1l.3-.3H7s-.3.2-.3.3l-.1.1c-.1.1-.2.2-.1.2l-.1.1c-.1.1-.2.1-.2.2l-.2.2c-.1.1,0,.1-.1.1s-.1.1-.2.1-.2.2-.3.2l-.1.1a.1.1,0,0,1,.1-.1s.1-.1.1,0h0l.2-.2.3-.3c.1-.1.1-.2.1-.1l-.1.1H5.9c-.1.1-.1,0,0-.1s.1-.1,0-.1c.2-.2.3-.5.5-.7s.2-.1.2-.2l.1-.1h0a.1.1,0,0,0-.1.1c.1-.1.1-.2.2-.3a.1.1,0,0,0,.1-.1c.1-.1.1-.2.1-.1H7c.2-.2.4-.5.6-.7s.2-.1.3-.2a.35.35,0,0,1,.2-.1s.1-.1.1,0h.3c.3-.1.2,0,.3.1s.1,0,.2-.1a1.63,1.63,0,0,1,.6-.3.35.35,0,0,0,.2-.1c.1-.1.1-.1.1,0s0,.1.1,0,.1-.1.1,0h.1c.1,0,.2-.1.3,0h.3c.1,0,.2,0,.1.1l-.1.1H11c.3-.1.5-.1.4.1v.1a.35.35,0,0,0,.1-.2l.2-.2a.1.1,0,0,0,.1-.1.31.31,0,0,0-.2.1c-.1,0-.1.1-.1,0s.3-.2.4-.1.5.1.7-.1a.31.31,0,0,0,.1-.2c-.1,0,0,0,.1-.1s.3-.1.3,0,0,.1-.1.1h-.1v.4a.1.1,0,0,0,.1-.1c0-.1.1-.1.2-.2s.3-.2.2-.2v-.2c-.1,0-.2-.1-.1-.2s.1-.2.2-.2.2-.2.2-.3.1-.1.1-.2a2.07,2.07,0,0,1,.6-.2,4,4,0,0,1-.4.3.31.31,0,0,0-.2.1l-.1.1c.1,0,.1.3,0,.3s-.1.2,0,.1.1,0,0,.1-.1.2.1,0,.1-.1.2,0v.1a.35.35,0,0,0-.1.2c0,.1.1.1.2-.1a.1.1,0,0,1,.1-.1.31.31,0,0,0,.2-.1c.1-.1.1-.2.1-.1s0-.1.1-.2l-.1-.1c-.2,0-.2-.1-.2-.2s0-.1.2-.3.4-.3.5-.4.1,0,0,.1a.1.1,0,0,0-.1.1l-.1.1v.2c0,.1.1.1.1,0v-.2a.7.7,0,0,1,.5-.4c.2-.1.2-.1.2,0h0c0-.1.1-.1.2-.1s.3.1.2.2v.1a.35.35,0,0,1,.1.2.1.1,0,0,0,.1.1c.1-.1.3,0,.2.1s0,.1.1,0,.2,0,.1.1h.1a.1.1,0,0,1-.1.1c-.1,0-.1,0,0,.1s.1,0,0,.1-.2.3.1.3a.1.1,0,0,1,.1.1.1.1,0,0,0,.1.1H17l-.2.2c-.1.1-.2.2-.2.1l-.1.1c-.1.1-.2.1-.2,0s-.1-.3-.2-.1-.1.1-.1.2a.1.1,0,0,0,.1.1.35.35,0,0,1,.1.2.37.37,0,0,1-.1.3c-.1.1-.1.1-.2,0s-.2-.1-.1.1.1.3,0,.3a.35.35,0,0,0-.2-.1.1.1,0,0,1-.1-.1h-.1c-.1.1-.2-.1-.1-.2v-.1a.1.1,0,0,1-.1-.1q0-.15-.3,0h-.3c.1-.1.2-.3.3-.2h.2a.35.35,0,0,0,.2-.1c0-.1,0-.1.1-.1.3-.2.4-.4.2-.5a.1.1,0,0,1-.1-.1h-.2v-.2c-.1-.1-.1-.1-.1,0s-.1.1-.4.1h-.3a.1.1,0,0,1,.1.1s.1.1,0,.1l-.1.1a.35.35,0,0,0-.1.2V36l-.1.1a.35.35,0,0,0-.2.1.1.1,0,0,0-.1.1h0l-.1-.1h-.1a1.72,1.72,0,0,1-.6.6c-.1,0-.3.2-.3.2a.1.1,0,0,1-.1.1c-.1,0-.4.3-.7.6s-.4.5-.3.5.1.1,0,.2,0,.2.1.2.2,0,.2.1a.1.1,0,0,0,.1.1.1.1,0,0,1,.1.1.35.35,0,0,0,.2.1c.2,0,.2,0,0,.5v.3c0,.2,0,.2.2.1s.2-.2.3-.6c0-.1.1-.2.1-.3l.2-.2c.1-.1.3-.2.3-.3a4.71,4.71,0,0,0,.2-.5c-.1-.1-.1-.1.1-.2a1.07,1.07,0,0,0,.3-.5c.1-.2.1-.3.2-.4h.5c.1,0,.3.1.2.2a.1.1,0,0,0,.1.1q.15,0,0,.3c-.1.2-.1.3-.1.2a.1.1,0,0,1,.1.1c0,.1.2,0,.5-.3l.2-.2v1.3a.1.1,0,0,0,.1.1h.1l.1.1v.1c-.1,0,0,.1,0,.2s.1.1,0,.3-.1.2-.3.3-.3.2-.4.2a1.08,1.08,0,0,1-.6.1,1.08,1.08,0,0,0-.6.1c-.1.1-.2.2-.3.2s-.3.2-.4.4l-.1.1a2.51,2.51,0,0,1,.8-.5c.2,0,.2,0,.2.1s-.1.1-.2.2a.1.1,0,0,0-.1.1c.1,0,.1.1,0,.2s0,.4.2.4.2,0,.3-.2.2-.2.1-.1v.2h-.1c0,.1-.4.3-.5.4s-.2.1-.3.2a.31.31,0,0,1-.2.1,1,1,0,0,1,.1-.3.35.35,0,0,1,.2-.1c.1-.1.1-.1,0-.1a.35.35,0,0,0-.2.1.35.35,0,0,1-.2.1c-.1,0-.2.1-.3.2s-.5.4-.5.6,0,.1-.2.2-.2.1-.2.1a.1.1,0,0,1-.1.1c-.1,0-.1,0-.2.2s-.1.2-.2.2-.1,0-.1.1-.1.2-.1.3-.1.1,0-.1.1-.2,0-.2a1.07,1.07,0,0,0-.2.6.31.31,0,0,1-.1.2c-.1.1-.1.1,0,.1v.1s-.1.1-.1,0l-.1.1a.1.1,0,0,1-.1.1.35.35,0,0,1-.2.1l-.1.1-.2.2-.2.2s-.3.3-.3.5a1,1,0,0,0-.1.3,3,3,0,0,1-.3,1,.31.31,0,0,0-.1.2,1,1,0,0,1-.1-.3v-.2c0-.1,0-.3.1-.3.1-.2.1-.5-.1-.4s-.1,0-.1,0-.1-.1-.3-.1-.2,0-.3.2-.1.2-.2.1a.63.63,0,0,0-.6,0,.31.31,0,0,1-.2.1c-.1,0-.3.3-.4.6,0,.1-.1.2-.1.3a4.71,4.71,0,0,1-.2.5,1.49,1.49,0,0,0-.2.9c0,.5,0,.6.3.5h.2c0,.1.3-.2.3-.4a.78.78,0,0,1,.4-.4c.2,0,.2,0,.1.3,0,.1-.1.2-.2.3a.31.31,0,0,0-.1.2.35.35,0,0,0-.1.2c-.1.1-.1.3-.2.4s-.1.1.3.1c.2,0,.3.1.3.2a1.73,1.73,0,0,1-.2.7c-.2.5-.2.5-.2.7s0,.3.1.3.1.1.2,0,.3-.1.4.2,0,.2.2-.1a1.44,1.44,0,0,0,.2-.3.1.1,0,0,1,.1-.1h.1a.1.1,0,0,0,.1-.1h.1a.44.44,0,0,1,.3-.1c.2-.2.3-.1.1.1s-.1.3,0,.2.1-.1.2-.1a.1.1,0,0,0,.1-.1h0a.1.1,0,0,0,.1.1.35.35,0,0,1,.1.2.22.22,0,0,0,.2.2c.1,0,.2,0,.2.1s.1.1.3,0,.2-.1.2,0a.35.35,0,0,0,.1.2c.1.1.1.1,0,.2s-.1.2.1.2.2.1.3.4.2.4.5.5.4.1.5.4a1.42,1.42,0,0,1,.2.6.76.76,0,0,0,.2.4c.1.1.1.1,0,.4a.6.6,0,0,0-.1.4c0,.1,0,.1.1,0s.1-.2.2-.1.3.2.1.4a.31.31,0,0,0-.1.2s.1,0,.2-.2.1-.1.1-.2c.1.1.2.1.3.2.3.2.4.3.4.4s0,.2.1.1h.3c.1,0,.2.1.4.1s.3.1.6.4.4.4.5.4.2.1.3.4a1.09,1.09,0,0,1,.1.5,6.72,6.72,0,0,1-.6,1.2q-.15.15,0,.6v1a.49.49,0,0,1-.1.3.49.49,0,0,0-.1.3.45.45,0,0,1-.4.3,2.47,2.47,0,0,0-.9.4c0,.1-.1.3,0,.4a.75.75,0,0,1-.1.5c-.1.1-.1.3-.2.3h0v-.1c-.1-.1-.1.1-.2.4,0,.1-.1.3-.1.4s-.1.2-.4.1A.52.52,0,0,1,13,64c-.1-.1-.1-.1-.1,0a.35.35,0,0,1,.1.2c.1,0,.1.1.1.2a.1.1,0,0,0,.1.1c.1,0,.1.2,0,.3s-.3.2-.6.2c-.1,0-.2,0-.1.1v.2c0,.2,0,.2-.2.1s-.2-.1-.2.1a.35.35,0,0,0,.1.2v.1h0v.4l-.1.1c-.2,0-.1.4.1.4s.1.2,0,.3-.1.1-.1.2,0,.1-.1.1-.1.1,0,.3.1.2,0,.2,0,0,0,.1a.1.1,0,0,1,.1.1c0,.1.4.4.5.4s.1.1-.1.1a.37.37,0,0,1-.3-.1h0c0,.1,0,.1-.1.1s-.1,0-.1-.1l-.1-.1c-.1,0-.1,0-.1-.1h.1a.1.1,0,0,0,.1-.1V68c-.1,0-.1,0,0-.1s0-.1,0-.1C11.5,66.5,11.5,66.6,11.5,66.7ZM6,38.8l.1-.1a.1.1,0,0,0,.1-.1l.1-.1v.1l-.1.1C6.2,38.6,6.1,38.8,6,38.8Zm.7.4h0c.2-.1.1,0,0,0a.44.44,0,0,1-.1.3A1,1,0,0,0,6.7,39.2ZM15,34.8c-.1.2-.2.2-.3.3s0-.2.3-.3a.1.1,0,0,1,.1-.1Zm.1.1c0-.1.1,0,0,0Zm-.4-.3-.1.1a.1.1,0,0,1,.1-.1C14.8,34.4,14.9,34.4,14.7,34.6ZM14,36.1Zm-.5-.1c-.1-.1-.1,0-.3.1a.31.31,0,0,1-.2.1s0-.1-.1,0-.1,0,0-.1.2-.2.2-.3l.2-.2a.1.1,0,0,0,.1-.1v.2c.1,0,.2.2.2.2V36s.1,0,0,.1C13.7,36.1,13.6,36.1,13.5,36Zm.2.3h0a.1.1,0,0,1-.1.1v-.1C13.6,36.4,13.6,36.3,13.7,36.3Zm-.3,0-.1.1s-.1,0,0-.1c-.1,0,0-.1.1,0Zm-.5,1.6h0c-.1.1-.2.1-.1.1a.1.1,0,0,1,.1-.1Zm-.7.9Zm3.4,1.5c0,.1-.1.1-.1,0s0-.1.1-.2.2-.2.1-.1v.1C15.7,40.2,15.7,40.3,15.6,40.3Zm.1-.5c-.1.1-.1.2,0,.1s0,.1-.2.2-.4.3-.2.1,0-.1-.3-.1-.3,0-.3-.1a.1.1,0,0,1,.1-.1l.1-.1a.1.1,0,0,1,.1-.1.35.35,0,0,0,.1-.2c0-.1.2-.2.3-.4s.4-.3.2-.1-.3.4-.2.3a.1.1,0,0,1,.1.1c0,.1.1.1.2.1S15.8,39.6,15.7,39.8Zm-1.3-.1a.1.1,0,0,1-.1-.1c-.1-.1.1-.1.1.1Zm-.4.9c-.1,0-.1,0-.1-.1v-.1a.31.31,0,0,0,.1.2ZM10.7,50.7c0,.1-.1.1,0,0-.1.1-.1,0-.1,0s0-.1.1,0Zm-.2-2.2-.1.1a.1.1,0,0,1-.1-.1c0-.1.1-.1.2,0Zm-1.6-.9a.1.1,0,0,1-.1-.1c0-.1,0-.1-.1-.1s-.1,0-.1-.1a.1.1,0,0,0-.1-.1c-.1,0-.1,0-.1-.1s-.1-.1-.2,0a.35.35,0,0,1-.2.1c-.1,0-.1,0,0-.1s.2-.1.3-.2c.3-.1.4,0,.8.5l.2.2c.1.1,0,.2-.3.2s-.2,0-.1-.1Zm-.1.7c0,.1,0,.1-.1.1a.1.1,0,0,1-.1-.1C8.6,48.2,8.7,48.2,8.8,48.3Zm.4-1.8c0-.1.1-.1,0,0h0c.1,0,0,.1,0,0Zm.1,1.8c.1.1.2-.1.2-.3s.4-.1.5.1a.31.31,0,0,1,.1.2H9.9a.37.37,0,0,0-.3.1c-.1.1-.5-.1-.5-.1S9.2,48.2,9.3,48.3ZM15.6,70h0c-.1.1-.1,0,0,0ZM15,71a.14.14,0,0,0-.2,0c-.1,0-.1,0-.2-.1v-.1h.3c.1,0,.2,0,0-.1s-.1,0-.1-.1v-.2c.1,0,.1,0,.4.2.4.4.3.5,0,.4-.3.2-.3.1-.2,0Zm-.4-.3Zm-.1-.1Zm.6-.3h0C15.1,70.5,15,70.4,15.1,70.3Zm-.7.7h0c-.1,0-.1,0-.2-.1h.1Zm-1-4.2h0c-.1-.1,0-.1.1-.1S13.5,66.8,13.4,66.8Zm-.2,0h0c-.1-.1,0-.1,0-.1S13.3,66.7,13.2,66.8Zm-.3,3.7ZM12,64.6h0C11.9,64.5,12,64.5,12,64.6Zm.1,5.6a.35.35,0,0,1-.2-.1.1.1,0,0,1-.1-.1l-.1-.1.2.1C12.2,70.1,12.4,70.3,12.1,70.2Zm3.8,2.2h-.1c-.1,0-.1-.1-.2-.1h.1C16,72.3,16,72.4,15.9,72.4Zm.6-.7h0v.2a.1.1,0,0,1-.1.1h-.1s-.1.1-.3,0h-.4a1.6,1.6,0,0,1-.8-.3.49.49,0,0,0-.3-.1,2.74,2.74,0,0,0,.5.4.31.31,0,0,0,.2.1,4.42,4.42,0,0,1-.8-.3c-.1-.1-.1-.1-.1,0a.35.35,0,0,0,.2.1.35.35,0,0,1,.2.1h-.1a25.43,25.43,0,0,1-2.8-1.6,2211476275183,2211476275183,0,0,0-.2-.2l-.1-.1h.1c.1,0,.2.1.1,0a.35.35,0,0,0-.2-.1.35.35,0,0,1-.2-.1h.1c.4.2.9.4,1.4.6h.1a.35.35,0,0,0,.2.1.35.35,0,0,1,.2.1,1.24,1.24,0,0,0,.3.2c.2.1.2.1.3,0H14c.1,0,.1.1.2.1a.35.35,0,0,1,.2.1c.1.1.1.1.1,0a.1.1,0,0,0-.1-.1h0a.1.1,0,0,1,.1.1c.1.1.1.1.4.2s.5,0,.4-.1a.35.35,0,0,1-.1-.2c-.3-.4-.3-.4-.2-.3s.1,0,.1-.1-.1-.2-.1-.1h-.1a.1.1,0,0,1,.1-.1.35.35,0,0,0,.2-.1,2.27,2.27,0,0,1,.4-.1h.2c-.1,0-.1,0-.1.1h-.1c-.1,0-.3.1-.3.2s0,.1-.1.1-.1,0-.2.1a1990328647664.19,1990328647664.19,0,0,1,.2.2c.1,0,.4.3.4.3a.1.1,0,0,0,.1.1c.1,0,.1.1.1.2s0,.1.1.1h0c.5-.1.5,0,.6.1h0Zm-.2-1.5h-.1c0-.1,0-.1.1,0Zm.5,2.7h0c0-.1.1,0,.2,0V73C16.9,72.9,16.9,72.9,16.8,72.9Zm.6-37.2c-.1-.3-.1-.3.1-.5s.1-.2,0-.1-.2.1-.1,0v-.5c.1,0,.1-.1,0-.1s0-.1.1-.3.2-.2.3-.2.1-.1.2-.2.1-.2,0-.1-.1.1-.1,0a.1.1,0,0,0-.1-.1c-.1,0-.1,0-.1.1a.1.1,0,1,1,0,.2c-.2.1-.3,0-.2-.1a.1.1,0,0,1,.1-.1v-.1c0-.1,0-.1.1-.1h0a.1.1,0,0,0,.1.1H18c.1.1.1-.1,0-.2a.19.19,0,0,0-.3,0c-.2.1-.2,0,0-.2s.1-.1.1-.4a1,1,0,0,0-.1-.3.1.1,0,0,1-.1-.1c0-.2-.3-.2-.8-.1-.3.1-.4.1-.5,0l-.1-.1c-.1,0,0,0,.1-.1a.35.35,0,0,0,.2-.1h0c-.1.1-.4,0-.4-.1s.2-.1.7-.3c.3-.1.4-.1.4-.2s0-.1-.1,0H17a1.49,1.49,0,0,1,.7-.3.35.35,0,0,0,.2-.1c0-.1.9-.3.9-.2s0,.1.1,0,.1-.1.1,0,.2.1.2-.1,0-.1.4,0,.3.1.3,0v-.1c.1,0,0-.1-.1-.1s.1-.1.4-.1.5,0,.5-.1a.44.44,0,0,1,.3-.1,3.3,3.3,0,0,1,1.4,0c.1,0,.2.1.3.1s.2,0,.1.1a.35.35,0,0,1-.2.1c-.1,0-.2,0-.2.1s0,.1.2,0,.2,0,.1.1l-.1.1h0a.31.31,0,0,0,.2-.1.37.37,0,0,1,.3-.1h.3a.3.3,0,0,1,.4,0c.1,0,.1,0,.2.1-.1,0-.1.1-.2.1s-.3.2-.5.3a.35.35,0,0,1-.2.1.1.1,0,0,0-.1.1.1.1,0,0,1-.1.1l-.2.2c0,.1-.1.1-.1.2a.1.1,0,0,0,.1-.1h.1l.1.1c.1,0,.2.1.1.2s-.1.1-.1,0a.35.35,0,0,0-.2-.1h-.1c-.2,0-.2.1,0,.1s.2.1.2.3h-.1c-.2,0-.2.1,0,.2h0a.1.1,0,0,0-.1.1c0,.1-.3.2-.4.1s-.1-.1-.2,0,0,.1.1.1.2.2.1.2-.3-.1-.3-.2v-.1c-.1,0,0,.2.1.3s.3.3.2.4-.4,0-.4-.1l-.1-.1c-.1,0-.1,0-.1.1s0,.1-.1.2,0,0,.1.1a.37.37,0,0,1,.3.1c.1,0,0,.1-.2.2-.5.2-1,.3-1.1.2s-.1-.1-.1,0-.9.1-.9.1.7.1.6.2a.76.76,0,0,1-.4.2c-.1,0-.2.1-.3.1s-.1.1,0-.1h0c-.1.1-.2.1-.3.2s-.2.1-.2.2,0,.1-.1.1h0c.1.1,0,.2-.2.3l-.2.2a1.44,1.44,0,0,1-.2.3q-.15.3-.3.3c-.1,0-.1,0-.1-.1V36s-.1,0,0-.1h-.1C17.5,36.1,17.4,36.1,17.4,35.7Zm1.5,37.8h-.2l-.9-.3h.1c.1,0,.2,0,.2-.1a.1.1,0,0,1,.1-.1c.2,0,.6.1.6.2a.31.31,0,0,0,.1.2C19,73.4,19,73.4,18.9,73.5Zm.1-6h.2C19.3,67.7,19.2,67.6,19,67.5Zm5.7,6.8a19,19,0,0,1-4.1-.4h.1l-.1-.1h-.1l.1-.1c.1-.1.1-.1-.1-.1h-.2l-.5-.2a3.32,3.32,0,0,1,1.8-.2h.2L22,73c.2-.1.2-.1.1-.1s-.1,0-.1-.1l.1-.1a.1.1,0,0,0,.1-.1h.3c.1,0,.1,0,0-.1s-.1-.1,0-.1h.4c.1.1.1.1.2,0s.2-.1.2,0a.44.44,0,0,0,.3.1,1.48,1.48,0,0,0,.7-.1c.1-.1.9,0,1,0h.2a3.35,3.35,0,0,1,1,0h.8c.4-.1.6-.1.7-.3s.1,0,.2,0,.1.1.2.1h.1c0,.1.2,0,.2-.1a.76.76,0,0,1,.5-.2.35.35,0,0,0,.2-.1h.4s0-.1.1,0,.1,0,.1-.1.6-.3.7-.2l.1.1a2.26,2.26,0,0,0,.9,0H32a.45.45,0,0,1-.3.3.1.1,0,0,0-.1.1c-.1.1,0,.1.1,0h0l-.1.1c-.1,0-.2.2-.1.2a.54.54,0,0,0,.4-.3l.1-.1.1-.1a1.44,1.44,0,0,0,.3-.2c.1,0,.3-.2.4-.2s.2-.2.3-.2.1,0,.2-.1.2-.1.5-.2a.35.35,0,0,1,.2-.1h0l.1-.1c.1-.1.2-.1.5-.1s.3,0,.4-.1a1.44,1.44,0,0,1,.3-.2c0,.1.2.1.3,0a4.88,4.88,0,0,0,.7-.3h.1c0,.1.1,0,.2-.1s.1-.1.2-.1a.31.31,0,0,1,.2-.1.1.1,0,0,1,.1-.1v.1c-.1.1-.1.1,0,.1s.1,0,.2-.1a.44.44,0,0,0,.3-.1h0a.14.14,0,0,0,.2,0h.1a.1.1,0,0,0,.1-.1c0-.1.1-.1,0,0h.2a.31.31,0,0,0,.2-.1A21.29,21.29,0,0,1,24.7,74.3Zm-3.2-1.4Zm2-.5Zm8.8-13.8a.75.75,0,0,1,.5-.8c.1-.1.3-.2.3-.3s.2-.2.2-.3a.31.31,0,0,0,.1-.2c0-.1,0-.1.1-.2l.1-.1a3.55,3.55,0,0,1,.1.7c0,.2,0,.3-.1.2s-.1,0-.1.1v.2c0,.1-.1.1-.1.2a9.82,9.82,0,0,1-.8,1.8.44.44,0,0,1-.3.1c-.3.1-.4-.1-.4-.5s0-.3.2-.5S32.4,58.9,32.3,58.6Zm2.1,7.7h0c-.1.2-.2.2-.1.1S34.3,66.3,34.4,66.3Zm0-7.3Zm.3-9c.1,0,.1,0,.1.1s-.1.1-.1-.1Zm2.1,18.3h0C36.9,68.3,36.9,68.4,36.8,68.3Zm3.1-16.6c-.1.1-.1.1-.2,0a1.88,1.88,0,0,1-.2-.8c0-.2,0-.1.2.2S40.1,51.5,39.9,51.7Zm1.6-3.1v.2c0,.2-.1.2-.2.1a.35.35,0,0,1-.1-.2,2,2,0,0,0-.2-.6V48c0-.1,0-.1-.1-.2a1.38,1.38,0,0,1-.3-.4c-.2-.3-.3-.4-.3-.2v.1h-.4v.1c0,.2,0,.3-.1.3a.35.35,0,0,0-.1.2c-.1.4-.2.7-.3.7v.1a.1.1,0,0,1-.1.1c-.1,0-.1.1,0,.4a3.21,3.21,0,0,1,.1,1.4c-.1.4-.2.4-.4-.1l-.3-.6-.2-.4a1.69,1.69,0,0,0-.2-.5,8.8,8.8,0,0,1-.5-1.5.49.49,0,0,0-.1-.3c-.1-.2-.1-.2-.1,0s-.1.3-.4,0-.2-.2-.1-.2.1,0,.1-.1,0-.1-.1,0-.3-.2-.6-.5c-.1-.1-.2-.3-.2-.2a2.57,2.57,0,0,1-1.5-.1.35.35,0,0,1-.1-.2c-.1-.2-.2-.3-.2-.1h-.1c-.4.1-.8-.4-1-.7s-.3-.4-.5-.2-.1.1.1.4a1.38,1.38,0,0,0,.3.4l.2.4c.1.3.1.3.1.1s.2-.1.2.1c0,.5.5.5.7,0a.37.37,0,0,0,.1-.3c0,.1,0,.1.1.2a.7.7,0,0,0,.4.5c.1,0,.2.1.3.2s.1.1.1.2a.37.37,0,0,1-.1.3,1,1,0,0,1-.1.3c-.1,0-.1.2,0,.3a.31.31,0,0,1-.1.2c-.1.1-.1.1-.1.2a.1.1,0,0,1-.1.1c-.1,0-.1,0-.1.1s-.1.1-.2.2-.3.1-.3.2l-.3.3a1.44,1.44,0,0,1-.3.2c-.1.1-.1.1-.2.1a.31.31,0,0,0-.2.1.35.35,0,0,0-.2.1.35.35,0,0,1-.2.1.35.35,0,0,0-.2.1c-.1,0-.3-.7-.4-1a.91.91,0,0,0-.3-.5l-.2-.4q0-.15-.3-.3c-.2-.2-.3-.3-.3-.4a1.23,1.23,0,0,0-.4-.8l-.2-.2a.91.91,0,0,0-.3-.5,1.1,1.1,0,0,1-.3-.6v.1c0,.3-.1.2-.3-.1a1.44,1.44,0,0,1-.2-.3.77.77,0,0,0,.1.3,2.19,2.19,0,0,0,.3.5l.3.6.2.4c0,.1.1.2.2.4a1.63,1.63,0,0,1,.3.6c.1.3.1.5.3.6a2.19,2.19,0,0,1,.3.5,1,1,0,0,0,.4.5c.4.3.8.8.7.9a.31.31,0,0,0,.1.2l.2.2c.2-.1.4-.1.6-.2a4.08,4.08,0,0,1,.7-.2c.1-.1.1,0,.1.3v.5l-.2.6a2.48,2.48,0,0,1-.8,1.4l-.5.5a3.74,3.74,0,0,0-.6.7,3.11,3.11,0,0,0-.4.6.85.85,0,0,0-.2.6c0,.1.1.3,0,.5s0,.4.1.4.1.2,0,.7a2.07,2.07,0,0,1-.2.8c-.1.1-.3.2-.4.3s-.3.2-.4.3l-.3.3c-.1.1-.2.1-.1.4v.5c0,.3,0,.3-.3.4s-.3.2-.3.5a.76.76,0,0,1-.2.5,2.18,2.18,0,0,0-.4.5,2.47,2.47,0,0,1-1.6.8,4.33,4.33,0,0,0-.5.1.19.19,0,0,1-.3,0,.54.54,0,0,1-.3-.4c.1-.1-.3-.8-.5-1s-.3-.4-.4-.9a1.07,1.07,0,0,0-.2-.6,2.73,2.73,0,0,1-.6-1.2,2,2,0,0,1,.3-1.1c.1-.1.1-.2.1-.5s-.1-.4-.1-.6a2.75,2.75,0,0,0-.8-1.5c-.4-.4-.6-.7-.5-.8a2,2,0,0,0,.1-.5c0-.2,0-.5.1-.5s-.1-.2-.2-.3-.2-.2-.5-.2-.5,0-.5-.2a.22.22,0,0,0-.2-.2,1.53,1.53,0,0,0-1.3.2c-.4.2-.5.2-.7.1H20c-.6.2-.7.2-.8,0-.3-.3-.8-.7-.9-1.1a1.69,1.69,0,0,0-.2-.5l-.2-.4-.1-.1c-.1,0-.1-.1-.1-.3v-.6c.1,0,.3-.6.3-.9.1-.5.1-.7,0-.8s0-.2.1-.5.3-.4.3-.5.1-.2.2-.3.5-.7.7-.9a1,1,0,0,0,.6-.7,1.33,1.33,0,0,1,.6-.9c.1-.1.3-.2.3-.4s.2-.3.2-.2a1.13,1.13,0,0,0,.8.1,3.36,3.36,0,0,1,1.4-.5,7.75,7.75,0,0,0,.9-.1h.2c0,.1,0,.1.1,0s.1,0,0,.1a.19.19,0,0,0,0,.3c.1.1.1.2-.1.3l-.2.2c0,.1.6.4.6.3s.6.2.6.3.1.2.2.1a.76.76,0,0,1,.4.2c.3.1.3.2.4,0s.1-.2.1-.3a.38.38,0,0,1,.5-.3.35.35,0,0,1,.2.1l.4.2a2.07,2.07,0,0,0,.6.2.85.85,0,0,0,.7,0c.2-.1.2-.1.4,0s.5,0,.6-.5a2.2,2.2,0,0,0,.1-.8v-.3h-.2a.35.35,0,0,0-.2.1c0,.1-.3.1-.5-.1s-.2-.1-.3,0-.1.1-.2,0-.2-.1-.3-.2-.2-.1-.2-.2,0-.1-.1-.1v-.2c0-.1,0-.2-.1-.2l-.1-.1c.1-.3-.4-.4-.5-.2s-.1.1-.2.1-.2.1,0,.2v.3c.3-.1.4.1.1.3-.1.1-.1.1-.1.2s0,.1-.1.1-.4-.4-.3-.4a1.44,1.44,0,0,0-.2-.3.91.91,0,0,1-.3-.5c0-.2-.1-.3-.3-.4s-.3-.2-.4-.3-.2-.2-.3-.3-.1-.2-.2-.2-.1,0-.1-.1-.3-.1-.3.2c0,.1,0,.2.1.2a.75.75,0,0,1,.3.3.75.75,0,0,0,.3.3c.1,0,.1,0,.1.1a.1.1,0,0,0,.1.1c.1,0,.5.3.5.4a.31.31,0,0,1-.2-.1c-.1-.1-.1-.1-.2,0s-.1.1,0,.2.1.1-.1.3-.2.2-.1,0,0-.5-.4-.8a3.74,3.74,0,0,1-.7-.6,1.87,1.87,0,0,0-.3-.4l-.4.2c-.2.2-.3.2-.4.1s-.4,0-.5.3-.1.2-.2.3a1.33,1.33,0,0,0-.5.6c0,.2-.2.5-.3.5l-.1.1c0,.1-.1.1-.3.1a.6.6,0,0,0-.4.1c-.1.1-.2.1-.3-.1s-.1-.2-.3-.1-.2,0-.2-.1v-.3a.76.76,0,0,1,.1-.4c.1-.1.1-.4.1-.6s0-.4.2-.5a.31.31,0,0,1,.2-.1,2.14,2.14,0,0,1,.6.1c.5,0,.5,0,.6-.2s.1-.3.1-.4c0-.3-.2-.7-.4-.7a.1.1,0,0,1-.1-.1c0-.1.1-.2.4-.1.1,0,.1,0,.2-.2s0-.2.1-.1.1.1.3,0l.2-.2c0-.1.1-.1.2-.2s.2-.2.3-.3.2-.2.2-.2,0,.1.1-.1.1-.2.5-.2c.1,0,.2-.1.1-.6v-.3a.1.1,0,0,0,.1-.1c.1-.1.3-.2.2,0v.2c0,.1,0,.1-.1.2s-.1.1-.1.2.1.3.4.3.3,0,.4.1a1,1,0,0,0,.4-.1,1,1,0,0,1,.4-.1c.1.1.3.1.3,0a.1.1,0,0,1,.1-.1c.1,0,.1-.1.1-.3,0-.4.1-.6.3-.4s.2.1.2-.1,0-.2-.1-.2a.1.1,0,0,1-.1-.1c0-.1.1-.2.6-.2.2,0,.4,0,.4-.1s-.1-.2-.3-.2a.6.6,0,0,0-.4.1c-.4.1-.6-.1-.6-.3v-.3c0-.1,0-.2.5-.6.2-.1.1-.2-.2-.3s-.5.1-.4.3,0,.2-.3.3a.82.82,0,0,0-.4.6c0,.1,0,.1.1.1a.31.31,0,0,1,.2.1c.1.1.1.1,0,.2a.22.22,0,0,1-.2.2c-.1.1-.1.1-.1.3s-.1.4-.3.4-.1,0-.1.1-.2.2-.3,0v-.2a.31.31,0,0,0-.1-.2.37.37,0,0,1-.1-.3v-.2c0-.1,0-.1-.1-.2s-.1-.1-.1,0a1.44,1.44,0,0,1-.2.3c-.2.1-.3.2-.4.1s-.3-.1-.1-.2.1-.1,0-.1-.1,0,0-.1.1-.1,0-.2,0-.4.2-.6a.37.37,0,0,1,.3-.1l.1-.1c0-.1,0-.1.1-.1a.31.31,0,0,0,.2-.1c.1-.1.1-.1.2-.1h0a.1.1,0,0,1,.1-.1c.1,0,.1-.1.2-.2s.2-.3.4-.4.4-.4.2-.3h-.1c-.1-.1,0-.1,0,0h.1c0-.1,0-.1.1,0s.3,0,.2-.1,0-.1,0-.1h.2v-.1c0-.1,0-.1.1,0h.2a.31.31,0,0,1,.2-.1h.1a.35.35,0,0,1,.2-.1c.1-.1.2-.1.1,0s-.1.1-.1.2H27a.35.35,0,0,1,.2-.1c.1,0,.1,0,.2-.1h.1s0,.1.1,0h.2c.2.1.2.1.1.1s-.1.1.2.1a2.82,2.82,0,0,1,1.1.4c.2.1.4.3.5.3s0,.1-.1.2-.2.1-.6,0-.6-.1-.4,0,.1.1.1.2,0,.2.1.2a.85.85,0,0,0,.5.3c.1,0,.1-.1-.1-.2a.1.1,0,0,1-.1-.1c0-.1,0-.1.1,0s.2.1.3.1.2,0,.1-.1-.1-.2.1-.3a.19.19,0,0,1,.3,0c.1.1.2-.1.1-.2a.35.35,0,0,1-.1-.2c0-.1,0-.1-.1-.2s.2-.1.3,0,.1.2,0,.2-.1.1,0,.2.3.1.3,0,.3-.2.5-.3.1,0,.2-.1h.1c0,.1.1.1.4,0h.4c0,.1.1.1.1,0s0-.2-.2-.3-.1-.1,0-.1.2.1.4.1l.6.3c.4.2.5.2.1-.1l-.2-.2v-.1a.1.1,0,0,0-.1-.1v-.1a.35.35,0,0,0,.1-.2c0-.1,0-.1.1-.1s.1,0,0-.1a.1.1,0,0,1,.1-.1c.1,0,.1,0,0,.1a.1.1,0,0,0,.1.1c.1,0,.2.1.2.3s0,.1.1.2a1,1,0,0,1,.1.3c0,.2.1.3.2.3s.1.1,0,.3-.1.2-.2.1h-.1a.45.45,0,0,0,.5,0,.19.19,0,0,0,0-.3v-.2c.1,0,.3.1.3.2h0c0-.2-.2-.3-.4-.3a.27.27,0,0,1-.3-.3c0-.1,0-.1-.1-.2s-.1-.1-.1-.2l.1-.1v-.2a.35.35,0,0,1,.1.2.22.22,0,0,0,.2.2h0c-.2-.1-.2-.2,0-.1s.1.1,0-.1-.1-.1,0-.1.2.1.3.2a.31.31,0,0,0,.2.1l-.1-.1c-.1-.1-.3-.3-.3-.4h.7a.1.1,0,0,1-.1-.1v-.1a1.78,1.78,0,0,1,1.1-.1h.3a.1.1,0,0,1,.1-.1.27.27,0,0,1,.4.2c0,.1.2.2.4.2s.2.1.3.1.1.1.2.1.1,0,.1.1.1.2,0,.2a.35.35,0,0,1-.2.1c-.1,0-.1.1-.2.1s0,.1.1.1.1,0,.1-.1,0-.1.1,0,.3.1.5.2.3.1.4.2.2.1.3.2h.1c0-.1,0-.1.2,0s.2.1.3.2l.1.1v.1c.1,0,.2.2.1.1l.1.1c.2.2.3.3.3.2s0-.1.2,0,.2.1.3.1h.2c.1.1.1,0,0-.1s-.1-.1,0-.1h.1a.35.35,0,0,0,.2.1c.1.1.2.1.2.2h0c0-.1.2,0,.3.2s0,.1.3.2c.1.1.2.1.3.2s.1.1.1.2h0c0,.1,0,.1.1.1h0l.1.1h0a.1.1,0,0,0,.1.1c.5.7,1.1,1.4,1.5,2.1h-.1c-.1-.1-.1-.1-.1,0h-.1v.2a.44.44,0,0,0,.1.3l.1.1a.1.1,0,0,0,.1.1l.1.1h0c-.1-.1-.1.1,0,.2s.1.1,0,.1v.3c.1.1.1.4,0,.2l-.2-.4a2.19,2.19,0,0,0-.3-.5c-.1-.3-.2-.5-.1-.6v-.4a4.33,4.33,0,0,0-.1-.5v.3c0,.1-.1.1-.1-.1a.1.1,0,0,0-.1-.1c-.1,0-.1,0-.1.2s0,.2.1.3.1.1,0,.1h-.1c-.1,0-.1,0-.1-.1s-.2-.2-.2-.2h-.2c-.3-.1-.1,0-.1.5a.37.37,0,0,1-.1.3v.1h.1c.1,0,.1.1.1.2h0c0-.1,0,0,.1.1s.1.1.1,0,.4.3.4.6c0,.1.1.2.1.4a2.22,2.22,0,0,1,.1.9c0,.7,0,.8-.1.7s-.1-.1-.1.1v.7a1.44,1.44,0,0,0,.2.3,3.29,3.29,0,0,1,.3.6q.15.3,0,.3c-.1,0-.1.1-.1,0a3.93,3.93,0,0,1-.2-.6.35.35,0,0,0-.1-.2c-.1,0-.1-.1-.2-.3s0-.2-.1-.2h-.1c-.1.1-.1,0-.1-.2s0-.1-.1-.2-.1,0-.1.2a.35.35,0,0,1-.1.2c-.1,0,0,.2.1.2l.1.1c0,.1.1.2.1.1s.1-.1.1,0,.2.2.1.2-.1.4-.1.5.1.1.3.5.3.5.2.6v.1h.1c.1,0,.2.2.2.7v.4a1.09,1.09,0,0,1-.1.5c-.1.2-.2.4-.3.2h0c0,.1,0,.2-.1.2a.3.3,0,0,0,0,.4c0,.1.1.1.1.2s0,.2-.1.2-.1-.4,0-.4v-.1c0-.1-.1-.1-.1-.2s-.2-.2-.3.1,0,.5.3.9a3.09,3.09,0,0,1,.5,1c.1.3.1.4,0,.5a.35.35,0,0,1-.1.2v.1a.6.6,0,0,1-.1.4.31.31,0,0,0-.1-.2.35.35,0,0,0-.1-.2l-.3-.3a1.44,1.44,0,0,1-.2-.3.1.1,0,0,1-.1-.1c-.1-.2-.1,0-.1.3,0,.5.1.6.2.7a.37.37,0,0,1,.1.3.35.35,0,0,0,.1.2c.2.1.5.4.4.7v.6c-.2,0-.3-.5-.4-.9,0-.2-.3-.7-.4-.7a2.18,2.18,0,0,1-.1-.6c-.1-.4-.2-.7-.2-.8a1.42,1.42,0,0,1-.2-.6C41.5,48.8,41.5,48.7,41.5,48.6ZM22.8,42.1h0c.1-.1.2,0,0,0Zm1.3-.4c.1,0,.2,0,.2.3a.27.27,0,0,1-.3.3V42C24,41.8,24,41.7,24.1,41.7Zm0-.4c.1-.1.1,0,.1.1s0,.2-.1.2Zm.8,1.3a.44.44,0,0,1,.3-.1c.3,0,.3,0,.3.2s0,.2-.1.2a.44.44,0,0,0-.3-.1Zm2.9.8h0Zm1.5.1a.35.35,0,0,1,.2-.1c.1,0,.1,0,.1.1a.35.35,0,0,1-.2.1A.1.1,0,0,1,29.3,43.5Zm-4.6-5.8h0c-.1-.1-.1-.1,0-.1Zm.2-.2c.2-.1.2-.1.2,0a.22.22,0,0,1-.2.2C24.7,37.6,24.8,37.5,24.9,37.5Zm1.2-.5h0c.1-.1.1,0,.1,0s0,.1-.1,0Zm.7-.2a.1.1,0,0,1,.1-.1c.1,0,.1,0,0,.1S26.8,36.9,26.8,36.8ZM43.6,39Zm-1.2.5c-.1,0-.1-.1,0,0l-.1-.1c0-.1,0,0,.1.1ZM43.6,60h0c.1-.1.1,0,0,0Zm.3,1a.1.1,0,0,1-.1.1l-.1.1c-.1.1-.1.1,0-.2,0-.1,0-.1.1-.2s.1,0,.1-.1C44.1,60.7,44.1,60.7,43.9,61Zm1.1-.5a.37.37,0,0,0-.1.3h0c0-.1-.1.1-.2.3s-.2.4-.3.4-.1,0,0-.1.2-.3.4-.6a2.19,2.19,0,0,0,.3-.5c.1-.2.1-.3.1-.2h0S45.2,60.2,45,60.5Zm.6-.9h0l-.3.6a.1.1,0,0,1,.1-.1c.1-.1.1-.1,0-.2v-.2a.31.31,0,0,1,.1-.2,1.09,1.09,0,0,0,.1-.5v-.1c0-.1,0-.1.1-.1v.4h0A1,1,0,0,1,45.6,59.6Zm.1-4.5v.2a.37.37,0,0,1-.1.3v1.5a.6.6,0,0,1-.1.4c0,.1-.1.2-.1.3s-.1.2-.1.4a.76.76,0,0,1-.2.4c0,.1-.1.2-.1.3a5.36,5.36,0,0,0-.5,1.1c0,.1-.1.1-.1.2l-.2.2c-.1.2-.1.2-.1.1s0-.1-.1,0l-.1.1h-.1c-.1,0-.1-.1,0-.2s.1-.3,0-.2v-.1c.1-.2.1-.2,0-.1s-.1.1,0-.1.1-.3,0,0-.2.3-.2.2,0-.5,0-.5h-.1a.31.31,0,0,0-.2.1c-.4.3-.6.4-.7.6s-.1.1-.2.2-.2.1-.3.2-.2.2-.3.1-.1-.1,0-.2a1.69,1.69,0,0,0,.2-.5v-.2a4.33,4.33,0,0,0,.1-.5c0-.3.1-.3.1-.4s.1-.1.1-.2.2-.8.3-.7l.1-.1c.1-.1,0-.1.1-.1l.1-.1c0-.1.2-.2.3-.3a1.44,1.44,0,0,1,.3-.2.76.76,0,0,0,.2-.5c.1-.2.2-.3.1-.2v0c0-.1,0-.1.1-.1a.1.1,0,0,0,.1-.1c0-.1.2-.3.2-.3V56c0-.1.1-.2.2-.1V56c0,.1,0,.1.1,0a.1.1,0,0,0,.1-.1.31.31,0,0,1,.1-.2c0-.1.1-.1.1-.2a.22.22,0,0,1,.2-.2c.1,0,.1-.2.1-.2s0-.1.1,0l.1.1c.1,0,.1,0,.1.1s0,.1-.1.1a.35.35,0,0,0-.1.2c-.1.2-.1.2,0,.4s.1.1.1.2.1,0,.1-.1a1.69,1.69,0,0,1,.2-.5c.1-.4.2-.7.2-.8s.1-.1,0,.3C45.7,55,45.7,55.1,45.7,55.1Zm-.5.1h0v.1c-.1,0-.1,0,0-.1Zm.1-1.5v-.3c.2,0,.1.1,0,.3Zm.8.2c0-.2-.1-.3-.1-.2a.35.35,0,0,0-.1.2c0,.2-.2.2-.2.1s0-.1-.1,0-.1.1-.1,0,0-.1.1-.1v-.5a.1.1,0,0,1-.1-.1l-.1-.1v-.1a.1.1,0,0,1,.1-.1h0a.1.1,0,0,1-.1-.1.1.1,0,0,0-.1-.1h0a.1.1,0,0,1,.1-.1c.1-.1.2-.1.2,0v.5c0,.1,0,.1.2-.1s.1-.2.2-.2l.2.2c.2.1.2.2.2.4v.2a.19.19,0,0,0,0,.3v.2h0v.2h-.1C46.2,54.1,46.2,54,46.1,53.9Zm.2,2.4v-.2h0Zm.2-3.1h0c-.1,0-.1,0-.1-.1a.1.1,0,0,0,.1-.1c.1,0,.1-.1.1-.2s.1-.2.1-.1A4.71,4.71,0,0,0,46.5,53.2Zm.2-.4h0v0Zm.1.4V53h0Zm.1.5Zm.1-.1Zm.1,1.4Zm.1-.2h0v-.1c.1,0,.1,0,0,.1Z"/><path class="cls-1" d="M39,39.7c0,.1.1.1,0,0Z"/><path class="cls-1" d="M39.5,35.1h0a.1.1,0,0,0-.1-.1l.1.1Z"/><path class="cls-1" d="M38.1,39.7h0c0,.1,0,.2.1.2s0-.1-.1-.2Z"/><path class="cls-1" d="M29.9,53.3a.1.1,0,0,0-.1.1.35.35,0,0,1-.1.2.1.1,0,0,0,.1-.1A.31.31,0,0,0,29.9,53.3Z"/><path class="cls-1" d="M31.3,42.5h0c0,.1.1.1,0,0Z"/><path class="cls-1" d="M32.4,36.9h0C32.4,37,32.5,37,32.4,36.9Z"/><path class="cls-1" d="M29.4,42.4c0,.1.1.1,0,0Z"/><path class="cls-1" d="M33.2,42.3h0c-.1-.1-.2-.1-.2-.2s0-.1.1-.1h.2a.31.31,0,0,0-.1-.2c-.1-.2-.2-.2-.2-.1s-.1.1-.1-.1,0-.2-.1-.2a.75.75,0,0,1-.3-.3,1.24,1.24,0,0,0-.2-.3.1.1,0,0,0,.1-.1.1.1,0,0,1,.1-.1c.1,0,.1-.1.1-.3a.33.33,0,0,0-.6,0c-.3.3-.4.4-.2.7a.31.31,0,0,1,.1.2,1.73,1.73,0,0,0,.3.4l.3.3v.7a.87.87,0,0,0,.9.4c.1-.1,0-.6-.1-.6S33.2,42.4,33.2,42.3Z"/><path class="cls-1" d="M31.8,42.7v.1a.1.1,0,0,0,.1.1v-.1Z"/><path class="cls-1" d="M28.3,41.7c-.1,0-.2,0-.2.1a.35.35,0,0,0,.2.1c.1,0,.2,0,.2-.1S28.5,41.7,28.3,41.7Z"/><path class="cls-1" d="M31.6,38v0c-.1.1,0,.4.1.3v-.1C31.5,38.1,31.5,38.1,31.6,38Z"/><path class="cls-1" d="M29.3,55.2a.75.75,0,0,0,.1.5.37.37,0,0,1,.1.3.35.35,0,0,0,.1.2c.1,0,.1-.1-.1-.4-.1-.1-.1-.4-.1-.5C29.4,54.9,29.3,54.8,29.3,55.2Z"/><path class="cls-1" d="M28.5,36.4c.2,0,.2-.2,0-.3s-.2-.1-.2,0C28.1,36.1,28.3,36.4,28.5,36.4Z"/><path class="cls-1" d="M34.1,40.7c-.1-.1-.1-.1-.1-.2s0-.1-.1-.1a.38.38,0,0,0-.3.5c0,.2.1.2.3.3h.2V41A.19.19,0,0,0,34.1,40.7Z"/><path class="cls-1" d="M29.2,36.1a.77.77,0,0,0-.1-.3c-.1-.1-.1-.2-.1-.1s0,.1-.1.1-.1.1.1.2S29.1,36.2,29.2,36.1Z"/><path class="cls-1" d="M29.7,36.9a.35.35,0,0,1-.1-.2c-.1-.1-.1-.1-.1,0S29.7,37.1,29.7,36.9Z"/><path class="cls-1" d="M30.1,40.8a1.44,1.44,0,0,0-.3-.2h.1c.1,0,.1-.2.1-.3a.1.1,0,0,1,.1-.1l.1-.1h-.1c-.1,0-.2,0-.2.1s-.2.1-.3.2-.2.1-.1.2a.31.31,0,0,0,.2.1c.1,0,.1,0,.1.1l-.1.1s-.2,0-.2.1-.1,0-.2-.1-.1-.2,0-.2.1-.1-.1-.1-.2,0-.2-.1-.4,0-.4.3c0,.1,0,.1-.1.1s-.3.7-.2.8a.72.72,0,0,0,.9.1.63.63,0,0,1,.7.1,1.23,1.23,0,0,0,1,.1C31.1,41.4,30.4,41,30.1,40.8Z"/></g></g><g id="Group-2" data-name="Group"><polygon id="Shape-9" data-name="Shape" class="cls-1" points="98.4 102.2 98.4 30.4 120.4 30.4 120.4 102.2 98.4 102.2"/><path id="Shape-10" data-name="Shape" class="cls-1" d="M109.2.3A10.3,10.3,0,1,1,99,10.6,10.46,10.46,0,0,1,109.2.3Z"/></g></g></g></svg>