<?xml version="1.0" encoding="utf-8"?>
<svg width="626px" height="130px" viewBox="0 0 626 130" version="1.1" xmlns="http://www.w3.org/2000/svg" xmlns:xlink="http://www.w3.org/1999/xlink">
    <!-- Generator: Sketch 51.3 (57544) - http://www.bohemiancoding.com/sketch -->
    <desc>Created with Sketch.</desc>
    <defs></defs>
    <g id="Page-1" stroke="none" stroke-width="1" fill="none" fill-rule="evenodd">
        <g id="DSC_Logo_2019_Wordmark_Void_RGB" fill="#141414" fill-rule="nonzero">
            <g id="Group">
                <path d="M145.4,78.5 C145.7,83.4 149.2,88.2 156.7,88.2 C162.3,88.2 165.1,85.2 165.1,82 C165.1,79.4 163.4,77.2 158,76.1 L149.8,74.2 C134.5,70.9 128.4,62.2 128.4,52.1 C128.4,39 140,28.3 156,28.3 C176.8,28.3 184,41.3 184.7,49.7 L166.5,53 C165.9,48.2 162.9,44.2 156.2,44.2 C152,44.2 148.4,46.7 148.4,50.4 C148.4,53.4 150.9,55.2 154,55.7 L163.5,57.6 C178.4,60.6 185.6,69.6 185.6,80.1 C185.6,92.4 176.2,104.4 157,104.4 C134.5,104.4 127.3,89.8 126.7,81.9 L145.4,78.5 Z" id="Shape"></path>
                <path d="M212.5,66.4 C212.5,77.8 220.2,84.2 229.3,84.2 C237.8,84.2 242.6,78.9 244.2,73.5 L263.6,79.4 C260.4,92 248.6,104.4 229.4,104.4 C208,104.4 190.8,88.7 190.8,66.4 C190.8,44 207.6,28.3 228.6,28.3 C248.4,28.3 259.9,40.4 263.1,53.3 L243.5,59.2 C241.9,53.7 237.6,48.5 229.1,48.5 C219.9,48.5 212.5,54.9 212.5,66.4 Z" id="Shape"></path>
                <path d="M343.3,66.3 C343.3,88.5 326.7,104.4 305.2,104.4 C283.8,104.4 267.1,88.5 267.1,66.3 C267.1,44.1 283.9,28.3 305.2,28.3 C326.7,28.3 343.3,44 343.3,66.3 Z M321.4,66.3 C321.4,54.2 313.6,48.5 305.2,48.5 C297,48.5 289,54.1 289,66.3 C289,78.3 296.9,84.2 305.2,84.2 C313.6,84.2 321.4,78.4 321.4,66.3 Z" id="Shape"></path>
                <polygon id="Shape" points="391.3 102.2 369.2 102.2 339.7 30.5 363.5 30.5 380.1 75.1 395.4 30.5 418.6 30.5"></polygon>
                <path d="M486.3,81.6 C482.8,94 471.4,104.4 453.2,104.4 C433.4,104.4 415.8,90.2 415.8,66.1 C415.8,43 433,28.3 451.6,28.3 C473.8,28.3 487.6,42 487.6,65.1 C487.6,68.1 487.3,71.5 487.2,71.9 L437.2,71.9 C437.6,80 445,85.8 453.5,85.8 C461.4,85.8 465.9,82 467.9,76.4 L486.3,81.6 Z M466.4,57.7 C466.1,52.2 462.4,45.6 452,45.6 C442.8,45.6 438.1,52.4 437.7,57.7 L466.4,57.7 Z" id="Shape"></path>
                <path d="M541.5,52.1 C539,51.5 536.7,51.4 534.6,51.4 C525.8,51.4 517.8,56.6 517.8,70.9 L517.8,102.2 L495.8,102.2 L495.8,30.4 L517,30.4 L517,40.1 C520.8,32 529.9,29.7 535.6,29.7 C537.8,29.7 539.9,30 541.4,30.4 L541.4,52.1 L541.5,52.1 Z" id="Shape"></path>
                <polygon id="Shape" points="558.4 129.8 574.7 92.5 544.5 30.5 569 30.5 586.5 68.9 602.4 30.5 625.7 30.5 581.5 129.8"></polygon>
                <g id="Shape">
                    <path d="M67.4,51.3 C67.4,34.4 53.8,20.8 37,20.8 L6.5,20.8 L6.5,0.4 L37,0.4 C66.5,0.4 89.8,22 89.8,51.3 C89.8,80.6 66.5,102.2 37,102.2 L6.5,102.2 L6.5,81.8 L37,81.8 C53.8,81.9 67.4,68.2 67.4,51.3 Z"></path>
                    <g transform="translate(0.000000, 26.000000)">
                        <path d="M6.2,12.3 C6.1,12.4 6.1,12.4 6.2,12.3 C6.3,12.3 6.3,12.3 6.2,12.3 C6.2,12.3 6.2,12.3 6.2,12.3 Z"></path>
                        <path d="M21.4,7.4 C21.4,7.3 21.4,7.3 21.4,7.4 C21.3,7.5 21.3,7.5 21.3,7.5 C21.4,7.5 21.4,7.4 21.4,7.4 Z"></path>
                        <path d="M23.1,5 C23.1,4.9 23,5 23,5 C22.9,5 22.9,5.1 23.1,5 C23,5 23.1,5 23.1,5 Z"></path>
                        <path d="M11.3,40.6 C11.2,40.7 11.2,40.7 11.3,40.6 C11.4,40.6 11.4,40.6 11.4,40.6 C11.4,40.6 11.4,40.6 11.3,40.6 Z"></path>
                        <path d="M18.7,47.2 C18.8,47.2 18.8,47.2 18.7,47.2 C18.8,47.2 18.8,47.2 18.7,47.2 C18.7,47.2 18.7,47.2 18.7,47.2 Z"></path>
                        <path d="M17.7,8.2 C17.8,8.2 17.7,8.2 17.7,8.2 C17.6,8.2 17.6,8.2 17.7,8.2 C17.7,8.2 17.7,8.2 17.7,8.2 Z"></path>
                        <path d="M42.6,23.8 C42.6,23.8 42.6,23.8 42.6,23.8 C42.5,23.6 42.5,23.6 42.5,23.7 C42.5,23.7 42.6,23.8 42.6,23.8 Z"></path>
                        <path d="M6.9,23.9 C6.8,23.9 6.8,23.9 6.9,24 C6.9,24.1 7,24.1 6.9,23.9 C7,23.9 6.9,23.9 6.9,23.9 Z"></path>
                        <path d="M7,16 C6.9,16 6.9,16 7,16 C6.9,16.1 6.9,16.1 6.9,16.1 C6.9,16.1 6.9,16.1 6.9,16.1 C6.9,16.1 7,16 7,16 Z"></path>
                        <path d="M8.8,24.6 C8.7,24.7 8.7,24.9 8.8,24.9 C8.8,24.9 8.9,24.9 8.9,24.8 C8.9,24.7 8.9,24.5 8.8,24.6 Z"></path>
                        <path d="M11.1,40.3 C11.1,40.4 11.1,40.4 11.1,40.3 C11.1,40.4 11.2,40.4 11.1,40.3 C11.1,40.3 11.1,40.3 11.1,40.3 C11.1,40.3 11.1,40.3 11.1,40.3 Z"></path>
                        <path d="M9.5,32 C9.5,32.1 9.6,32.1 9.6,32.1 C9.7,32.1 9.7,32.1 9.6,32 C9.5,31.9 9.4,31.9 9.5,32 Z"></path>
                        <path d="M10.7,39.4 C10.6,39.4 10.6,39.4 10.7,39.4 C10.7,39.5 10.8,39.5 10.8,39.5 C10.7,39.5 10.7,39.5 10.7,39.4 C10.7,39.4 10.7,39.4 10.7,39.4 Z"></path>
                        <path d="M16.7,6 C16.7,6.1 16.7,6.1 16.7,6 C16.7,6.1 16.8,6.1 16.7,6 C16.8,6 16.8,6 16.7,6 C16.7,6 16.7,6 16.7,6 Z"></path>
                        <path d="M25.1,23.9 C24.9,23.8 24.9,23.8 25,24 C25.1,24.1 25.3,24.2 25.3,24 C25.3,24 25.2,23.9 25.1,23.9 Z"></path>
                        <path d="M21.3,25.5 C21.2,25.5 21.2,25.5 21.2,25.5 C21.2,25.5 21.2,25.6 21.3,25.6 C21.4,25.7 21.4,25.7 21.4,25.6 C21.4,25.6 21.3,25.6 21.3,25.5 Z"></path>
                        <path d="M31.2,24.4 C31.3,24.3 31.3,24.3 31.2,24.4 C31.3,24.3 31.2,24.3 31.2,24.3 C31.2,24.2 31.1,24.3 31.2,24.4 C31.2,24.4 31.2,24.4 31.2,24.4 Z"></path>
                        <path d="M21.2,25.9 C21.2,26 21.2,26 21.2,25.9 C21.3,26 21.3,25.9 21.3,25.9 C21.4,25.9 21.3,25.8 21.2,25.9 C21.3,25.8 21.3,25.9 21.2,25.9 Z"></path>
                        <path d="M31.1,26.7 C31.1,26.8 31.1,27 31.2,27 C31.3,27.1 31.3,27.1 31.2,27 C31.2,27 31.2,26.8 31.1,26.7 C31.1,26.6 31.1,26.6 31.1,26.5 C31.1,26.6 31.1,26.6 31.1,26.7 Z"></path>
                        <path d="M42.9,15.7 C42.9,15.7 42.9,15.7 42.9,15.7 C42.8,15.7 42.8,15.7 42.9,15.7 C42.8,15.8 42.9,15.8 42.9,15.7 C42.9,15.8 42.9,15.8 42.9,15.7 Z"></path>
                        <path d="M30.5,30.7 C30.5,30.6 30.5,30.5 30.5,30.5 C30.5,30.5 30.4,30.6 30.4,30.9 C30.4,31.1 30.4,31.3 30.4,31.4 C30.4,31.5 30.4,31.6 30.5,31.6 C30.6,31.7 30.6,31.7 30.6,31.3 C30.6,31.1 30.6,30.9 30.6,30.9 C30.5,30.8 30.5,30.8 30.5,30.7 Z"></path>
                        <path d="M25.1,10.6 C25.1,10.7 25,10.7 25,10.7 C25,10.8 25.2,10.7 25.2,10.6 C25.3,10.5 25.2,10.5 25.1,10.6 Z"></path>
                        <path d="M30.1,28.6 C30.2,28.6 30.3,28.6 30.4,28.6 C30.5,28.6 30.5,28.6 30.5,28.5 C30.5,28.5 30.5,28.3 30.6,28.2 C30.7,28 30.7,27.9 30.6,27.9 C30.4,27.8 30.2,27.9 30.1,28 C30.1,28 30,28.2 30,28.4 C29.9,28.6 29.9,28.6 30.1,28.6 Z"></path>
                        <path d="M34.3,8 C34.3,8 34.3,8 34.3,8 C34.3,8.1 34.4,8.1 34.4,8.1 C34.4,8.1 34.4,8.1 34.3,8 C34.4,8 34.3,8 34.3,8 Z"></path>
                        <path d="M28,9.7 C28,9.8 28,9.8 28,9.7 C27.9,9.7 27.9,9.7 27.8,9.8 C27.8,9.9 27.8,9.9 27.7,9.9 C27.7,9.9 27.6,9.9 27.6,9.9 C27.6,9.9 27.6,10 27.7,10 C27.9,10 28,9.9 28,9.7 C28,9.7 28,9.7 28,9.7 C28,9.7 28,9.7 28,9.7 Z"></path>
                        <path d="M27.5,8 C27.5,8 27.5,8 27.5,8 C27.6,8.1 27.6,8 27.6,8 C27.6,7.9 27.6,7.9 27.5,8 C27.5,7.9 27.5,7.9 27.5,8 Z"></path>
                        <path d="M27.5,9.6 C27.5,9.7 27.5,9.7 27.5,9.6 C27.6,9.7 27.6,9.6 27.5,9.6 C27.6,9.6 27.6,9.6 27.5,9.6 C27.5,9.6 27.5,9.6 27.5,9.6 Z"></path>
                        <path d="M27.3,9.9 C27.3,9.9 27.3,10 27.3,10 C27.4,10 27.4,10 27.3,9.9 C27.4,9.8 27.3,9.8 27.3,9.9 Z"></path>
                        <path d="M15.8,8.1 C15.8,8 15.7,8.1 15.7,8.1 C15.7,8.1 15.7,8.1 15.7,8.1 C15.8,8.1 15.8,8.1 15.8,8.1 Z"></path>
                        <path d="M13.1,13.2 C13.1,13.2 13,13.2 13,13.3 C12.9,13.4 12.9,13.4 13.1,13.3 C13.1,13.2 13.1,13.2 13.1,13.2 Z"></path>
                        <path d="M15.4,9.2 C15.5,9.2 15.5,9.2 15.4,9.2 C15.4,9.1 15.3,9.1 15.2,9.2 C15.2,9.3 15.2,9.3 15.2,9.3 C15.3,9.2 15.4,9.2 15.4,9.2 Z"></path>
                        <path d="M15.1,7.8 C15.1,7.8 15.2,7.7 15.2,7.7 C15.2,7.7 15.2,7.7 15.2,7.7 C15.1,7.7 15.1,7.7 15,7.7 C15,7.7 15,7.7 15,7.7 C15,7.7 15,7.8 14.9,7.8 C14.8,7.9 14.9,7.9 15,7.9 C15,7.9 15.1,7.9 15.1,7.8 Z"></path>
                        <path d="M13.8,8.4 C13.8,8.4 13.8,8.4 13.8,8.4 C13.9,8.3 13.9,8.3 13.8,8.4 C13.8,8.3 13.8,8.3 13.8,8.4 Z"></path>
                        <path d="M13.8,13.1 C13.8,13 13.8,13 13.8,13.1 C13.7,13.1 13.7,13.2 13.7,13.2 C13.7,13.3 13.7,13.2 13.8,13.1 Z"></path>
                        <path d="M14.7,12.5 C14.7,12.5 14.8,12.4 14.7,12.5 C14.8,12.4 14.7,12.3 14.7,12.3 C14.7,12.3 14.7,12.3 14.7,12.5 C14.7,12.4 14.7,12.5 14.7,12.5 Z"></path>
                        <path d="M15.3,5.8 C15.2,5.8 15.2,5.8 15.3,5.8 C15.3,5.9 15.3,5.9 15.3,5.8 C15.3,5.8 15.3,5.8 15.3,5.8 Z"></path>
                        <path d="M15.8,5.5 C15.9,5.4 15.8,5.4 15.7,5.5 C15.7,5.5 15.6,5.5 15.6,5.6 C15.6,5.6 15.7,5.6 15.7,5.6 C15.7,5.6 15.7,5.6 15.8,5.5 Z"></path>
                        <path d="M13,9.7 C13,9.6 12.9,9.6 12.9,9.6 C12.9,9.6 12.9,9.7 12.9,9.7 C12.9,9.7 12.9,9.7 13,9.7 C13,9.7 13,9.7 13,9.7 Z"></path>
                        <path d="M14.9,6 C14.9,5.9 14.9,5.9 14.9,6 C14.8,6.1 14.8,6.1 14.7,6.1 C14.6,6.1 14.6,6.1 14.7,6.1 C14.9,6.1 15,6 14.9,6 Z"></path>
                        <path d="M13.3,36.7 C13.3,36.6 13.3,36.6 13.3,36.6 C13.3,36.5 13.2,36.7 13.3,36.7 C13.2,36.8 13.2,36.8 13.3,36.7 Z"></path>
                        <path d="M15.4,12.5 C15.5,12.4 15.5,12.4 15.4,12.5 C15.2,12.6 15.2,12.6 15.3,12.6 C15.3,12.5 15.4,12.5 15.4,12.5 Z"></path>
                        <path d="M10.4,14.8 C10.3,14.9 9.9,15.7 9.9,15.8 C9.9,15.9 10.1,15.7 10.2,15.4 C10.3,15.1 10.4,15.1 10.5,14.9 C10.7,14.7 10.7,14.7 10.8,14.8 C10.8,14.9 10.8,15 10.7,15 C10.6,15.1 10.6,15.1 10.6,15.2 C10.6,15.2 10.6,15.2 10.7,15.2 C10.8,15.1 10.8,15.1 10.8,15.3 C10.8,15.4 10.8,15.4 10.8,15.5 C10.9,15.4 10.9,15.3 11,15.2 C11.1,15.1 11.2,14.9 11.2,14.9 C11.2,14.9 11.2,14.9 11.3,15 C11.3,15.2 11.5,15 11.4,14.8 C11.4,14.6 11.3,14.6 11.3,14.7 C11.3,14.7 11.3,14.8 11.2,14.8 C11.2,14.8 11.2,14.8 11.2,14.7 C11.2,14.5 10.6,14.6 10.4,14.8 Z"></path>
                        <path d="M11.4,15.4 C11.5,15.4 11.7,15.4 11.7,15.3 C11.8,15.2 11.8,15.1 11.7,15.1 C11.7,15.1 11.6,15.2 11.5,15.2 C11.2,15.2 11.1,15.4 11.4,15.4 Z"></path>
                        <path d="M9.6,10.1 C9.5,10.2 9.5,10.2 9.4,10.3 C9.3,10.4 9.3,10.4 9.2,10.5 C9.2,10.5 9.2,10.5 9.3,10.5 C9.3,10.5 9.4,10.4 9.4,10.4 C9.4,10.4 9.5,10.3 9.5,10.3 C9.5,10.3 9.5,10.3 9.5,10.4 C9.5,10.5 9.5,10.4 9.6,10.4 C9.7,10.3 9.8,10.3 9.8,10.2 C10,10.1 10,10 9.9,10.1 C9.8,10.1 9.8,10.1 9.8,10.1 C9.9,10 9.8,10 9.5,10.2 C9.4,10.3 9.4,10.3 9.3,10.3 C9.4,10.3 9.4,10.3 9.5,10.2 C9.5,10.2 9.5,10.2 9.6,10.1 Z"></path>
                        <path d="M11.3,10.4 C11.3,10.3 11.3,10.3 11.2,10.4 C11.2,10.4 11.2,10.5 11.2,10.5 C11.2,10.6 11.2,10.5 11.3,10.4 Z"></path>
                        <path d="M10.9,13.7 C11,13.6 10.9,13.5 10.9,13.7 C10.8,13.6 10.8,13.7 10.9,13.7 C10.9,13.7 10.9,13.7 10.9,13.7 Z"></path>
                        <path d="M10.1,12 C10,12.1 10,12.1 10,12.1 C10,12.1 10.3,11.8 10.3,11.7 C10.4,11.6 10.3,11.6 10.2,11.8 C10.1,11.9 10.1,11.9 10.1,11.9 C10.2,11.9 10.2,12 10.1,12 Z"></path>
                        <path d="M10.4,14.4 C10.5,14.3 10.5,14.3 10.5,14.4 C10.4,14.5 10.5,14.6 10.7,14.6 C10.8,14.6 10.8,14.6 10.9,14.6 C10.9,14.5 10.9,14.5 11,14.4 C11,14.3 11,14.2 11,14.2 C11,14.2 10.9,14.2 10.9,14.1 C10.9,13.9 10.8,13.9 10.4,14.2 C10.2,14.3 10,14.5 10,14.5 C10,14.5 10.3,14.5 10.4,14.4 Z"></path>
                        <path d="M12.3,9.2 C12.3,9.2 12.3,9.3 12.3,9.2 C12.2,9.3 12.2,9.3 12.2,9.3 C12.2,9.3 12.3,9.3 12.3,9.2 C12.3,9.2 12.3,9.2 12.3,9.2 Z"></path>
                        <path d="M9.8,13.6 C9.8,13.6 9.9,13.5 9.9,13.4 C9.9,13.3 9.9,13.3 9.9,13.3 C9.8,13.4 9.7,13.6 9.8,13.6 Z"></path>
                        <path d="M9.9,11.5 C9.8,11.5 9.7,11.6 9.7,11.6 C9.6,11.7 9.6,11.7 9.8,11.6 C10,11.5 10,11.4 9.9,11.5 Z"></path>
                        <path d="M9.9,12.8 C9.8,12.9 9.8,13 9.8,13 C9.8,13 9.8,13.1 9.8,13.1 C9.8,13.1 9.7,13.2 9.8,13.2 C9.8,13.2 9.8,13.2 9.9,13.1 C9.9,13 10,12.8 9.9,12.8 C10.1,12.6 10.1,12.6 9.9,12.8 Z"></path>
                        <path d="M10.7,15.7 C10.5,15.8 10.5,15.9 10.6,15.9 C10.7,15.9 11.2,15.7 11.2,15.6 C11.3,15.4 11.2,15.4 10.7,15.7 Z"></path>
                        <path d="M10.3,12.6 C10.3,12.7 10.2,12.7 10.3,12.6 C10.2,12.7 10.1,12.7 10.1,12.7 C10,12.8 10,13 10.1,13.1 C10.1,13.1 10.1,13.3 10.1,13.4 C10,13.5 10,13.6 10.1,13.5 C10.2,13.4 10.2,13.2 10.3,13 C10.2,12.8 10.3,12.6 10.3,12.6 Z"></path>
                        <path d="M10,13.9 C10,13.9 10.1,13.8 10.1,13.8 C10.1,13.7 10.1,13.7 10.1,13.7 C10.1,13.7 10,13.8 10,13.8 C9.9,13.9 9.9,13.9 10,13.9 Z"></path>
                        <path d="M9.7,10.9 C9.7,10.8 9.7,10.8 9.7,10.9 C9.6,11 9.6,11.1 9.4,11.2 C9.3,11.3 9.3,11.3 9.2,11.3 C9.3,11.3 9.3,11.3 9.3,11.3 C9.4,11.3 9.5,11.2 9.5,11.2 C9.5,11.2 9.7,11.1 9.7,11 C9.8,10.9 9.9,10.9 9.9,10.9 C9.9,10.9 10,10.9 10,10.8 C10.1,10.7 10,10.7 9.8,10.9 C9.8,10.9 9.7,10.9 9.7,10.9 Z"></path>
                        <path d="M36.8,15.6 C36.7,15.6 36.7,15.6 36.7,15.7 C36.7,15.8 36.7,15.8 36.8,15.8 C36.9,15.8 36.9,15.8 36.9,15.7 C36.9,15.7 36.9,15.6 36.8,15.6 Z"></path>
                        <path d="M36.6,14.6 C36.5,14.6 36.5,14.6 36.6,14.6 C36.6,14.6 36.7,14.6 36.6,14.6 C36.7,14.6 36.7,14.6 36.6,14.6 Z"></path>
                        <path d="M37,7.7 C36.9,7.7 36.9,7.8 37,7.7 C37,7.8 37,7.8 37.1,7.8 C37,7.9 37,7.9 37,7.7 C37,7.8 37,7.8 37,7.7 Z"></path>
                        <path d="M36.1,14.5 C36,14.6 35.9,14.6 36,14.8 C36,15 36.1,14.9 36.1,14.8 C36.1,14.7 36.2,14.6 36.1,14.5 C36.2,14.6 36.3,14.6 36.2,14.5 C36.2,14.5 36.2,14.4 36.2,14.4 C36.3,14.5 36.2,14.5 36.1,14.5 Z"></path>
                        <path d="M34.9,8.1 C34.9,8.2 34.9,8.2 34.9,8.2 C34.9,8.2 35,8.3 35,8.3 C35,8.4 35,8.4 35.1,8.4 C35.1,8.4 35.1,8.3 35.1,8.2 C35,8 34.9,8 34.9,8.1 Z"></path>
                        <path d="M36.8,7.9 C36.7,7.8 36.6,7.7 36.6,7.8 C36.6,7.8 36.7,7.9 36.8,7.9 C36.8,8 36.8,8 36.8,7.9 Z"></path>
                        <path d="M37.1,14.1 C37.1,14.1 37.1,14.2 37.1,14.1 C37.2,14.2 37.2,14.3 37.3,14.3 C37.3,14.3 37.3,14.3 37.3,14.2 C37.2,14.2 37.2,14.1 37.1,14.1 Z"></path>
                        <path d="M39.6,12.6 C39.6,12.6 39.6,12.7 39.6,12.8 C39.6,13.1 39.5,13.4 39.4,13.5 C39.3,13.5 39.3,13.5 39.4,13.6 C39.4,13.6 39.5,13.6 39.5,13.5 C39.5,13.4 39.6,13.4 39.6,13.4 C39.7,13.4 39.7,13.1 39.6,12.9 C39.6,12.7 39.6,12.6 39.6,12.6 Z"></path>
                        <path d="M40.2,17.3 C40.2,17.3 40.2,17.4 40.2,17.3 C40.2,17.4 40.2,17.5 40.3,17.5 C40.3,17.5 40.3,17.4 40.2,17.3 C40.3,17.4 40.3,17.3 40.2,17.3 Z"></path>
                        <path d="M24.7,0.9 C11.2,0.9 0.3,11.8 0.3,25.3 C0.3,38.8 11.2,49.7 24.7,49.7 C38.2,49.7 49.1,38.8 49.1,25.3 C49.1,11.8 38.2,0.9 24.7,0.9 Z M46.9,27.4 C46.9,27.4 46.9,27.4 46.9,27.4 C46.9,27.5 46.9,27.4 46.9,27.4 C46.9,27.4 46.9,27.3 46.9,27.4 Z M45.4,26.4 C45.4,26.4 45.4,26.4 45.4,26.4 C45.4,26.4 45.3,26.4 45.4,26.4 C45.3,26.4 45.3,26.4 45.4,26.4 Z M45.2,26.1 C45.2,26 45.2,26 45.2,26.1 C45.2,26.2 45.2,26.2 45.2,26.1 C45.2,26.1 45.2,26 45.2,26.1 C45.3,26.1 45.1,26.6 45.1,26.6 C45.1,26.6 45.1,26.1 45.2,26.1 Z M45.1,27 C45.2,27 45.2,27 45.2,27.1 C45.2,27.2 45.2,27.2 45.1,27.2 C45.1,27.2 45,27.2 45,27.2 C45,27.2 45,27.2 45,27.2 C45,27.1 45.1,27 45.1,27 Z M45.1,27.9 C45.1,27.9 45.1,28 45.1,28 C45.1,28 45.1,28.1 45.1,28 C45.1,28 45.1,28 45.1,27.9 C45.1,27.9 45.1,27.9 45.1,27.9 Z M44.8,24.5 C44.8,24.4 44.8,24.3 44.8,24.3 C44.8,24.3 45,24.8 45,24.9 C45,24.9 45,24.9 45,24.9 C45,24.9 45,24.9 45,25 C45,25.1 45,25.1 45,25.1 C44.9,25.1 44.9,25 44.8,24.9 C44.8,24.8 44.7,24.7 44.7,24.8 C44.7,24.8 44.6,24.9 44.6,24.9 C44.6,24.9 44.6,24.9 44.6,24.9 C44.6,24.8 44.6,24.7 44.6,24.7 C44.6,24.6 44.7,24.6 44.7,24.7 C44.7,24.7 44.8,24.7 44.8,24.5 Z M44.9,27.2 C44.9,27.3 44.8,27.2 44.9,27.2 C44.9,27.1 44.9,27.1 44.9,27.1 C44.9,27.1 44.9,27.1 44.9,27.2 C44.9,27.2 44.9,27.2 44.9,27.2 Z M44.9,28.8 C44.9,28.8 44.9,28.8 44.9,28.8 C44.9,28.9 44.9,28.9 44.8,28.9 C44.8,28.9 44.8,28.9 44.9,28.8 C44.9,28.8 44.9,28.8 44.9,28.8 Z M44.9,26.3 C44.8,26.4 44.8,26.4 44.7,26.4 C44.6,26.4 44.5,26.4 44.5,26.5 C44.5,26.6 44.5,26.7 44.5,26.7 C44.5,26.8 44.5,26.8 44.6,26.7 C44.6,26.6 44.7,26.6 44.7,26.6 C44.7,26.6 44.7,26.6 44.6,26.8 C44.6,26.9 44.5,26.9 44.5,27 C44.5,27.1 44.5,27.1 44.5,27.2 C44.5,27.3 44.5,27.4 44.5,27.5 C44.5,27.6 44.5,27.8 44.4,27.8 C44.4,27.8 44.4,27.7 44.4,27.6 C44.5,27.5 44.4,27.5 44.4,27.6 C44.4,27.7 44.4,27.6 44.4,27.5 C44.4,27.4 44.4,27.3 44.4,27.3 C44.4,27.3 44.4,27.2 44.4,27.2 C44.4,27.2 44.3,27.3 44.3,27.5 C44.3,27.7 44.2,27.8 44.2,27.8 C44.2,27.8 44.2,27.8 44.2,27.6 C44.2,27.5 44.3,27.4 44.2,27.3 C44.2,27.2 44.3,26.8 44.3,26.7 C44.3,26.7 44.3,26.6 44.4,26.5 C44.4,26.4 44.6,26.1 44.6,26.1 C44.7,26.3 44.8,26.3 44.9,26.3 C45,26.1 45,26.1 44.9,26.3 Z M44.7,28.3 C44.6,28.3 44.6,28.4 44.7,28.3 C44.6,28.4 44.5,28.5 44.5,28.6 C44.3,28.8 44.3,28.8 44.4,28.7 C44.3,28.6 44.4,28.4 44.7,28.3 C44.7,28.2 44.7,28.2 44.7,28.3 Z M43.9,28.7 C44,28.7 44,28.7 43.9,28.7 C44,28.9 43.9,28.9 43.9,28.8 C43.9,28.7 43.9,28.7 43.9,28.7 C43.9,28.7 43.9,28.7 43.9,28.7 Z M43.9,28.6 C43.9,28.6 43.8,28.6 43.8,28.7 C43.8,28.7 43.7,28.7 43.8,28.7 C43.7,28.6 43.8,28.5 43.9,28.6 C43.8,28.5 43.8,28.5 43.9,28.6 C43.9,28.5 43.9,28.5 43.9,28.5 C43.9,28.5 43.9,28.6 43.9,28.6 Z M43.8,27.5 C43.8,27.6 43.7,27.6 43.8,27.5 C43.7,27.4 43.7,27.4 43.6,27.5 C43.5,27.5 43.5,27.5 43.5,27.5 C43.5,27.5 43.5,27.5 43.4,27.5 C43.3,27.5 43.3,27.5 43.3,27.3 C43.3,27.2 43.3,27.1 43.3,27.1 C43.3,27.1 43.3,26.7 43.4,26.5 C43.4,26.4 43.5,26.4 43.5,26.4 C43.6,26.4 43.6,26.4 43.6,26.3 C43.6,26.2 43.7,26.1 43.7,26.1 C43.8,26 43.9,25.9 43.9,25.8 C43.9,25.7 43.9,25.6 44,25.6 C44,25.6 44,25.5 44.1,25.4 C44.1,25.1 44.2,25.1 44.3,25.3 C44.3,25.4 44.4,25.4 44.4,25.5 C44.5,25.6 44.5,25.6 44.4,25.6 C44.4,25.6 44.4,25.7 44.4,25.7 C44.4,25.8 44.4,25.8 44.4,25.8 C44.4,25.8 44.4,25.8 44.4,25.9 C44.4,25.9 44.4,26 44.4,26 C44.4,26 44.4,26.1 44.4,26.2 C44.4,26.3 44.4,26.4 44.4,26.4 C44.5,26.4 44.4,26.5 44.3,26.5 C44.3,26.5 44.2,26.6 44.2,26.7 C44.2,26.8 44.1,26.9 44.1,27 C44.1,27.1 44,27.2 44,27.2 C44,27.2 43.9,27.4 43.8,27.5 Z M43.7,28.6 C43.7,28.6 43.7,28.6 43.7,28.6 C43.6,28.6 43.6,28.6 43.7,28.6 C43.6,28.5 43.7,28.5 43.7,28.6 C43.7,28.5 43.7,28.5 43.7,28.6 Z M42.1,27.2 C42.1,27.2 42.1,27.3 42.1,27.3 C42.1,27.3 42.1,27.3 42.1,27.3 C42.1,27.3 42.1,27.3 42.1,27.2 C42.1,27.2 42.1,27.2 42.1,27.2 Z M42,26.8 C42,26.8 42,26.7 42,26.8 C42,26.7 42,26.7 42,26.7 C42.1,26.6 42.1,26.7 42,26.8 C42.1,26.7 42.1,26.8 42,26.8 Z M42.1,26.2 C42,26 41.8,25.7 41.8,25.7 C41.8,25.7 41.8,25.6 41.9,25.7 C41.9,25.7 42,25.7 42,25.7 C42,25.7 42.3,25.9 42.3,26.1 C42.3,26.3 42.4,26.4 42.5,26.4 C42.6,26.4 42.6,26.4 42.6,26.5 C42.6,26.6 42.7,26.7 42.7,26.7 C42.7,26.8 42.7,26.9 42.7,26.9 C42.7,26.9 42.7,27.1 42.8,27.3 C42.9,27.5 42.9,27.6 42.8,27.9 C42.7,28.1 42.7,28.2 42.6,28.2 C42.5,28.2 42.3,27.7 42.3,27.4 C42.3,27.3 42.3,27.1 42.3,27 C42.3,26.9 42.3,26.8 42.3,26.7 C42.2,26.6 42.2,26.4 42.1,26.2 Z M42.9,28.3 C42.9,28.4 43,28.4 43.1,28.3 C43.3,28.3 43.3,28.3 43.3,28.3 C43.3,28.4 43.4,28.4 43.4,28.4 C43.5,28.4 43.5,28.4 43.5,28.5 C43.5,28.6 43.1,28.6 43,28.6 C42.9,28.6 42.8,28.6 42.8,28.6 C42.6,28.6 42.5,28.5 42.6,28.4 C42.7,28.2 42.9,28.2 42.9,28.3 Z M42.9,27.2 C43,27.1 43,27.1 43,27.3 C43,27.4 43,27.5 43,27.5 C42.9,27.5 42.8,27.3 42.9,27.2 Z M43,27.5 C43,27.4 43.1,27.4 43,27.5 C43.1,27.4 43.1,27.4 43,27.5 C43.1,27.5 43,27.5 43,27.5 Z M43.4,28.3 C43.4,28.3 43.4,28.3 43.4,28.3 C43.5,28.2 43.5,28.3 43.4,28.3 C43.5,28.3 43.4,28.3 43.4,28.3 Z M43.4,15.2 C43.4,15.2 43.5,15.3 43.5,15.4 C43.6,15.5 43.6,15.6 43.6,15.5 C43.6,15.5 43.5,15.5 43.5,15.5 C43.5,15.6 43.5,15.5 43.3,14.9 C43.2,14.5 43,14.2 43,14.2 C42.9,14.1 42.8,13.8 42.8,13.8 C42.8,13.8 42.8,13.8 42.8,13.7 C42.8,13.6 42.8,13.6 42.9,13.8 C43,13.9 43,14 43,14.1 C43,14.2 43.2,14.6 43.3,14.8 C43.4,14.9 43.4,15 43.3,15 C43.3,14.9 43.4,15 43.4,15.2 Z M43.6,21.2 C43.6,21.3 43.6,21.3 43.6,21.3 C43.6,21.3 43.5,21.3 43.6,21.2 C43.5,21.1 43.5,21 43.4,20.8 C43.4,20.7 43.4,20.6 43.4,20.6 C43.4,20.6 43.4,20.6 43.4,20.6 C43.5,20.6 43.6,21.1 43.6,21.2 Z M44.2,24.1 C44.2,24.1 44.2,24.2 44.2,24.4 C44.1,24.7 44.1,24.7 44.2,24.4 C44.2,24.2 44.2,24.1 44.2,24.1 Z M44.1,23.5 C44.1,23.5 44.2,23.4 44.1,23.5 C44.2,23.5 44.2,23.6 44.2,23.7 C44.2,23.8 44.2,23.8 44.2,23.7 C44.2,23.6 44.2,23.5 44.1,23.5 Z M44.6,24.4 C44.6,24.3 44.6,24.3 44.6,24.2 C44.6,24 44.6,24 44.6,24.1 C44.6,24.2 44.6,24.2 44.5,24 C44.5,23.9 44.5,23.8 44.5,23.9 C44.6,23.9 44.6,24.1 44.7,24.3 C44.6,24.4 44.6,24.5 44.6,24.4 Z M44.6,24.2 C44.6,24.1 44.6,24.1 44.6,24.2 C44.7,24.2 44.7,24.3 44.7,24.3 C44.7,24.3 44.7,24.3 44.7,24.3 C44.7,24.2 44.6,24.2 44.6,24.2 C44.6,24.3 44.6,24.2 44.6,24.2 Z M44.1,28.4 C44.2,28.4 44.2,28.5 44.1,28.5 C44,28.5 44,28.5 44,28.5 C44,28.4 44.1,28.4 44.1,28.4 Z M44.6,23.7 C44.7,23.7 44.7,23.8 44.7,24.1 C44.7,24.2 44.7,24.2 44.7,24.1 C44.7,24 44.6,24 44.7,23.9 C44.7,23.9 44.7,23.8 44.7,23.8 C44.5,23.7 44.5,23.7 44.6,23.7 Z M44.5,23.8 C44.5,23.8 44.5,23.7 44.5,23.8 C44.4,23.7 44.5,23.7 44.5,23.8 C44.5,23.8 44.5,23.8 44.5,23.8 Z M44.4,23.5 C44.3,23.4 44.3,23.4 44.4,23.5 C44.3,23.5 44.3,23.5 44.3,23.5 C44.3,23.5 44.2,23.4 44.2,23.5 C44.2,23.5 44.1,23.5 44.1,23.4 C44.1,23.3 44.1,23.3 44.1,23.3 C44.1,23.3 44.1,23.3 44,23.1 C43.9,23 43.9,22.9 43.9,22.9 C43.9,22.9 43.9,22.8 43.9,22.7 C43.9,22.6 43.9,22.5 43.8,22.4 C43.8,22.3 43.8,22.3 43.9,22.3 C44,22.3 44,22.3 44,22.5 C44,22.6 44.1,22.8 44,22.8 C44,23 44.1,23.3 44.2,23.3 C44.4,23.3 44.4,23.4 44.4,23.5 C44.5,23.6 44.5,23.6 44.4,23.5 Z M44.3,18 C44.4,18.2 44.4,18.3 44.3,18.2 C44.3,18.1 44.3,18.1 44.3,18.2 C44.3,18.2 44.3,18.3 44.2,18.3 C44.1,18.3 44.1,18.3 44.1,18.4 C44.1,18.6 44.1,18.6 44,18.4 C44,18.3 43.9,18.3 43.9,18.3 C43.9,18.3 43.9,18.3 43.9,18.4 C44,18.5 44,18.7 43.9,18.6 C43.9,18.6 43.9,18.6 43.9,18.7 C43.9,18.8 43.9,18.8 43.8,18.7 C43.8,18.6 43.8,18.6 43.8,18.5 C43.8,18.4 43.8,18.4 43.8,18.4 C43.8,18.4 43.8,18.4 43.8,18.5 C43.8,18.5 43.8,18.5 43.8,18.5 C43.7,18.4 43.7,18.5 43.8,18.6 C43.9,18.7 43.9,18.7 43.9,18.9 C43.9,19.2 43.9,19.2 43.8,18.9 C43.8,18.7 43.7,18.7 43.7,18.7 C43.7,18.8 43.6,18.6 43.6,18.5 C43.6,18.2 43.7,18.1 43.8,18.1 C43.9,18.1 43.9,18.1 43.9,17.7 C43.9,17.6 43.9,17.6 43.9,17.7 C43.9,17.8 43.9,17.8 44,17.7 C44,17.6 44,17.3 43.9,17.1 C43.8,16.8 43.8,16.7 43.8,16.8 C43.8,16.8 43.8,16.8 43.8,16.8 C43.8,16.7 43.8,16.7 43.8,16.7 C43.8,16.7 43.9,16.8 43.9,17 C44,17.2 44,17.3 44.1,17.4 C44.2,17.6 44.2,17.6 44.3,18 Z M44,16.4 C44,16.4 44,16.5 44,16.4 C44,16.6 44,16.6 43.9,16.5 C43.8,16.4 43.7,16.4 43.7,16.5 C43.7,16.5 43.7,16.5 43.7,16.6 C43.7,16.6 43.7,16.6 43.7,16.7 C43.7,16.8 43.7,16.8 43.6,16.7 C43.5,16.6 43.5,16.4 43.5,16.4 C43.5,16.4 43.5,16.3 43.4,16 C43.3,15.8 43.4,15.8 43.5,16.1 C43.6,16.2 43.6,16.3 43.7,16.3 C44,16.2 44.1,16.4 44,16.4 Z M43.9,14.8 C43.9,14.8 43.9,14.7 43.9,14.8 C43.9,14.7 43.9,14.8 43.9,14.8 C43.9,14.8 43.9,14.8 43.9,14.8 Z M40.8,9.1 C40.8,9.1 40.9,9.1 40.8,9.1 C40.9,9.2 40.9,9.2 41,9.3 C40.9,9.2 40.9,9.1 40.8,9.1 C40.8,9 40.8,9 40.8,9.1 Z M40,8.6 C40.1,8.6 40.1,8.6 40,8.6 C40.1,8.6 40.2,8.7 40.3,8.8 C40.5,8.9 40.6,9 40.6,9 C40.6,9.1 40.2,8.9 40.1,8.8 C40,8.7 40,8.6 40,8.6 Z M40.8,9.3 C40.9,9.4 40.8,9.3 40.7,9.3 C40.6,9.3 40.6,9.2 40.6,9.2 C40.6,9.2 40.7,9.2 40.8,9.3 Z M37.9,8.2 C38,8.2 37.9,8.3 37.9,8.2 C37.9,8.2 37.9,8.2 37.9,8.2 C37.8,8.1 37.8,8.1 37.9,8.2 C37.9,8.1 37.9,8.2 37.9,8.2 Z M36.2,6.8 C36.2,6.7 36.4,6.7 36.4,6.8 C36.4,6.8 36.5,6.9 36.5,6.9 C36.6,6.9 36.7,7 36.7,7 C36.7,7 36.6,7 36.4,7 C36.3,7 36.2,7 36.1,7 C36.1,6.9 36.1,6.9 36.2,6.8 Z M35.1,6.3 C35.1,6.3 35.1,6.2 35.1,6.3 C35.1,6.2 35.1,6.2 35.1,6.2 C35.2,6.1 35.6,6.2 35.6,6.4 C35.6,6.4 35.7,6.5 35.8,6.5 C35.9,6.5 35.9,6.6 36,6.7 C36.1,6.8 36,6.8 35.8,6.7 C35.5,6.6 35.4,6.5 35.4,6.4 C35.4,6.4 35.3,6.3 35.2,6.3 C35.1,6.3 35.1,6.3 35.1,6.3 Z M31.8,5.4 C31.8,5.4 31.9,5.4 31.9,5.4 C32,5.4 32,5.4 31.9,5.5 C31.9,5.4 31.8,5.4 31.8,5.4 C31.7,5.4 31.7,5.4 31.8,5.4 Z M31.4,5.3 C31.5,5.3 31.6,5.3 31.6,5.4 C31.6,5.5 31.3,5.4 31.3,5.4 C31.3,5.3 31.3,5.3 31.4,5.3 Z M31.1,5.3 C31.2,5.3 31.2,5.4 31.1,5.3 C31.1,5.5 31.1,5.5 31.1,5.3 C31,5.4 31.1,5.3 31.1,5.3 Z M30.9,7.4 C30.9,7.4 31,7.3 31,7.3 C31,7.2 31.1,7.2 31.1,7.2 C31.1,7.2 31.1,7.2 31.1,7.1 C31.1,7 31.1,7 31.1,7 C31.1,7 31.2,6.9 31.2,6.8 C31.3,6.6 31.7,6.5 32,6.5 C32.1,6.5 32.2,6.5 32.3,6.5 C32.4,6.4 32.7,6.5 32.7,6.6 C32.7,6.6 32.6,6.7 32.5,6.7 C32,6.8 31.8,6.8 31.8,6.9 C31.8,6.9 31.8,7 31.7,7 C31.6,7 31.3,7.4 31.3,7.6 C31.3,7.7 31.4,7.8 31.5,7.9 C31.6,8 31.6,8 31.7,8.1 C31.6,8.1 31.6,8.1 31.5,8.1 C31.4,8.1 31.2,8 31.2,8 C31.2,8 31.1,7.9 31,7.9 C30.9,7.5 30.8,7.4 30.9,7.4 Z M30.8,8.1 C30.8,8.2 30.7,8.3 30.6,8.2 C30.6,8.2 30.6,8.1 30.6,8.1 C30.6,8 30.8,8 30.8,8.1 Z M30.1,5.2 C30.2,5.2 30.2,5.2 30.3,5.2 C30.2,5.2 30.2,5.2 30.1,5.2 C29.9,5.3 29.9,5.3 29.9,5.2 C29.9,5.2 30,5.1 30.1,5.2 Z M25.5,4.6 C25.7,4.6 25.8,4.6 25.8,4.6 C25.8,4.5 26.3,4.6 26.4,4.7 C26.4,4.8 26,4.9 25.9,4.9 C25.9,4.9 25.7,4.8 25.6,4.8 C25.1,4.7 25.1,4.6 25.5,4.6 Z M24.8,4.8 C24.9,4.8 24.9,4.8 24.8,4.8 C24.9,4.8 24.9,4.7 24.9,4.7 C24.9,4.6 25.1,4.6 25.1,4.7 C25.1,4.7 25.2,4.8 25.2,4.7 C25.2,4.7 25.3,4.7 25.3,4.7 C25.3,4.7 25.4,4.8 25.5,4.8 C25.6,4.8 25.7,4.9 25.9,5 C26,5.1 26.1,5.1 26.1,5.1 C26.1,5.1 26.1,5.1 26.1,5.2 C26,5.3 25.7,5.3 25.7,5.2 C25.7,5.1 25.6,5 25.5,5 C25.5,5 25.4,5.1 25.4,5.1 C25.4,5.2 25.3,5.2 25.3,5.2 C25.3,5.2 25.2,5.3 25.2,5.3 C25.2,5.4 25.1,5.4 25,5.3 C24.9,5.2 24.8,5.2 24.9,5.2 C25,5.2 24.9,5.2 24.9,5.1 C24.8,5 24.8,5 25,5 C25.2,5 25.2,4.9 25.1,4.9 C25,4.9 25,4.9 24.9,4.9 C24.8,5 24.5,4.9 24.5,4.8 C24.5,4.8 24.5,4.7 24.5,4.7 C24.5,4.7 24.4,4.7 24.4,4.6 C24.2,4.7 24.7,4.7 24.8,4.8 Z M21,12.3 C21,12.3 21,12.2 21,12.1 C21,12 21.1,11.9 21.1,11.9 C21.2,11.9 21.2,11.8 21.3,11.8 C21.4,11.6 21.7,11.6 21.8,11.8 C21.8,11.9 21.8,12 21.7,12 C21.7,12 21.6,12.1 21.6,12.2 C21.6,12.3 21.5,12.6 21.3,12.6 C21.2,12.6 21.1,12.7 21,12.7 C20.9,12.7 20.8,12.7 20.8,12.7 C20.7,12.6 20.8,12.6 20.9,12.5 C21,12.4 21,12.3 21,12.3 Z M21.7,10.9 C21.7,10.8 21.7,10.8 21.7,10.9 C21.8,10.8 21.8,10.8 21.7,10.9 C21.7,10.9 21.7,11 21.7,10.9 C21.6,11 21.6,10.9 21.7,10.9 Z M21.7,13 C21.8,12.9 21.9,12.8 22,12.8 C22.1,12.8 22.1,12.8 22,12.7 C21.9,12.7 21.8,12.7 21.8,12.7 C21.8,12.7 21.8,12.7 21.8,12.7 C21.8,12.7 21.9,12.6 21.9,12.6 C22,12.6 22,12.5 22,12.4 C22,12.3 22,12.3 22.1,12.3 C22.2,12.3 22.2,12.2 22.3,12.2 C22.3,12.1 22.3,12.1 22.3,12.1 C22.3,12.1 22.3,12 22.3,12 C22.3,11.9 22.3,11.9 22.2,11.9 C22.1,11.9 22,11.9 22.1,11.7 C22.2,11.5 22.1,11.4 22,11.6 C22,11.7 22,11.6 22,11.5 C22,11.4 22,11.3 22,11.4 C21.9,11.4 22,11.4 22.1,11.2 C22.2,11.1 22.2,10.9 22.3,10.9 C22.4,10.9 22.4,10.8 22.5,10.8 C22.6,10.8 22.6,10.8 22.5,10.9 C22.4,11.1 22.4,11.1 22.6,11 C22.8,11 22.8,11.1 22.6,11.3 C22.5,11.4 22.5,11.4 22.6,11.5 C22.7,11.5 22.7,11.6 22.7,11.7 C22.7,11.8 22.7,11.9 22.8,11.9 C22.8,11.9 22.9,12 22.9,12.1 C22.9,12.2 23,12.3 23,12.3 C23.1,12.3 23.2,12.5 23,12.6 C22.9,12.7 22.9,12.7 22.9,12.8 C22.9,12.8 22.9,12.9 22.9,12.9 C22.9,12.9 22.8,12.9 22.7,12.9 C22.6,12.9 22.4,13 22.2,13 C22,13 21.9,13.1 21.8,13.1 C21.6,13.1 21.6,13.1 21.7,13 Z M22.9,9.3 C22.7,9.3 22.6,9.2 22.6,9.2 C22.7,9.1 22.7,9 22.6,9 C22.5,9 22.5,9 22.6,8.9 C22.7,8.8 22.7,8.8 22.5,8.8 C22.3,8.8 22.4,8.7 22.6,8.6 C22.7,8.6 22.7,8.6 22.8,8.7 C22.8,8.8 22.9,8.8 22.9,8.8 C22.9,8.8 23.1,8.7 23.3,8.7 C23.5,8.7 23.6,8.6 23.6,8.6 C23.6,8.6 23.6,8.5 23.6,8.5 C23.7,8.5 24,8.8 24,8.9 C24,9.2 23.3,9.4 22.9,9.3 Z M19.5,4.2 C19.6,4.2 19.6,4.2 19.6,4.2 C19.6,4.3 19.3,4.3 19.3,4.2 C19.4,4.2 19.5,4.2 19.5,4.2 Z M13.7,6.2 C13.7,6.2 13.8,6.1 13.8,6.1 C13.8,6.1 13.9,6 13.9,6 C13.9,6 14,5.9 14.2,5.9 C14.3,5.9 14.4,5.9 14.5,6 C14.5,6 14.6,6 14.6,6 C14.6,6 14.7,6 14.7,6 C14.7,6 14.8,6 14.8,6 C14.8,5.9 14.9,5.9 15.1,5.9 C15.3,5.9 15.4,5.8 15.4,5.8 C15.4,5.8 15.3,5.8 15,5.9 C14.9,5.9 14.9,5.9 14.9,5.9 C15,5.8 15,5.8 14.9,5.8 C14.9,5.8 14.8,5.8 14.8,5.9 C14.7,6 14.6,6 14.5,5.9 C14.4,5.8 14.5,5.8 14.7,5.7 C14.8,5.7 14.9,5.6 15,5.6 C15.1,5.6 15.2,5.5 15.2,5.5 C15.3,5.5 15.3,5.5 15.4,5.4 C15.5,5.3 15.7,5.3 15.8,5.2 C16.3,5 17.2,4.7 17.8,4.9 C17.8,4.9 17.6,5 17.5,5 C17.3,5 17.2,5.1 17.2,5.1 C17.2,5.1 17.1,5.2 17,5.2 C16.9,5.2 16.7,5.3 16.6,5.4 C16.3,5.6 15.9,5.7 15.8,5.8 C15.7,5.8 15.6,5.9 15.7,5.9 C15.8,5.9 15.8,5.9 15.7,6 C15.6,6.1 15.5,6.1 15.5,6.1 C15.4,6.1 15.4,6.2 15.3,6.2 C15.3,6.2 15.2,6.3 15.2,6.3 C15.1,6.4 15.1,6.4 15.2,6.4 C15.3,6.4 15.2,6.5 14.5,6.6 C13.9,6.7 13.8,6.7 14.1,6.6 C14.2,6.5 14.3,6.5 14.2,6.5 C14.2,6.5 14.2,6.5 14.4,6.4 C14.5,6.4 14.6,6.4 14.6,6.4 C14.6,6.4 14.6,6.4 14.6,6.3 C14.6,6.3 14.6,6.3 14.5,6.3 C14.4,6.3 14.3,6.3 14.4,6.2 C14.5,6.2 14.4,6.2 14.4,6.2 C14.1,6.4 13.9,6.4 13.9,6.4 C13.8,6.4 13.8,6.3 13.9,6.2 C14,6.1 14,6.1 13.9,6.2 C13.7,6.3 13.7,6.3 13.7,6.2 Z M13.9,6.6 C13.9,6.5 14,6.5 14,6.6 C14.1,6.6 14,6.6 13.9,6.6 C14,6.7 13.9,6.6 13.9,6.6 Z M14,6.7 C14,6.7 14,6.7 14,6.7 C14,6.8 14,6.8 13.9,6.8 C13.9,6.8 13.9,6.8 14,6.7 C13.9,6.7 13.9,6.7 14,6.7 Z M13.4,6.3 C13.4,6.3 13.4,6.3 13.4,6.3 C13.4,6.3 13.3,6.3 13.4,6.3 C13.3,6.3 13.3,6.3 13.4,6.3 Z M13.3,6.5 C13.3,6.5 13.4,6.4 13.4,6.4 C13.4,6.4 13.5,6.4 13.5,6.4 C13.6,6.4 13.6,6.4 13.5,6.5 C13.4,6.6 13.5,6.6 13.5,6.6 C13.6,6.6 13.6,6.6 13.5,6.6 C13.4,6.6 13.4,6.6 13.4,6.6 C13.4,6.6 13.4,6.6 13.4,6.6 C13.3,6.7 13.3,6.6 13.3,6.5 Z M13.3,6.9 C13.3,6.9 13.4,6.8 13.4,6.9 C13.4,6.9 13.5,6.9 13.6,6.9 C13.7,6.9 13.8,6.9 13.8,7 C13.8,7.1 13.9,7.1 14.3,7 C14.7,6.9 14.8,6.9 14.8,6.9 C14.8,6.9 14.8,6.9 14.8,7 C14.8,7 14.7,7 14.7,7.1 C14.6,7.1 14.3,7.2 14,7.3 C13.5,7.4 13.4,7.4 13.4,7.3 C13.4,7.3 13.4,7.2 13.4,7.2 C13.4,7.2 13.4,7.2 13.4,7.1 C13.4,7.1 13.3,7 13.3,7 C13.3,7 13.2,7 13.3,6.9 Z M13.3,7.1 C13.3,7.2 13.1,7.4 13,7.3 C13,7.3 13,7.3 13,7.3 C13,7.3 13.1,7.2 13.1,7.2 C13.3,7.1 13.3,7.1 13.3,7.1 Z M12.7,6.6 C12.7,6.6 12.8,6.5 12.9,6.5 C13,6.5 13.1,6.5 13.1,6.5 C13.2,6.5 13.3,6.6 13.2,6.7 C13.2,6.8 13,6.8 13,6.7 C13,6.7 12.9,6.7 12.8,6.7 C12.6,6.8 12.6,6.8 12.7,6.6 C12.8,6.7 12.8,6.7 12.7,6.6 C12.7,6.7 12.6,6.7 12.7,6.6 Z M12.5,7 C12.5,7 12.5,7.1 12.5,7 C12.4,7.1 12.4,7.1 12.5,7 C12.4,7 12.5,6.9 12.5,7 Z M12.5,7.2 C12.5,7.3 12.6,7.3 12.6,7.2 C12.6,7.1 12.7,7.1 12.7,7.2 C12.7,7.3 12.8,7.2 12.8,7.2 C12.8,7.2 12.8,7.1 12.9,7.1 C13,7.1 13,7.1 13,7.2 C12.9,7.4 12.8,7.5 12.7,7.5 C12.6,7.5 12.6,7.5 12.7,7.4 C12.7,7.2 12.7,7.2 12.5,7.2 C12.5,7.3 12.4,7.3 12.4,7.3 C12.4,7.3 12.4,7.3 12.4,7.3 C12.4,7.3 12.3,7.3 12.4,7.3 C12.4,7.2 12.5,7.1 12.5,7.2 Z M12.3,7.4 C12.3,7.4 12.3,7.4 12.3,7.4 C12.2,7.5 12.2,7.5 12.3,7.4 C12.2,7.5 12.2,7.4 12.3,7.4 Z M12.3,7.9 C12.4,7.8 12.4,7.8 12.3,7.9 C12.2,7.9 12.3,7.7 12.4,7.7 C12.6,7.6 12.7,7.6 12.7,7.6 C12.7,7.6 12.7,7.6 12.6,7.7 C12.5,7.8 12.5,7.8 12.6,7.8 C12.7,7.8 12.6,8 12.4,8 C12.4,8 12.3,8.1 12.3,8.1 C12.3,8.1 12.2,8.1 12.2,8.1 C12.2,8 12.1,8 12.1,8 C12.1,8 12.1,8 12.1,7.9 C12.1,7.9 12.2,7.9 12.2,7.9 C12.2,8 12.3,7.9 12.3,7.9 Z M11.9,7 C12,7 12,6.9 12.1,6.9 C12.1,6.9 12.1,6.9 12.1,6.9 C12.2,6.9 12.1,7 11.9,7 C11.8,7.1 11.8,7.1 11.9,7 Z M11.9,7.1 C12,7.1 12,7.1 11.9,7.1 C12,7.1 11.9,7.2 11.8,7.2 C11.7,7.2 11.7,7.2 11.7,7.2 C11.7,7.2 11.8,7.1 11.9,7.1 Z M11.6,7.5 C11.6,7.5 11.7,7.6 11.7,7.5 C11.8,7.5 11.8,7.5 11.8,7.4 C11.8,7.3 11.8,7.3 11.9,7.3 C12,7.2 12,7.2 12,7.3 C12,7.4 12,7.4 12.1,7.3 C12.2,7.3 12.2,7.3 12.2,7.3 C12.1,7.4 12,7.5 11.8,7.5 C11.7,7.5 11.6,7.6 11.4,7.7 C11.2,7.8 11.1,7.8 11.1,7.8 C11.1,7.8 11.1,7.7 11.2,7.7 C11.3,7.7 11.3,7.7 11.3,7.6 C11.3,7.6 11.3,7.6 11.2,7.6 C11.2,7.6 11.1,7.7 11.1,7.7 C11.1,7.7 11,7.7 11,7.7 C11,7.7 11,7.7 10.9,7.7 C11,7.6 11,7.6 11.1,7.5 C11.2,7.4 11.3,7.3 11.4,7.3 C11.4,7.5 11.5,7.5 11.6,7.5 Z M10.9,7.8 C10.9,7.8 11,7.7 11,7.7 C11,7.7 11,7.7 10.9,7.8 C10.8,7.9 10.8,7.9 10.9,7.8 Z M10.8,7.7 C11.1,7.5 11.4,7.3 11.3,7.5 C11.2,7.6 11,7.7 11,7.7 C11,7.7 11,7.7 10.9,7.8 C10.9,7.7 10.9,7.8 10.8,7.7 C10.9,7.7 10.9,7.7 10.8,7.7 C10.8,7.8 10.7,7.9 10.6,7.9 C10.6,7.9 10.5,7.9 10.5,7.9 C10.7,7.8 10.7,7.7 10.8,7.7 Z M9.9,8.6 C10,8.5 10.1,8.4 10.1,8.4 C10.1,8.4 10.1,8.3 10.2,8.3 C10.3,8.3 10.4,8.2 10.5,8.2 C10.6,8.2 10.7,8.2 10.7,8.1 C10.8,8.1 10.9,8.1 10.8,8.2 C10.8,8.2 10.8,8.3 10.8,8.2 C10.9,8.2 10.9,8.2 10.9,8.2 C10.9,8.3 10.9,8.3 11,8.2 C11.1,8.1 11.1,8.1 11.1,8.2 C11.1,8.3 11.1,8.2 11.2,8.2 C11.4,8.1 11.4,8.1 11.4,8.2 C11.4,8.4 11.4,8.3 11.5,8.1 C11.5,8 11.6,8 11.6,7.9 C11.6,7.9 11.7,7.8 11.7,7.8 C11.8,7.7 12,7.7 11.9,7.7 C11.9,7.7 11.8,7.8 11.8,7.8 C11.7,7.9 11.7,7.9 11.6,8.1 C11.6,8.2 11.6,8.3 11.6,8.3 C11.6,8.3 11.7,8.3 11.7,8.4 C11.7,8.4 11.7,8.4 11.8,8.5 C11.8,8.5 11.7,8.5 11.7,8.5 C11.6,8.5 11.6,8.5 11.6,8.6 C11.7,8.7 11.3,8.8 11.2,8.8 C11.2,8.8 11.1,8.8 11,8.8 C10.8,8.9 10.3,9.1 10.3,9 C10.3,9 10.3,8.9 10.2,9 C10.1,9 10.1,9 10.1,9 C10.1,9 10.1,9 10.1,8.9 C10.2,8.9 10.2,8.8 10.3,8.8 C10.4,8.8 10.5,8.7 10.6,8.7 C10.7,8.7 10.7,8.7 10.7,8.6 C10.7,8.6 10.6,8.6 10.5,8.6 C10.3,8.6 10.2,8.7 10.2,8.6 C10.2,8.6 10.3,8.5 10.3,8.5 C10.4,8.5 10.4,8.4 10.3,8.4 C10.3,8.4 10.3,8.4 10.2,8.4 C10.3,8.3 10.3,8.3 10.4,8.3 C10.5,8.2 10.5,8.2 10.6,8.2 C10.6,8.2 10.5,8.2 10.5,8.3 C10.3,8.4 10.2,8.5 10.2,8.6 C10.1,8.7 9.9,8.8 9.8,8.7 C9.8,8.7 9.8,8.7 9.7,8.6 C9.8,8.7 9.8,8.7 9.9,8.6 Z M2.5,21.3 C2.5,21.3 2.5,21.4 2.4,21.4 C2.5,21.4 2.5,21.4 2.5,21.3 C2.5,21.2 2.5,21.2 2.5,21.2 C2.5,21.2 2.5,21.2 2.5,21.3 Z M5.7,27.3 C5.7,27.3 5.7,27.2 5.7,27.2 C5.7,27.2 5.7,27.1 5.7,27.1 C5.7,27.1 5.7,27.2 5.7,27.3 C5.7,27.3 5.7,27.3 5.7,27.3 Z M11.5,40.7 C11.5,40.8 11.5,40.9 11.5,40.9 C11.5,40.9 11.4,40.9 11.4,40.8 C11.4,40.8 11.4,40.8 11.3,40.8 C11.2,40.8 11.2,40.8 11.2,40.7 C11.2,40.7 11.2,40.6 11.2,40.6 C11.2,40.6 11.2,40.5 11.1,40.3 C11,40.1 10.9,40 10.9,40 C10.9,40 10.8,40 10.9,40 C10.9,40 10.9,39.7 10.9,39.7 C10.9,39.7 10.9,39.7 10.8,39.8 C10.8,39.9 10.8,39.9 10.7,39.7 C10.7,39.6 10.6,39.5 10.6,39.5 C10.6,39.5 10.5,39.4 10.5,39.4 C10.5,39.4 10.6,39.4 10.6,39.5 C10.7,39.6 10.7,39.6 10.7,39.6 C10.6,39.2 10.6,39.1 10.4,39.1 C10.4,39.1 10.4,39.1 10.4,39 C10.4,39 10.5,38.9 10.6,39 C10.7,39 10.7,39 10.7,38.9 C10.7,38.8 10.7,38.7 10.7,38.6 C10.7,38.2 10.6,38.1 10.5,38.1 C10.5,38.1 10.4,38.2 10.5,38.3 C10.5,38.4 10.5,38.5 10.5,38.5 C10.5,38.5 10.4,38.5 10.4,38.4 C10.4,38.3 10.4,38.2 10.3,38 C10.2,37.8 10.3,37.7 10.3,37.7 C10.3,37.7 10.3,37.5 10.2,37.4 C10.1,37.2 10.1,37.1 10.1,36.9 C10.1,36.4 10.1,36.1 10,35.8 C9.9,35.6 9.9,35.5 10,35.5 C10,35.5 10,35.4 10,35.4 C10,35.4 10,35.2 9.9,35 C9.9,34.4 9.8,33.8 9.7,33.3 C9.6,32.8 9.4,32.5 9.1,32.2 C8.8,31.9 8.5,31.5 8.5,31.4 C8.5,31.3 8.4,31.1 8.3,30.9 C8.2,30.7 8,30.3 7.9,30 C7.8,29.7 7.6,29.4 7.6,29.3 C7.4,29 7.3,28.6 7.4,28.4 C7.5,28.3 7.5,28.1 7.4,28.1 C7.4,28.1 7.3,28 7.3,27.9 C7.3,27.7 7.3,27 7.4,27 C7.4,27 7.5,26.9 7.5,26.8 C7.5,26.7 7.5,26.6 7.6,26.6 C7.7,26.5 7.8,25.5 7.9,25.2 C7.9,25 7.9,24.8 7.9,24.8 C7.9,24.7 7.6,25 7.6,25.1 C7.6,25.2 7.5,25.2 7.4,25.1 C7.4,25 7.3,24.9 7.3,24.9 C7.2,24.8 7.2,24.8 7.2,24.7 C7.2,24.6 7.2,24.5 7,24.4 C7,24.4 7,24.3 7,24.2 C7,24.1 7,23.9 7,23.8 C7,23.7 7,23.5 7,23.5 C7,23.5 7,23.4 6.9,23.4 C6.7,23.4 6.5,23.1 6.4,22.9 C6.3,22.5 6.3,22.5 6.1,22.6 C6,22.7 5.9,22.7 5.8,22.5 C5.7,22.4 5.6,22.2 5.6,22.2 C5.6,22.2 5.5,22.1 5.5,22 C5.4,21.9 5.3,21.6 5.4,21.5 C5.4,21.5 5.4,21.4 5.5,21.3 C5.6,21.1 5.7,20.8 5.6,20.3 C5.6,20.1 5.6,19.9 5.6,19.9 C5.6,19.9 5.6,19.7 5.6,19.5 C5.6,19.3 5.6,19 5.7,18.9 C5.8,18.7 5.8,18.6 5.7,18.6 C5.6,18.5 5.6,18.5 5.6,18.8 C5.6,18.9 5.5,19.1 5.5,19.1 C5.5,19.1 5.5,19.3 5.5,19.5 C5.5,19.7 5.5,19.8 5.5,19.9 C5.5,19.9 5.5,20.1 5.4,20.2 C5.4,20.4 5.3,20.5 5.4,20.5 C5.4,20.5 5.4,20.7 5.4,20.8 C5.3,20.9 5.3,20.3 5.4,20.2 C5.4,20.1 5.4,20 5.4,20 C5.3,19.6 5.3,19.7 5.4,19.6 C5.5,19.5 5.5,19.5 5.5,19.3 C5.5,19.2 5.5,18.9 5.6,18.7 C5.7,18.2 5.7,18.1 5.6,18 C5.6,18 5.5,17.9 5.6,17.9 C5.6,17.9 5.7,17.7 5.7,17.5 C5.7,17.3 5.8,17.2 5.8,17.1 C5.8,17 5.9,17 5.8,17 C5.7,17.1 5.8,16.8 5.9,16.7 C5.9,16.7 5.9,16.6 5.9,16.6 C6.1,16.2 6.3,15.7 6.6,15.3 C6.8,15 6.9,14.8 6.9,14.7 C7,14.5 7,14.5 7,14.6 C7.1,14.7 7.1,14.7 7.2,14.6 C7.3,14.4 7.3,14.3 7.2,14.3 C7.2,14.3 7.2,14.2 7.2,14.2 C7.2,14.2 7.2,14.1 7.2,14.1 C7.2,14.1 7.1,14.3 7.1,14.4 C7.1,14.5 7.1,14.5 7.1,14.6 C7,14.6 6.9,14.2 7,14.1 C7,14.1 7,14 7,14.1 C7,14.2 7.1,14.2 7.1,14.1 C7.1,14.1 7.1,14 7.1,14 C7,14 7.1,13.9 7.1,13.9 C7.1,13.9 7.1,13.8 7.2,13.7 C7.2,13.6 7.2,13.6 7.2,13.6 C7.1,13.6 7.2,13.6 7.3,13.5 C7.4,13.4 7.4,13.4 7.3,13.4 C7.1,13.6 7.1,13.5 7.3,13.3 C7.4,13.2 7.4,13.1 7.4,13.1 C7.3,13.1 7.4,12.9 7.4,12.8 C7.4,12.8 7.4,12.8 7.4,12.8 C7.3,12.8 7.3,12.8 7.3,12.9 C7.3,13 7.3,13 7.3,13 C7.3,13 7.3,13 7.3,13.1 C7.2,13.2 7.2,13.2 7.2,13.2 C7.2,13.2 7.2,13.1 7.3,13 C7.3,12.9 7.3,12.9 7.3,12.9 C7.3,12.9 7.3,12.9 7.3,12.9 C7.3,12.9 7.4,12.8 7.4,12.8 C7.4,12.8 7.6,12.6 7.5,12.6 C7.5,12.6 7.5,12.6 7.4,12.7 C7.4,12.8 7.3,12.8 7.3,12.8 C7.3,12.8 7.3,12.8 7.3,12.7 C7.3,12.7 7.4,12.6 7.4,12.6 C7.4,12.6 7.4,12.5 7.5,12.5 C7.5,12.4 7.5,12.4 7.5,12.5 C7.5,12.5 7.5,12.6 7.4,12.6 C7.4,12.6 7.4,12.6 7.4,12.7 C7.4,12.7 7.2,13.1 7.2,13.1 C7.2,13.1 7.3,12.8 7.4,12.7 C7.5,12.6 7.5,12.6 7.4,12.6 C7.3,12.7 7.3,12.7 7.3,12.6 C7.3,12.5 7.4,12.4 7.3,12.4 C7.2,12.4 7.2,12.3 7.2,12.3 C7.2,12.2 7.2,12.2 7.1,12.4 C7.1,12.5 7,12.5 7,12.5 C7,12.5 6.9,12.6 6.8,12.6 C6.7,12.7 6.5,12.8 6.7,12.7 C6.8,12.6 6.8,12.6 6.7,12.6 C6.7,12.6 6.9,12.4 7,12.3 C7.1,12.3 7.1,12.3 7,12.3 C7,12.3 6.7,12.5 6.7,12.6 C6.7,12.6 6.6,12.7 6.6,12.7 C6.5,12.8 6.4,12.9 6.5,12.9 C6.5,12.9 6.5,12.9 6.4,13 C6.3,13.1 6.2,13.1 6.2,13.2 C6.1,13.3 6.1,13.3 6,13.4 C5.9,13.5 6,13.5 5.9,13.5 C5.8,13.5 5.8,13.6 5.7,13.6 C5.6,13.7 5.5,13.8 5.4,13.8 C5.4,13.8 5.3,13.9 5.3,13.9 C5.3,13.9 5.3,13.8 5.4,13.8 C5.4,13.8 5.5,13.7 5.5,13.8 C5.5,13.8 5.5,13.8 5.5,13.8 C5.5,13.8 5.6,13.7 5.7,13.6 C5.8,13.5 5.9,13.4 6,13.3 C6.1,13.2 6.1,13.1 6.1,13.2 C6.1,13.2 6,13.3 6,13.3 C6,13.3 6,13.3 6,13.3 C6,13.3 6,13.3 5.9,13.3 C5.8,13.4 5.8,13.3 5.9,13.2 C6,13.1 6,13.1 5.9,13.1 C6.1,12.9 6.2,12.6 6.4,12.4 C6.5,12.3 6.6,12.3 6.6,12.2 C6.6,12.2 6.7,12.1 6.7,12.1 C6.8,12 6.8,12 6.7,12.1 C6.7,12.1 6.6,12.1 6.6,12.2 C6.7,12.1 6.7,12 6.8,11.9 C6.8,11.9 6.9,11.9 6.9,11.8 C7,11.7 7,11.6 7,11.7 C7,11.7 7,11.7 7,11.7 C7.2,11.5 7.4,11.2 7.6,11 C7.7,10.9 7.8,10.9 7.9,10.8 C7.9,10.8 8,10.7 8.1,10.7 C8.1,10.7 8.2,10.6 8.2,10.7 C8.2,10.7 8.2,10.7 8.3,10.7 C8.3,10.7 8.4,10.7 8.4,10.7 C8.4,10.7 8.5,10.7 8.5,10.7 C8.8,10.6 8.7,10.7 8.8,10.8 C8.9,10.8 8.9,10.8 9,10.7 C9.1,10.6 9.3,10.5 9.6,10.4 C9.7,10.4 9.8,10.3 9.8,10.3 C9.9,10.2 9.9,10.2 9.9,10.3 C9.9,10.4 9.9,10.4 10,10.3 C10.1,10.2 10.1,10.2 10.1,10.3 C10.1,10.3 10.1,10.3 10.2,10.3 C10.3,10.3 10.4,10.2 10.5,10.3 C10.6,10.3 10.7,10.3 10.8,10.3 C10.9,10.3 11,10.3 10.9,10.4 C10.9,10.4 10.8,10.5 10.8,10.5 C10.8,10.5 10.8,10.5 11,10.5 C11.3,10.4 11.5,10.4 11.4,10.6 C11.4,10.7 11.4,10.7 11.4,10.7 C11.4,10.7 11.5,10.6 11.5,10.5 C11.6,10.4 11.6,10.4 11.7,10.3 C11.8,10.3 11.8,10.2 11.8,10.2 C11.8,10.2 11.7,10.2 11.6,10.3 C11.5,10.3 11.5,10.4 11.5,10.3 C11.5,10.2 11.8,10.1 11.9,10.2 C11.9,10.3 12.4,10.3 12.6,10.1 C12.7,10 12.7,9.9 12.7,9.9 C12.6,9.9 12.7,9.9 12.8,9.8 C13,9.7 13.1,9.7 13.1,9.8 C13.1,9.9 13.1,9.9 13,9.9 C13,9.9 12.9,9.9 12.9,9.9 C12.9,9.9 12.9,9.9 12.9,10 C12.9,10 12.9,10.1 12.9,10.2 C12.9,10.2 12.9,10.3 12.9,10.3 C12.9,10.3 13,10.3 13,10.2 C13,10.1 13.1,10.1 13.2,10 C13.3,9.9 13.5,9.8 13.4,9.8 C13.4,9.8 13.4,9.8 13.4,9.7 C13.4,9.7 13.4,9.6 13.4,9.6 C13.3,9.6 13.2,9.5 13.3,9.4 C13.4,9.3 13.4,9.2 13.5,9.2 C13.6,9.1 13.7,9 13.7,8.9 C13.7,8.8 13.8,8.8 13.8,8.7 C13.9,8.6 14.4,8.5 14.4,8.5 C14.3,8.6 14,8.8 14,8.8 C14,8.8 13.9,8.8 13.8,8.9 C13.7,9 13.7,9 13.7,9 C13.8,9 13.8,9.3 13.7,9.3 C13.6,9.4 13.6,9.5 13.7,9.4 C13.8,9.4 13.8,9.4 13.7,9.5 C13.6,9.7 13.6,9.7 13.8,9.5 C13.9,9.4 13.9,9.4 14,9.5 C14,9.6 14,9.6 14,9.6 C14,9.6 13.9,9.7 13.9,9.8 C13.9,9.9 14,9.9 14.1,9.7 C14.1,9.6 14.2,9.6 14.2,9.6 C14.2,9.6 14.3,9.6 14.4,9.5 C14.5,9.4 14.5,9.3 14.5,9.4 C14.4,9.4 14.5,9.3 14.6,9.2 C14.6,9.2 14.6,9.2 14.5,9.1 C14.3,9.1 14.3,9 14.3,8.9 C14.3,8.8 14.3,8.8 14.5,8.6 C14.7,8.4 14.9,8.3 15,8.2 C15.1,8.2 15.1,8.2 15,8.3 C14.9,8.3 14.9,8.4 14.9,8.4 C14.9,8.4 14.8,8.5 14.8,8.5 C14.8,8.6 14.8,8.6 14.8,8.7 C14.8,8.8 14.9,8.8 14.9,8.7 C14.9,8.7 14.9,8.6 14.9,8.6 C14.9,8.6 14.9,8.5 14.9,8.5 C15,8.3 15.1,8.2 15.4,8.1 C15.6,8 15.6,8 15.6,8.1 C15.6,8.2 15.6,8.2 15.6,8.1 C15.6,8 15.7,8 15.8,8 C16,8 16.1,8.1 16,8.2 C16,8.2 16,8.3 16,8.3 C16,8.3 16.1,8.4 16.1,8.5 C16.1,8.6 16.2,8.6 16.2,8.6 C16.3,8.5 16.5,8.6 16.4,8.7 C16.4,8.7 16.4,8.8 16.5,8.7 C16.6,8.7 16.7,8.7 16.6,8.8 C16.6,8.9 16.6,8.9 16.6,8.8 C16.7,8.8 16.7,8.8 16.7,8.8 C16.7,8.8 16.7,8.9 16.6,8.9 C16.5,8.9 16.5,8.9 16.6,9 C16.7,9 16.7,9 16.6,9.1 C16.4,9.1 16.4,9.4 16.7,9.4 C16.8,9.4 16.8,9.5 16.8,9.5 C16.8,9.5 16.8,9.6 16.9,9.6 C17,9.6 17,9.6 17,9.6 C16.9,9.7 16.9,9.7 16.8,9.8 C16.7,9.9 16.6,10 16.6,9.9 C16.6,9.9 16.6,9.9 16.5,10 C16.4,10.1 16.3,10.1 16.3,10 C16.2,9.8 16.2,9.7 16.1,9.9 C16,10 16,10 16,10.1 C16,10.2 16.1,10.2 16.1,10.2 C16.1,10.2 16.2,10.3 16.2,10.4 C16.2,10.5 16.2,10.6 16.1,10.7 C16,10.8 16,10.8 15.9,10.7 C15.7,10.5 15.7,10.6 15.8,10.8 C15.9,10.9 15.9,11.1 15.8,11.1 C15.8,11.1 15.7,11 15.6,11 C15.5,11 15.5,10.9 15.5,10.9 C15.5,10.9 15.5,10.9 15.4,10.9 C15.3,11 15.2,10.8 15.3,10.7 C15.3,10.7 15.3,10.6 15.3,10.6 C15.3,10.6 15.2,10.6 15.2,10.5 C15.2,10.4 15.1,10.4 14.9,10.5 C14.7,10.5 14.6,10.5 14.6,10.5 C14.7,10.4 14.8,10.2 14.9,10.3 C14.9,10.3 15,10.3 15.1,10.3 C15.2,10.3 15.3,10.2 15.3,10.2 C15.3,10.1 15.3,10.1 15.4,10.1 C15.7,9.9 15.8,9.7 15.6,9.6 C15.5,9.6 15.5,9.5 15.5,9.5 C15.5,9.5 15.5,9.5 15.4,9.5 C15.3,9.5 15.3,9.5 15.3,9.5 C15.3,9.5 15.3,9.4 15.3,9.3 C15.2,9.2 15.2,9.2 15.2,9.3 C15.2,9.4 15.1,9.4 14.8,9.4 C14.6,9.4 14.5,9.4 14.5,9.4 C14.5,9.4 14.6,9.4 14.6,9.5 C14.6,9.5 14.7,9.6 14.6,9.6 C14.6,9.6 14.5,9.7 14.5,9.7 C14.5,9.7 14.4,9.8 14.4,9.9 C14.4,9.9 14.4,10 14.4,10 C14.4,10 14.3,10.1 14.3,10.1 C14.2,10.1 14.1,10.2 14.1,10.2 C14,10.2 14,10.3 14,10.3 C14,10.4 14,10.4 14,10.3 C14,10.3 13.9,10.2 13.9,10.2 C13.9,10.2 13.8,10.2 13.8,10.2 C13.8,10.3 13.3,10.8 13.2,10.8 C13.1,10.8 12.9,11 12.9,11 C12.9,11 12.9,11.1 12.8,11.1 C12.7,11.1 12.4,11.4 12.1,11.7 C11.8,12 11.7,12.2 11.8,12.2 C11.9,12.2 11.9,12.3 11.8,12.4 C11.7,12.6 11.8,12.6 11.9,12.6 C12,12.6 12.1,12.6 12.1,12.7 C12.1,12.8 12.2,12.8 12.2,12.8 C12.2,12.8 12.3,12.8 12.3,12.9 C12.3,12.9 12.4,13 12.5,13 C12.7,13 12.7,13 12.5,13.5 C12.5,13.5 12.5,13.7 12.5,13.8 C12.5,14 12.5,14 12.7,13.9 C12.9,13.8 12.9,13.7 13,13.3 C13,13.2 13.1,13.1 13.1,13 C13.2,12.9 13.2,12.9 13.3,12.8 C13.4,12.7 13.6,12.6 13.6,12.5 C13.7,12.3 13.8,12 13.8,12 C13.7,11.9 13.7,11.9 13.9,11.8 C14,11.7 14.1,11.6 14.2,11.3 C14.3,11.1 14.3,11 14.4,10.9 C14.4,10.9 14.5,10.9 14.6,10.9 C14.7,10.9 14.8,10.9 14.9,10.9 C15,10.9 15.2,11 15.1,11.1 C15.1,11.1 15.1,11.2 15.2,11.2 C15.3,11.2 15.3,11.3 15.2,11.5 C15.1,11.7 15.1,11.8 15.1,11.7 C15.1,11.7 15.2,11.7 15.2,11.8 C15.2,11.9 15.4,11.8 15.7,11.5 C15.8,11.4 15.8,11.4 15.9,11.3 C15.9,11.5 15.9,11.6 15.9,11.7 C15.9,11.9 15.9,12.2 15.9,12.2 C15.9,12.3 15.9,12.3 15.9,12.4 C15.9,12.4 15.9,12.5 15.9,12.6 C15.9,12.6 15.9,12.7 16,12.7 C16,12.7 16.1,12.7 16.1,12.7 C16.1,12.7 16.2,12.8 16.2,12.8 C16.2,12.8 16.2,12.8 16.2,12.9 C16.1,12.9 16.2,13 16.2,13.1 C16.3,13.2 16.3,13.2 16.2,13.4 C16.1,13.6 16.1,13.6 15.9,13.7 C15.8,13.7 15.6,13.9 15.5,13.9 C15.3,14 15.2,14 14.9,14 C14.6,14 14.5,14 14.3,14.1 C14.2,14.2 14.1,14.3 14,14.3 C13.9,14.4 13.7,14.5 13.6,14.7 C13.4,14.9 13.4,14.9 13.5,14.8 C13.8,14.5 14.1,14.4 14.3,14.3 C14.5,14.3 14.5,14.3 14.5,14.4 C14.5,14.5 14.4,14.5 14.3,14.6 C14.2,14.6 14.2,14.7 14.2,14.7 C14.3,14.7 14.3,14.8 14.2,14.9 C14.1,15.1 14.2,15.3 14.4,15.3 C14.5,15.3 14.6,15.3 14.7,15.1 C14.8,14.9 14.9,14.9 14.8,15 C14.8,15.1 14.8,15.1 14.8,15.1 C14.8,15.1 14.8,15.1 14.8,15.2 C14.7,15.2 14.7,15.2 14.7,15.2 C14.7,15.1 14.7,15.1 14.7,15.2 C14.7,15.3 14.3,15.5 14.2,15.6 C14.1,15.6 14,15.7 13.9,15.8 C13.8,15.9 13.7,15.9 13.7,15.9 C13.7,15.8 13.8,15.6 13.8,15.6 C13.8,15.6 13.9,15.5 14,15.5 C14.1,15.4 14.1,15.4 14,15.4 C13.9,15.4 13.8,15.5 13.8,15.5 C13.8,15.5 13.7,15.6 13.6,15.6 C13.5,15.6 13.4,15.7 13.3,15.8 C13.1,15.9 12.8,16.2 12.8,16.4 C12.8,16.5 12.8,16.5 12.6,16.6 C12.4,16.6 12.4,16.7 12.4,16.7 C12.4,16.7 12.4,16.8 12.3,16.8 C12.2,16.8 12.2,16.8 12.1,17 C12,17.1 12,17.2 11.9,17.2 C11.8,17.2 11.8,17.2 11.8,17.3 C11.8,17.4 11.7,17.5 11.7,17.6 C11.6,17.7 11.6,17.7 11.7,17.5 C11.8,17.3 11.8,17.3 11.7,17.3 C11.6,17.4 11.5,17.7 11.5,17.9 C11.5,17.9 11.5,18 11.4,18.1 C11.3,18.2 11.3,18.2 11.4,18.2 C11.4,18.2 11.4,18.2 11.4,18.3 C11.4,18.3 11.3,18.4 11.3,18.3 C11.3,18.3 11.3,18.3 11.2,18.4 C11.2,18.5 11.1,18.5 11.1,18.5 C11.1,18.5 11,18.6 10.9,18.6 C10.8,18.7 10.8,18.7 10.8,18.7 C10.8,18.7 10.7,18.8 10.6,18.9 C10.5,19 10.4,19.1 10.4,19.1 C10.4,19.1 10.1,19.4 10.1,19.6 C10.1,19.6 10,19.8 10,19.9 C9.9,20.5 9.8,20.7 9.7,20.9 C9.6,21 9.6,21.1 9.6,21.1 C9.6,21.1 9.5,20.9 9.5,20.8 C9.5,20.8 9.5,20.7 9.5,20.6 C9.5,20.5 9.5,20.3 9.6,20.3 C9.7,20.1 9.7,19.8 9.5,19.9 C9.4,20 9.4,19.9 9.4,19.9 C9.4,19.8 9.3,19.8 9.1,19.8 C8.9,19.8 8.9,19.8 8.8,20 C8.7,20.2 8.7,20.2 8.6,20.1 C8.4,20 8.1,20 8,20.1 C7.9,20.2 7.8,20.2 7.8,20.2 C7.7,20.2 7.5,20.5 7.4,20.8 C7.4,20.9 7.3,21 7.3,21.1 C7.3,21.1 7.2,21.4 7.1,21.6 C6.9,22 6.9,22.1 6.9,22.5 C6.9,23 6.9,23.1 7.2,23 C7.3,23 7.4,23 7.4,23 C7.4,23.1 7.7,22.8 7.7,22.6 C7.8,22.4 7.9,22.3 8.1,22.2 C8.3,22.2 8.3,22.2 8.2,22.5 C8.2,22.6 8.1,22.7 8,22.8 C7.9,22.9 7.9,23 7.9,23 C7.9,23 7.8,23.1 7.8,23.2 C7.7,23.3 7.7,23.5 7.6,23.6 C7.5,23.7 7.5,23.7 7.9,23.7 C8.1,23.7 8.2,23.8 8.2,23.9 C8.2,24 8.2,24.1 8,24.6 C7.8,25.1 7.8,25.1 7.8,25.3 C7.8,25.4 7.8,25.6 7.9,25.6 C8,25.7 8,25.7 8.1,25.6 C8.3,25.5 8.4,25.5 8.5,25.8 C8.5,26 8.5,26 8.7,25.7 C8.8,25.6 8.9,25.4 8.9,25.4 C8.9,25.3 9,25.3 9,25.3 C9,25.3 9.1,25.3 9.1,25.3 C9.1,25.3 9.2,25.3 9.2,25.2 C9.2,25.2 9.3,25.2 9.3,25.2 C9.3,25.2 9.4,25.1 9.6,25.1 C9.8,24.9 9.9,25 9.7,25.2 C9.6,25.4 9.6,25.5 9.7,25.4 C9.7,25.3 9.8,25.3 9.9,25.3 C9.9,25.3 10,25.3 10,25.2 C10,25.2 10,25.1 10,25.2 C10,25.2 10,25.3 10.1,25.3 C10.1,25.3 10.2,25.4 10.2,25.5 C10.2,25.6 10.3,25.7 10.4,25.7 C10.5,25.7 10.6,25.7 10.6,25.8 C10.6,25.9 10.7,25.9 10.9,25.8 C11.1,25.7 11.1,25.7 11.1,25.8 C11.1,25.9 11.2,26 11.2,26 C11.3,26.1 11.3,26.1 11.2,26.2 C11.1,26.3 11.1,26.4 11.3,26.4 C11.4,26.4 11.5,26.5 11.6,26.8 C11.7,27.2 11.8,27.2 12.1,27.3 C12.4,27.4 12.5,27.4 12.6,27.7 C12.7,27.9 12.8,28.1 12.8,28.3 C12.8,28.4 12.9,28.6 13,28.7 C13.1,28.8 13.1,28.8 13,29.1 C12.9,29.2 12.9,29.4 12.9,29.5 C12.9,29.6 12.9,29.6 13,29.5 C13.1,29.3 13.1,29.3 13.2,29.4 C13.4,29.5 13.5,29.6 13.3,29.8 C13.2,29.9 13.2,30 13.2,30 C13.2,30 13.3,30 13.4,29.8 C13.4,29.7 13.5,29.7 13.5,29.6 C13.6,29.7 13.7,29.7 13.8,29.8 C14.1,30 14.2,30.1 14.2,30.2 C14.2,30.3 14.2,30.4 14.3,30.3 C14.4,30.3 14.5,30.3 14.6,30.3 C14.7,30.3 14.8,30.4 15,30.4 C15.2,30.4 15.3,30.5 15.6,30.8 C15.8,31 16,31.2 16.1,31.2 C16.2,31.2 16.3,31.3 16.4,31.6 C16.5,31.8 16.5,32 16.5,32.1 C16.4,32.5 16.1,32.9 15.9,33.3 C15.8,33.4 15.8,33.6 15.9,33.9 C15.9,34.1 15.9,34.5 15.9,34.6 C15.9,34.8 15.9,34.9 15.9,34.9 C15.9,34.9 15.9,35.1 15.8,35.2 C15.7,35.3 15.7,35.5 15.7,35.5 C15.7,35.6 15.5,35.8 15.3,35.8 C15.1,35.8 14.5,36.1 14.4,36.2 C14.4,36.3 14.3,36.5 14.4,36.6 C14.4,36.8 14.4,37 14.3,37.1 C14.2,37.2 14.2,37.4 14.1,37.4 C14.1,37.5 14.1,37.5 14.1,37.4 C14.1,37.3 14.1,37.3 14.1,37.3 C14,37.2 14,37.4 13.9,37.7 C13.9,37.8 13.8,38 13.8,38.1 C13.7,38.3 13.7,38.3 13.4,38.2 C13.2,38.2 13.1,38.1 13,38 C12.9,37.9 12.9,37.9 12.9,38 C12.9,38 13,38.1 13,38.2 C13.1,38.2 13.1,38.3 13.1,38.4 C13.1,38.5 13.2,38.5 13.2,38.5 C13.3,38.5 13.3,38.7 13.2,38.8 C13.1,39 12.9,39 12.6,39 C12.5,39 12.4,39 12.5,39.1 C12.5,39.1 12.5,39.3 12.5,39.3 C12.5,39.5 12.5,39.5 12.3,39.4 C12.1,39.3 12.1,39.3 12.1,39.5 C12.1,39.6 12.2,39.7 12.2,39.7 C12.2,39.7 12.2,39.8 12.2,39.8 C12.2,39.8 12.1,39.8 12.2,39.8 C12.2,39.9 12.2,40 12.2,40.2 C12.2,40.2 12.1,40.3 12.1,40.3 C11.9,40.3 12,40.7 12.2,40.7 C12.3,40.7 12.3,40.9 12.2,41 C12.1,41 12.1,41.1 12.1,41.2 C12.1,41.3 12.1,41.3 12,41.3 C11.9,41.3 11.9,41.4 12,41.6 C12.1,41.7 12.1,41.8 12,41.8 C11.9,41.8 12,41.8 12,41.9 C12.1,41.9 12.1,42 12.1,42 C12.1,42.1 12.5,42.4 12.6,42.4 C12.8,42.4 12.7,42.5 12.5,42.5 C12.4,42.5 12.3,42.5 12.2,42.4 C12.1,42.3 12.1,42.3 12.2,42.4 C12.2,42.5 12.2,42.5 12.1,42.5 C12,42.5 12,42.5 12,42.4 C12,42.4 11.9,42.3 11.9,42.3 C11.8,42.3 11.8,42.3 11.8,42.2 C11.8,42.2 11.8,42.2 11.9,42.2 C11.9,42.2 12,42.2 12,42.1 C12,42 12,42 12,42 C11.9,42 11.9,42 12,41.9 C12.1,41.8 12,41.8 12,41.8 C11.5,40.5 11.5,40.6 11.5,40.7 Z M6,12.8 C5.9,12.9 6,12.8 6.1,12.7 C6.2,12.7 6.2,12.6 6.2,12.6 C6.2,12.6 6.3,12.5 6.3,12.5 C6.3,12.5 6.3,12.5 6.3,12.6 C6.3,12.6 6.2,12.7 6.2,12.7 C6.2,12.6 6.1,12.8 6,12.8 Z M6.7,13.2 C6.7,13.2 6.8,13.2 6.7,13.2 C6.9,13.1 6.8,13.2 6.7,13.2 C6.7,13.4 6.6,13.5 6.6,13.5 C6.6,13.5 6.7,13.3 6.7,13.2 Z M15,8.8 C14.9,9 14.8,9 14.7,9.1 C14.5,9.1 14.7,8.9 15,8.8 C15,8.7 15.1,8.7 15.1,8.7 C15.1,8.7 15,8.8 15,8.8 Z M15.1,8.9 C15.1,8.8 15.2,8.9 15.1,8.9 C15.1,8.9 15,8.9 15.1,8.9 C15,8.9 15,8.9 15.1,8.9 Z M14.7,8.6 C14.6,8.7 14.6,8.7 14.6,8.7 C14.6,8.7 14.6,8.6 14.7,8.6 C14.8,8.4 14.9,8.4 14.7,8.6 Z M14,10.1 C14,10.1 14,10.1 14,10.1 C14,10.1 14,10 14,10.1 C14.1,10 14.1,10 14,10.1 Z M13.5,10 C13.4,9.9 13.4,10 13.2,10.1 C13.1,10.2 13,10.2 13,10.2 C13,10.2 13,10.1 12.9,10.2 C12.8,10.2 12.8,10.2 12.9,10.1 C13,10 13.1,9.9 13.1,9.8 C13.2,9.7 13.3,9.6 13.3,9.6 C13.3,9.6 13.4,9.6 13.4,9.5 C13.4,9.5 13.4,9.5 13.4,9.6 C13.4,9.6 13.4,9.7 13.4,9.7 C13.5,9.7 13.6,9.9 13.6,9.9 C13.6,9.9 13.6,10 13.6,10 C13.6,10 13.7,10 13.6,10.1 C13.7,10.1 13.6,10.1 13.5,10 Z M13.7,10.3 C13.7,10.3 13.7,10.4 13.7,10.3 C13.7,10.4 13.6,10.4 13.6,10.4 C13.6,10.4 13.6,10.4 13.6,10.3 C13.6,10.4 13.6,10.3 13.7,10.3 Z M13.4,10.3 C13.4,10.3 13.3,10.4 13.3,10.4 C13.3,10.4 13.2,10.4 13.3,10.3 C13.2,10.3 13.3,10.2 13.4,10.3 C13.4,10.2 13.4,10.2 13.4,10.3 Z M12.9,11.9 C12.9,11.9 12.9,11.9 12.9,11.9 C12.8,12 12.7,12 12.8,12 C12.8,11.9 12.9,11.9 12.9,11.9 C12.9,11.9 12.9,11.9 12.9,11.9 Z M12.2,12.8 C12.2,12.8 12.2,12.8 12.2,12.8 C12.2,12.8 12.1,12.8 12.2,12.8 C12.2,12.7 12.2,12.7 12.2,12.8 C12.3,12.7 12.3,12.7 12.2,12.8 Z M15.6,14.3 C15.6,14.4 15.5,14.4 15.5,14.3 C15.4,14.3 15.5,14.2 15.6,14.1 C15.7,13.9 15.8,13.9 15.7,14 C15.7,14 15.7,14.1 15.7,14.1 C15.7,14.2 15.7,14.3 15.6,14.3 Z M15.7,13.8 C15.6,13.9 15.6,14 15.7,13.9 C15.7,13.9 15.7,14 15.5,14.1 C15.2,14.3 15.1,14.4 15.3,14.2 C15.4,14.1 15.3,14.1 15,14.1 C14.8,14.1 14.7,14.1 14.7,14 C14.7,13.9 14.8,13.9 14.8,13.9 C14.8,13.9 14.9,13.8 14.9,13.8 C14.9,13.7 15,13.7 15,13.7 C15,13.7 15.1,13.6 15.1,13.5 C15.1,13.4 15.3,13.3 15.4,13.1 C15.6,12.9 15.8,12.8 15.6,13 C15.4,13.2 15.3,13.4 15.4,13.3 C15.4,13.3 15.5,13.3 15.5,13.4 C15.5,13.5 15.6,13.5 15.7,13.5 C15.8,13.6 15.8,13.6 15.7,13.8 Z M14.4,13.7 C14.3,13.7 14.3,13.6 14.3,13.6 C14.2,13.5 14.4,13.5 14.4,13.7 C14.5,13.8 14.5,13.8 14.4,13.7 Z M14,14.6 C13.9,14.6 13.9,14.6 13.9,14.5 C13.9,14.4 13.9,14.4 13.9,14.4 C13.9,14.4 13.9,14.5 14,14.6 C14,14.6 14,14.6 14,14.6 Z M10.7,24.7 C10.7,24.8 10.6,24.8 10.7,24.7 C10.6,24.8 10.6,24.7 10.6,24.7 C10.6,24.7 10.6,24.6 10.7,24.7 C10.7,24.6 10.7,24.7 10.7,24.7 Z M10.5,22.5 C10.5,22.5 10.4,22.6 10.4,22.6 C10.3,22.6 10.3,22.5 10.3,22.5 C10.3,22.4 10.4,22.4 10.5,22.5 C10.5,22.4 10.5,22.4 10.5,22.5 Z M8.9,21.6 C8.8,21.6 8.8,21.5 8.8,21.5 C8.8,21.4 8.8,21.4 8.7,21.4 C8.6,21.4 8.6,21.4 8.6,21.3 C8.6,21.3 8.6,21.2 8.5,21.2 C8.4,21.2 8.4,21.2 8.4,21.1 C8.4,21 8.3,21 8.2,21.1 C8.2,21.1 8.1,21.2 8,21.2 C7.9,21.2 7.9,21.2 8,21.1 C8.1,21 8.2,21 8.3,20.9 C8.6,20.8 8.7,20.9 9.1,21.4 C9.2,21.5 9.3,21.6 9.3,21.6 C9.4,21.7 9.3,21.8 9,21.8 C8.8,21.8 8.8,21.8 8.9,21.7 C8.9,21.6 8.9,21.6 8.9,21.6 Z M8.8,22.3 C8.8,22.4 8.8,22.4 8.7,22.4 C8.6,22.4 8.6,22.3 8.6,22.3 C8.6,22.2 8.7,22.2 8.8,22.3 Z M9.2,20.5 C9.2,20.4 9.3,20.4 9.2,20.5 C9.3,20.4 9.3,20.4 9.2,20.5 C9.3,20.5 9.2,20.6 9.2,20.5 C9.2,20.6 9.2,20.5 9.2,20.5 Z M9.3,22.3 C9.4,22.4 9.5,22.2 9.5,22 C9.5,21.8 9.9,21.9 10,22.1 C10.1,22.2 10.1,22.3 10.1,22.3 C10.1,22.3 10,22.3 9.9,22.3 C9.8,22.3 9.7,22.3 9.6,22.4 C9.5,22.5 9.1,22.3 9.1,22.3 C9.2,22.2 9.2,22.2 9.3,22.3 Z M15.6,44 C15.6,44.1 15.6,44.1 15.6,44 C15.5,44.1 15.5,44 15.6,44 C15.5,44 15.5,44 15.6,44 Z M15,45 C15,45 14.9,44.9 14.8,45 C14.7,45 14.7,45 14.6,44.9 C14.6,44.9 14.6,44.8 14.6,44.8 C14.6,44.8 14.7,44.8 14.7,44.8 C14.7,44.8 14.8,44.8 14.9,44.8 C15,44.8 15.1,44.8 14.9,44.7 C14.8,44.7 14.8,44.7 14.8,44.6 C14.8,44.6 14.8,44.5 14.8,44.5 C14.8,44.4 14.8,44.4 14.8,44.4 C14.9,44.4 14.9,44.4 15.2,44.6 C15.6,45 15.5,45.1 15.2,45 C14.9,45.2 14.9,45.1 15,45 C15.1,45.1 15.1,45.1 15,45 Z M14.6,44.7 C14.7,44.8 14.7,44.8 14.6,44.7 C14.5,44.7 14.5,44.7 14.5,44.7 C14.4,44.7 14.5,44.7 14.6,44.7 Z M14.5,44.6 C14.5,44.6 14.5,44.6 14.5,44.6 C14.5,44.6 14.5,44.6 14.5,44.6 C14.4,44.6 14.4,44.6 14.5,44.6 Z M15.1,44.3 C15.1,44.3 15.1,44.3 15.1,44.3 C15.2,44.4 15.2,44.4 15.1,44.3 C15.1,44.5 15,44.4 15.1,44.3 Z M14.4,45 C14.4,45 14.3,45 14.4,45 C14.3,45 14.3,45 14.2,44.9 C14.2,44.9 14.2,44.9 14.3,44.9 C14.3,44.9 14.4,45 14.4,45 Z M13.4,40.8 C13.3,40.8 13.3,40.8 13.4,40.8 C13.3,40.7 13.4,40.7 13.5,40.7 C13.6,40.7 13.5,40.8 13.4,40.8 Z M13.2,40.8 C13.1,40.8 13.1,40.8 13.2,40.8 C13.1,40.7 13.2,40.7 13.2,40.7 C13.3,40.7 13.3,40.7 13.2,40.8 Z M12.9,44.5 C12.9,44.5 12.9,44.5 12.9,44.5 C12.8,44.5 12.8,44.5 12.9,44.5 C12.8,44.4 12.8,44.4 12.9,44.5 C12.8,44.4 12.8,44.4 12.9,44.5 Z M12,38.6 C12,38.6 12,38.6 12,38.6 C11.9,38.6 11.9,38.6 12,38.6 C11.9,38.5 11.9,38.5 12,38.6 C11.9,38.5 12,38.5 12,38.6 Z M12.1,44.2 C12,44.2 11.9,44.1 11.9,44.1 C11.9,44.1 11.8,44.1 11.8,44 C11.8,44 11.7,43.9 11.7,43.9 C11.7,43.9 11.7,43.9 11.9,44 C12.2,44.1 12.4,44.3 12.1,44.2 Z M15.9,46.4 C15.9,46.4 15.8,46.4 15.8,46.4 C15.7,46.4 15.7,46.3 15.6,46.3 C15.6,46.3 15.7,46.3 15.7,46.3 C16,46.3 16,46.4 15.9,46.4 Z M16.5,45.7 C16.4,45.7 16.4,45.7 16.4,45.7 C16.4,45.7 16.4,45.7 16.5,45.7 C16.5,45.8 16.5,45.8 16.5,45.9 C16.5,46 16.4,46 16.4,46 C16.4,46 16.3,46 16.3,46 C16.3,46 16.2,46.1 16,46 C15.9,46 15.7,46 15.6,46 C15.4,46 15.1,45.9 14.8,45.7 C14.7,45.6 14.5,45.6 14.5,45.6 C14.5,45.6 14.8,45.9 15,46 C15.1,46.1 15.2,46.1 15.2,46.1 C15.2,46.1 14.8,46 14.4,45.8 C14.3,45.7 14.3,45.7 14.3,45.8 C14.3,45.8 14.4,45.9 14.5,45.9 C14.6,45.9 14.7,46 14.7,46 C14.7,46 14.7,46 14.6,46 C13.6,45.5 12.7,45 11.8,44.4 C11.8,44.4 11.7,44.4 11.7,44.3 C11.7,44.3 11.6,44.3 11.6,44.2 C11.6,44.2 11.5,44.1 11.5,44.1 C11.5,44.1 11.5,44.1 11.6,44.1 C11.7,44.1 11.8,44.2 11.7,44.1 C11.7,44.1 11.6,44 11.5,44 C11.4,44 11.3,43.9 11.3,43.9 C11.3,43.9 11.3,43.9 11.4,43.9 C11.8,44.1 12.3,44.3 12.8,44.5 C12.9,44.5 12.9,44.5 12.9,44.5 C12.9,44.5 13,44.6 13.1,44.6 C13.2,44.6 13.3,44.7 13.3,44.7 C13.3,44.7 13.4,44.8 13.6,44.9 C13.8,45 13.8,45 13.9,44.9 C13.9,44.9 14,44.9 14,44.9 C14.1,44.9 14.1,45 14.2,45 C14.3,45 14.4,45.1 14.4,45.1 C14.5,45.2 14.5,45.2 14.5,45.1 C14.5,45.1 14.5,45 14.4,45 C14.4,45 14.4,45 14.4,45 C14.4,45 14.5,45 14.5,45.1 C14.6,45.2 14.6,45.2 14.9,45.3 C15.2,45.4 15.4,45.3 15.3,45.2 C15.3,45.2 15.2,45.1 15.2,45 C14.9,44.6 14.9,44.6 15,44.7 C15.1,44.7 15.1,44.7 15.1,44.6 C15.1,44.5 15,44.4 15,44.5 C15,44.5 15,44.5 14.9,44.5 C14.9,44.5 14.9,44.4 15,44.4 C15.1,44.4 15.2,44.3 15.2,44.3 C15.2,44.3 15.5,44.2 15.6,44.2 C15.7,44.2 15.7,44.2 15.7,44.2 C15.7,44.2 15.8,44.2 15.8,44.2 C15.8,44.2 15.9,44.2 15.9,44.2 C15.9,44.2 15.8,44.2 15.8,44.2 C15.7,44.2 15.7,44.2 15.7,44.3 C15.7,44.3 15.7,44.3 15.6,44.3 C15.5,44.3 15.3,44.4 15.3,44.5 C15.3,44.6 15.3,44.6 15.2,44.6 C15.1,44.6 15.1,44.6 15,44.7 C15,44.7 15,44.8 15.1,44.8 C15.1,44.9 15.2,44.9 15.2,44.9 C15.3,44.9 15.6,45.2 15.6,45.2 C15.6,45.2 15.6,45.3 15.7,45.3 C15.8,45.3 15.8,45.4 15.8,45.5 C15.8,45.6 15.8,45.6 15.9,45.6 C15.9,45.6 15.9,45.6 15.9,45.6 C16.4,45.5 16.4,45.6 16.5,45.7 C16.5,45.7 16.6,45.7 16.6,45.7 C16.5,45.7 16.5,45.7 16.5,45.7 Z M16.3,44.2 C16.3,44.2 16.3,44.2 16.3,44.2 C16.2,44.2 16.2,44.2 16.2,44.2 C16.2,44.1 16.2,44.1 16.3,44.2 C16.3,44.1 16.3,44.1 16.3,44.2 Z M16.8,46.9 C16.8,46.9 16.8,46.9 16.8,46.9 C16.8,46.8 16.9,46.9 17,46.9 C17,46.9 17,46.9 17,47 C16.9,46.9 16.9,46.9 16.8,46.9 Z M17.4,9.7 C17.3,9.4 17.3,9.4 17.5,9.2 C17.6,9 17.6,9 17.5,9.1 C17.3,9.2 17.3,9.2 17.4,9.1 C17.4,9 17.4,8.9 17.4,8.8 C17.4,8.7 17.4,8.6 17.4,8.6 C17.5,8.6 17.5,8.5 17.4,8.5 C17.4,8.4 17.4,8.4 17.5,8.2 C17.6,8.1 17.7,8 17.8,8 C17.9,8 17.9,7.9 18,7.8 C18.1,7.6 18.1,7.6 18,7.7 C18,7.7 17.9,7.8 17.9,7.7 C17.9,7.7 17.9,7.6 17.8,7.6 C17.7,7.6 17.7,7.6 17.7,7.7 C17.7,7.7 17.7,7.8 17.8,7.8 C17.8,7.8 17.7,7.8 17.7,7.9 C17.5,8 17.4,7.9 17.5,7.8 C17.5,7.7 17.6,7.7 17.6,7.7 C17.6,7.7 17.6,7.7 17.6,7.6 C17.6,7.5 17.6,7.5 17.7,7.5 C17.7,7.5 17.8,7.5 17.7,7.5 C17.7,7.5 17.7,7.6 17.8,7.6 C17.9,7.6 17.9,7.6 18,7.6 C18.1,7.7 18.1,7.5 18,7.4 C17.9,7.3 17.8,7.3 17.7,7.4 C17.5,7.5 17.5,7.4 17.7,7.2 C17.8,7.1 17.8,7.1 17.8,6.8 C17.8,6.7 17.7,6.5 17.7,6.5 C17.7,6.5 17.6,6.5 17.6,6.4 C17.6,6.2 17.3,6.2 16.8,6.3 C16.5,6.4 16.4,6.4 16.3,6.3 C16.3,6.3 16.2,6.2 16.2,6.2 C16.1,6.2 16.2,6.2 16.3,6.1 C16.4,6.1 16.5,6 16.5,6 C16.5,6 16.5,5.9 16.5,6 C16.4,6.1 16.1,6 16.1,5.9 C16.1,5.9 16.3,5.8 16.8,5.6 C17.1,5.5 17.2,5.5 17.2,5.4 C17.2,5.4 17.2,5.3 17.1,5.4 C17,5.4 17,5.4 17,5.4 C17.1,5.3 17.5,5.1 17.7,5.1 C17.8,5.1 17.9,5 17.9,5 C17.9,4.9 18.8,4.7 18.8,4.8 C18.8,4.9 18.8,4.9 18.9,4.8 C18.9,4.8 19,4.7 19,4.8 C19.1,4.9 19.2,4.9 19.2,4.7 C19.2,4.6 19.2,4.6 19.6,4.7 C19.9,4.8 19.9,4.8 19.9,4.7 C19.9,4.7 19.9,4.6 19.9,4.6 C20,4.6 19.9,4.5 19.8,4.5 C19.7,4.5 19.9,4.4 20.2,4.4 C20.5,4.4 20.7,4.4 20.7,4.3 C20.7,4.3 20.8,4.2 21,4.2 C21.4,4.1 21.9,4.1 22.4,4.2 C22.5,4.2 22.6,4.3 22.7,4.3 C22.8,4.3 22.9,4.3 22.8,4.4 C22.8,4.4 22.7,4.5 22.6,4.5 C22.5,4.5 22.4,4.5 22.4,4.6 C22.4,4.6 22.4,4.7 22.6,4.6 C22.8,4.6 22.8,4.6 22.7,4.7 C22.6,4.8 22.6,4.8 22.6,4.8 C22.6,4.8 22.6,4.8 22.6,4.8 C22.6,4.8 22.7,4.8 22.8,4.7 C22.9,4.6 23,4.6 23.1,4.6 C23.2,4.6 23.3,4.6 23.4,4.6 C23.5,4.5 23.7,4.5 23.8,4.6 C23.9,4.6 23.9,4.6 24,4.7 C23.9,4.7 23.9,4.8 23.8,4.8 C23.6,4.9 23.5,5 23.3,5.1 C23.3,5.1 23.2,5.2 23.1,5.2 C23.1,5.2 23,5.2 23,5.3 C23,5.4 22.9,5.4 22.9,5.4 C22.9,5.4 22.8,5.5 22.7,5.6 C22.7,5.7 22.6,5.7 22.6,5.8 C22.6,5.8 22.7,5.8 22.7,5.7 C22.8,5.7 22.8,5.7 22.8,5.7 C22.8,5.7 22.9,5.8 22.9,5.8 C23,5.8 23.1,5.9 23,6 C23,6.1 22.9,6.1 22.9,6 C22.9,6 22.8,5.9 22.7,5.9 C22.7,5.9 22.7,5.9 22.6,5.9 C22.6,5.9 22.6,5.9 22.6,5.9 C22.4,5.9 22.4,6 22.6,6 C22.7,6 22.8,6.1 22.8,6.3 C22.8,6.3 22.7,6.3 22.7,6.3 C22.5,6.3 22.5,6.4 22.7,6.5 C22.8,6.5 22.8,6.5 22.8,6.5 C22.7,6.5 22.7,6.5 22.7,6.5 C22.6,6.5 22.6,6.6 22.6,6.6 C22.6,6.7 22.3,6.8 22.2,6.7 C22.1,6.7 22.1,6.6 22,6.7 C21.9,6.8 22,6.8 22.1,6.8 C22.2,6.9 22.3,7 22.2,7 C22.1,7.1 21.9,6.9 21.9,6.8 C21.9,6.8 21.9,6.7 21.9,6.7 C21.8,6.7 21.9,6.9 22,7 C22.1,7 22.3,7.3 22.2,7.4 C22.2,7.5 21.8,7.4 21.8,7.3 C21.8,7.3 21.7,7.2 21.7,7.2 C21.6,7.2 21.6,7.2 21.6,7.3 C21.6,7.4 21.6,7.4 21.5,7.5 C21.4,7.5 21.5,7.5 21.6,7.6 C21.7,7.6 21.8,7.6 21.9,7.7 C22,7.7 21.9,7.8 21.7,7.9 C21.2,8.1 20.7,8.2 20.6,8.1 C20.5,8 20.5,8 20.5,8.1 C20.5,8.2 19.6,8.2 19.6,8.2 C19.6,8.2 20.3,8.3 20.2,8.4 C20.1,8.5 19.9,8.6 19.8,8.6 C19.7,8.6 19.6,8.7 19.5,8.7 C19.4,8.8 19.4,8.8 19.5,8.6 C19.6,8.5 19.6,8.5 19.5,8.6 C19.4,8.7 19.3,8.7 19.2,8.8 C19,8.8 19,8.9 19,9 C19,9.1 19,9.1 18.9,9.1 C18.9,9.1 18.8,9.1 18.9,9.1 C19,9.2 18.9,9.3 18.7,9.4 C18.6,9.5 18.5,9.6 18.5,9.6 C18.5,9.6 18.4,9.8 18.3,9.9 C18.2,10.1 18.1,10.2 18,10.2 C17.9,10.2 17.9,10.2 17.9,10.1 C17.9,10.1 17.9,10 17.9,10 C17.9,10 17.8,10 17.9,9.9 C17.9,9.9 17.9,9.9 17.8,9.9 C17.5,10.1 17.4,10.1 17.4,9.7 Z M18.9,47.5 C18.8,47.5 18.8,47.5 18.7,47.5 C18.4,47.4 18.1,47.3 17.8,47.2 C17.8,47.2 17.9,47.2 17.9,47.2 C18,47.2 18.1,47.2 18.1,47.1 C18.1,47 18.2,47 18.2,47 C18.4,47 18.8,47.1 18.8,47.2 C18.8,47.2 18.8,47.3 18.9,47.4 C19,47.4 19,47.4 18.9,47.5 Z M19,41.5 C18.9,41.4 18.9,41.4 19,41.5 C19.1,41.5 19.1,41.5 19.2,41.5 C19.3,41.7 19.2,41.6 19,41.5 Z M24.7,48.3 C23.3,48.3 22,48.2 20.6,47.9 C20.6,47.9 20.7,47.9 20.7,47.9 C20.7,47.9 20.6,47.8 20.6,47.8 C20.6,47.8 20.5,47.8 20.5,47.8 C20.5,47.8 20.5,47.8 20.6,47.7 C20.7,47.6 20.7,47.6 20.5,47.6 C20.4,47.6 20.3,47.6 20.3,47.6 C20.3,47.6 19.8,47.4 19.8,47.4 C19.9,47.2 21.2,47.1 21.6,47.2 C21.7,47.2 21.8,47.2 21.8,47.2 C21.8,47.2 21.9,47.1 22,47 C22.2,46.9 22.2,46.9 22.1,46.9 C22,46.9 22,46.9 22,46.8 C22,46.8 22.1,46.7 22.1,46.7 C22.1,46.7 22.2,46.7 22.2,46.6 C22.2,46.6 22.3,46.6 22.3,46.6 C22.3,46.6 22.4,46.6 22.5,46.6 C22.6,46.6 22.6,46.6 22.5,46.5 C22.4,46.4 22.4,46.4 22.5,46.4 C22.5,46.4 22.6,46.4 22.7,46.4 C22.8,46.4 22.8,46.4 22.9,46.4 C23,46.5 23,46.5 23.1,46.4 C23.2,46.3 23.3,46.3 23.3,46.4 C23.3,46.4 23.4,46.5 23.6,46.5 C23.9,46.5 24.1,46.5 24.3,46.4 C24.4,46.3 25.2,46.4 25.3,46.4 C25.4,46.4 25.4,46.4 25.5,46.4 C25.8,46.3 26.2,46.4 26.5,46.4 C26.7,46.4 27,46.4 27.3,46.4 C27.7,46.3 27.9,46.3 28,46.1 C28.1,46 28.1,46.1 28.2,46.1 C28.2,46.2 28.3,46.2 28.4,46.2 C28.4,46.2 28.5,46.2 28.5,46.2 C28.5,46.3 28.7,46.2 28.7,46.1 C28.8,46 29,45.9 29.2,45.9 C29.3,45.9 29.4,45.8 29.4,45.8 C29.5,45.8 29.6,45.8 29.7,45.8 C29.8,45.8 29.8,45.8 29.8,45.8 C29.8,45.8 29.8,45.7 29.9,45.8 C30,45.8 30,45.8 30,45.7 C30,45.6 30.6,45.4 30.7,45.5 C30.7,45.5 30.8,45.6 30.8,45.6 C30.8,45.6 31.2,45.7 31.7,45.6 C31.9,45.6 32,45.6 32,45.6 C32,45.7 31.8,45.9 31.7,45.9 C31.7,45.9 31.6,45.9 31.6,46 C31.5,46.1 31.6,46.1 31.7,46 C31.8,46 31.8,46 31.7,46 C31.7,46 31.6,46.1 31.6,46.1 C31.5,46.1 31.4,46.3 31.5,46.3 C31.6,46.3 31.8,46.2 31.9,46 C32,45.9 32,45.9 32,45.9 C32,45.9 32,45.9 32.1,45.8 C32.1,45.8 32.3,45.7 32.4,45.6 C32.5,45.6 32.7,45.4 32.8,45.4 C32.9,45.3 33,45.2 33.1,45.2 C33.2,45.2 33.2,45.2 33.3,45.1 C33.4,45 33.5,45 33.8,44.9 C33.8,44.9 33.9,44.8 34,44.8 C34,44.8 34,44.8 34,44.8 C34,44.8 34,44.8 34.1,44.7 C34.2,44.6 34.3,44.6 34.6,44.6 C34.9,44.6 34.9,44.6 35,44.5 C35.1,44.4 35.3,44.3 35.3,44.3 C35.3,44.4 35.5,44.4 35.6,44.3 C35.8,44.2 36.2,44.1 36.3,44 C36.3,44 36.4,44 36.4,44 C36.4,44.1 36.5,44 36.6,43.9 C36.7,43.8 36.7,43.8 36.8,43.8 C36.9,43.7 37,43.7 37,43.7 C37,43.6 37.1,43.6 37.1,43.6 C37.1,43.6 37.1,43.6 37.1,43.7 C37,43.8 37,43.8 37.1,43.8 C37.2,43.8 37.2,43.8 37.3,43.7 C37.5,43.7 37.6,43.6 37.6,43.6 C37.6,43.6 37.6,43.6 37.6,43.6 C37.6,43.6 37.7,43.7 37.8,43.6 C37.8,43.6 37.9,43.6 37.8,43.6 C37.8,43.6 37.8,43.6 37.9,43.6 C38,43.6 38,43.5 38,43.5 C38,43.4 38.1,43.4 38,43.5 C38,43.5 38,43.5 38.1,43.5 C38.2,43.5 38.2,43.5 38.2,43.5 C38.2,43.5 38.3,43.5 38.4,43.4 C34.5,46.6 29.8,48.3 24.7,48.3 Z M21.5,46.9 C21.5,46.9 21.5,46.9 21.5,46.9 C21.5,46.9 21.5,46.9 21.5,46.9 C21.5,47 21.5,47 21.5,46.9 C21.5,47 21.5,47 21.5,46.9 Z M23.5,46.4 C23.6,46.4 23.6,46.4 23.5,46.4 C23.6,46.4 23.6,46.4 23.5,46.4 C23.6,46.5 23.6,46.5 23.5,46.4 C23.5,46.5 23.5,46.5 23.5,46.4 Z M32.3,32.6 C32.3,32.2 32.4,32 32.8,31.8 C32.9,31.7 33.1,31.6 33.1,31.5 C33.2,31.4 33.3,31.3 33.3,31.2 C33.4,31.1 33.4,31 33.4,31 C33.4,30.9 33.4,30.9 33.5,30.8 C33.5,30.8 33.6,30.7 33.6,30.7 C33.6,30.7 33.7,31.1 33.7,31.4 C33.7,31.6 33.7,31.7 33.6,31.6 C33.5,31.6 33.5,31.6 33.5,31.7 C33.5,31.8 33.5,31.9 33.5,31.9 C33.5,32 33.4,32 33.4,32.1 C33.2,32.7 32.9,33.4 32.6,33.9 C32.6,33.9 32.5,34 32.3,34 C32,34.1 31.9,33.9 31.9,33.5 C31.9,33.2 31.9,33.2 32.1,33 C32.4,32.9 32.4,32.9 32.3,32.6 Z M34.4,40.3 C34.5,40.3 34.5,40.3 34.4,40.3 C34.3,40.5 34.2,40.5 34.3,40.4 C34.3,40.3 34.3,40.3 34.4,40.3 Z M34.4,33 C34.4,32.9 34.4,32.9 34.4,33 C34.5,32.9 34.5,32.9 34.4,33 C34.5,33 34.5,33 34.4,33 C34.4,33 34.4,33 34.4,33 Z M34.7,24 C34.8,24 34.8,24 34.8,24.1 C34.8,24.2 34.7,24.2 34.7,24 C34.7,24.1 34.7,24 34.7,24 Z M36.8,42.3 C36.8,42.3 36.8,42.3 36.8,42.3 C36.9,42.3 36.9,42.3 36.8,42.3 C36.9,42.3 36.9,42.4 36.8,42.3 Z M39.9,25.7 C39.8,25.8 39.8,25.8 39.7,25.7 C39.6,25.6 39.5,25.1 39.5,24.9 C39.5,24.7 39.5,24.8 39.7,25.1 C40,25.4 40.1,25.5 39.9,25.7 Z M41.5,22.6 C41.5,22.7 41.5,22.7 41.5,22.8 C41.5,23 41.4,23 41.3,22.9 C41.3,22.9 41.2,22.8 41.2,22.7 C41.2,22.5 41,22.1 41,22.1 C41,22.1 41,22 41,22 C41,21.9 41,21.9 40.9,21.8 C40.8,21.7 40.7,21.6 40.6,21.4 C40.4,21.1 40.3,21 40.3,21.2 C40.3,21.3 40.3,21.3 40.3,21.3 C40.3,21.3 40.2,21.3 40.1,21.3 C40,21.3 39.9,21.3 39.9,21.3 C39.9,21.3 39.9,21.4 39.9,21.4 C39.9,21.6 39.9,21.7 39.8,21.7 C39.8,21.7 39.7,21.8 39.7,21.9 C39.6,22.3 39.5,22.6 39.4,22.6 C39.4,22.6 39.4,22.6 39.4,22.7 C39.4,22.7 39.4,22.8 39.3,22.8 C39.2,22.8 39.2,22.9 39.3,23.2 C39.4,23.6 39.5,24.1 39.4,24.6 C39.3,25 39.2,25 39,24.5 C38.9,24.3 38.8,24.1 38.7,23.9 C38.6,23.7 38.5,23.5 38.5,23.5 C38.5,23.4 38.4,23.2 38.3,23 C38.1,22.5 37.9,22 37.8,21.5 C37.8,21.5 37.8,21.3 37.7,21.2 C37.6,21 37.6,21 37.6,21.2 C37.6,21.5 37.5,21.5 37.2,21.2 C37,21 37,21 37.1,21 C37.2,21 37.2,21 37.2,20.9 C37.2,20.9 37.2,20.8 37.1,20.9 C37,21 36.8,20.7 36.5,20.4 C36.4,20.3 36.3,20.1 36.3,20.2 C35.9,20.3 35.2,20.3 34.8,20.1 C34.8,20.1 34.7,20 34.7,19.9 C34.6,19.7 34.5,19.6 34.5,19.8 C34.5,19.8 34.5,19.9 34.5,19.8 C34.5,19.8 34.4,19.8 34.4,19.8 C34,19.9 33.6,19.4 33.4,19.1 C33.2,18.8 33.1,18.7 32.9,18.9 C32.8,19 32.8,19 33,19.3 C33.1,19.5 33.2,19.6 33.3,19.7 C33.3,19.7 33.4,19.9 33.5,20.1 C33.6,20.4 33.6,20.4 33.6,20.2 C33.6,20 33.8,20.1 33.8,20.3 C33.8,20.8 34.3,20.8 34.5,20.3 C34.6,20.2 34.6,20.1 34.6,20 C34.6,20.1 34.6,20.1 34.7,20.2 C34.8,20.5 34.9,20.6 35.1,20.7 C35.2,20.7 35.3,20.8 35.4,20.9 C35.5,21 35.5,21 35.5,21.1 C35.5,21.2 35.5,21.3 35.4,21.4 C35.4,21.5 35.3,21.7 35.3,21.7 C35.2,21.7 35.2,21.9 35.3,22 C35.3,22 35.3,22.1 35.2,22.2 C35.1,22.3 35.1,22.3 35.1,22.4 C35.1,22.4 35.1,22.5 35,22.5 C34.9,22.5 34.9,22.5 34.9,22.6 C34.9,22.7 34.8,22.7 34.7,22.8 C34.6,22.8 34.4,22.9 34.4,23 C34.3,23.1 34.2,23.2 34.1,23.3 C34,23.4 33.8,23.5 33.8,23.5 C33.7,23.6 33.7,23.6 33.6,23.6 C33.6,23.6 33.5,23.6 33.4,23.7 C33.3,23.7 33.2,23.8 33.2,23.8 C33.2,23.8 33.1,23.9 33,23.9 C32.9,23.9 32.8,24 32.8,24 C32.7,24 32.5,23.3 32.4,23 C32.4,22.9 32.3,22.7 32.1,22.5 C32,22.3 31.9,22.1 31.9,22.1 C31.9,22 31.8,21.9 31.6,21.8 C31.4,21.6 31.3,21.5 31.3,21.4 C31.3,21.1 31.1,20.8 30.9,20.6 C30.8,20.5 30.7,20.4 30.7,20.4 C30.7,20.3 30.6,20.1 30.4,19.9 C30.2,19.7 30.1,19.4 30.1,19.3 C30.1,19.2 30.1,19.2 30.1,19.4 C30.1,19.7 30,19.6 29.8,19.3 C29.7,19.2 29.6,19 29.6,19 C29.6,19 29.6,19.1 29.7,19.3 C29.8,19.5 29.9,19.7 30,19.8 C30.1,20 30.2,20.2 30.3,20.4 C30.4,20.6 30.5,20.8 30.5,20.8 C30.5,20.9 30.6,21 30.7,21.2 C30.8,21.3 30.9,21.5 31,21.8 C31.1,22.1 31.1,22.3 31.3,22.4 C31.4,22.5 31.5,22.7 31.6,22.9 C31.7,23.1 31.8,23.3 32,23.4 C32.4,23.7 32.8,24.2 32.7,24.3 C32.7,24.3 32.7,24.4 32.8,24.5 C32.9,24.6 32.9,24.6 33,24.7 C33.2,24.6 33.4,24.6 33.6,24.5 C33.9,24.4 34.2,24.3 34.3,24.3 C34.4,24.2 34.4,24.3 34.4,24.6 C34.4,24.8 34.4,25 34.4,25.1 C34.4,25.1 34.3,25.4 34.2,25.7 C34.1,26.3 33.8,26.7 33.4,27.1 C33.3,27.2 33.1,27.4 32.9,27.6 C32.7,27.8 32.4,28.1 32.3,28.3 C32.2,28.4 32,28.7 31.9,28.9 C31.7,29.2 31.7,29.3 31.7,29.5 C31.7,29.6 31.8,29.8 31.7,30 C31.7,30.2 31.7,30.4 31.8,30.4 C31.9,30.5 31.9,30.6 31.8,31.1 C31.7,31.7 31.7,31.7 31.6,31.9 C31.5,32 31.3,32.1 31.2,32.2 C31.1,32.3 30.9,32.4 30.8,32.5 C30.7,32.6 30.5,32.8 30.5,32.8 C30.4,32.9 30.3,32.9 30.4,33.2 C30.4,33.3 30.4,33.6 30.4,33.7 C30.4,34 30.4,34 30.1,34.1 C29.8,34.2 29.8,34.3 29.8,34.6 C29.8,34.8 29.7,35 29.6,35.1 C29.5,35.2 29.3,35.4 29.2,35.6 C28.8,36.1 28.2,36.3 27.6,36.4 C27.4,36.4 27.2,36.5 27.1,36.5 C27,36.6 26.9,36.6 26.8,36.5 C26.6,36.4 26.5,36.2 26.5,36.1 C26.6,36 26.2,35.3 26,35.1 C25.8,35 25.7,34.7 25.6,34.2 C25.6,34 25.5,33.7 25.4,33.6 C25.2,33.3 24.8,32.8 24.8,32.4 C24.8,32.1 24.9,31.5 25.1,31.3 C25.2,31.2 25.2,31.1 25.2,30.8 C25.2,30.6 25.1,30.4 25.1,30.2 C25,29.6 24.7,29.1 24.3,28.7 C23.9,28.3 23.7,28 23.8,27.9 C23.8,27.9 23.9,27.6 23.9,27.4 C23.9,27.2 23.9,26.9 24,26.9 C24,26.8 23.9,26.7 23.8,26.6 C23.6,26.4 23.6,26.4 23.3,26.4 C22.9,26.5 22.8,26.4 22.8,26.2 C22.8,26.1 22.7,26 22.6,26 C22.2,25.8 21.7,26 21.3,26.2 C20.9,26.4 20.8,26.4 20.6,26.3 C20.4,26.3 20.2,26.3 20,26.3 C19.4,26.5 19.3,26.5 19.2,26.3 C18.9,26 18.4,25.6 18.3,25.2 C18.3,25.1 18.2,24.9 18.1,24.7 C18,24.5 17.9,24.3 17.9,24.3 C17.9,24.3 17.8,24.2 17.8,24.2 C17.7,24.2 17.7,24.1 17.7,23.9 C17.7,23.8 17.7,23.6 17.7,23.5 C17.7,23.4 17.7,23.3 17.7,23.3 C17.8,23.3 18,22.7 18,22.4 C18.1,21.9 18.1,21.7 18,21.6 C17.9,21.5 18,21.4 18.1,21.1 C18.2,20.9 18.4,20.7 18.4,20.6 C18.5,20.5 18.5,20.4 18.6,20.3 C18.6,20.1 19.1,19.6 19.3,19.4 C19.7,19.2 19.9,18.9 19.9,18.7 C19.9,18.4 20.2,18 20.5,17.8 C20.6,17.7 20.8,17.6 20.8,17.4 C20.9,17.1 21,17.1 21,17.2 C21.1,17.3 21.7,17.4 21.8,17.3 C22.1,17 22.8,16.9 23.2,16.8 C23.6,16.8 24,16.7 24.1,16.7 C24.2,16.7 24.3,16.7 24.3,16.7 C24.3,16.8 24.3,16.8 24.4,16.7 C24.5,16.6 24.5,16.7 24.4,16.8 C24.3,16.9 24.3,17 24.4,17.1 C24.5,17.2 24.5,17.3 24.3,17.4 C24.2,17.5 24.1,17.6 24.1,17.6 C24.1,17.7 24.7,18 24.7,17.9 C24.8,17.8 25.3,18.1 25.3,18.2 C25.3,18.3 25.4,18.4 25.5,18.3 C25.6,18.3 25.8,18.4 25.9,18.5 C26.2,18.6 26.2,18.7 26.3,18.5 C26.3,18.4 26.4,18.3 26.4,18.2 C26.4,18 26.7,17.8 26.9,17.9 C27,17.9 27.1,18 27.1,18 C27.1,18 27.3,18.1 27.5,18.2 C27.7,18.3 28,18.4 28.1,18.4 C28.4,18.5 28.6,18.5 28.8,18.4 C29,18.3 29,18.3 29.2,18.4 C29.5,18.6 29.7,18.4 29.8,17.9 C29.9,17.7 29.9,17.3 29.9,17.1 C29.9,17 29.9,16.9 29.9,16.8 C29.8,16.8 29.8,16.8 29.7,16.8 C29.6,16.8 29.5,16.9 29.5,16.9 C29.5,17 29.2,17 29,16.8 C28.8,16.7 28.8,16.7 28.7,16.8 C28.6,16.9 28.6,16.9 28.5,16.8 C28.4,16.7 28.3,16.7 28.2,16.6 C28.1,16.5 28,16.5 28,16.4 C28,16.3 28,16.3 27.9,16.3 C27.9,16.3 27.9,16.2 27.9,16.1 C27.9,16 27.9,15.9 27.8,15.9 C27.8,15.9 27.7,15.8 27.7,15.8 C27.8,15.5 27.3,15.4 27.2,15.6 C27.2,15.7 27.1,15.7 27,15.7 C26.9,15.6 26.8,15.8 27,15.9 C27,15.9 27,16 27,16.1 C27,16.2 27,16.2 27,16.2 C27.3,16.1 27.4,16.3 27.1,16.5 C27,16.6 27,16.6 27,16.7 C27,16.8 27,16.8 26.9,16.8 C26.8,16.8 26.5,16.4 26.6,16.4 C26.6,16.4 26.5,16.2 26.4,16.1 C26.2,15.9 26.1,15.7 26.1,15.6 C26.1,15.4 26,15.3 25.8,15.2 C25.7,15.1 25.5,15 25.4,14.9 C25.3,14.9 25.2,14.7 25.1,14.6 C25,14.4 25,14.4 24.9,14.4 C24.8,14.4 24.8,14.4 24.8,14.3 C24.8,14.1 24.5,14.2 24.5,14.5 C24.5,14.6 24.5,14.7 24.6,14.7 C24.6,14.7 24.8,14.8 24.9,15 C25,15.2 25.2,15.3 25.2,15.3 C25.3,15.3 25.3,15.3 25.3,15.4 C25.3,15.4 25.3,15.5 25.4,15.5 C25.5,15.5 25.9,15.8 25.9,15.9 C25.9,15.9 25.8,15.9 25.7,15.8 C25.6,15.7 25.6,15.7 25.5,15.8 C25.4,15.9 25.4,15.9 25.5,16 C25.6,16.1 25.6,16.1 25.4,16.3 C25.2,16.5 25.2,16.5 25.3,16.3 C25.4,16 25.3,15.8 24.9,15.5 C24.7,15.4 24.4,15.1 24.2,14.9 C24.1,14.7 23.9,14.5 23.9,14.5 C23.9,14.5 23.7,14.6 23.5,14.7 C23.3,14.9 23.2,14.9 23.1,14.8 C22.9,14.7 22.7,14.8 22.6,15.1 C22.6,15.3 22.5,15.3 22.4,15.4 C22.2,15.5 21.9,15.9 21.9,16 C21.9,16.2 21.7,16.5 21.6,16.5 C21.6,16.5 21.5,16.6 21.5,16.6 C21.5,16.7 21.4,16.7 21.2,16.7 C21.1,16.7 20.9,16.7 20.8,16.8 C20.7,16.9 20.6,16.9 20.5,16.7 C20.4,16.6 20.4,16.5 20.2,16.6 C20,16.7 20,16.6 20,16.5 C20,16.4 20,16.3 20,16.2 C20,16.1 20,16 20.1,15.8 C20.2,15.7 20.2,15.4 20.2,15.2 C20.2,14.9 20.2,14.8 20.4,14.7 C20.5,14.6 20.6,14.6 20.6,14.6 C20.6,14.6 20.9,14.6 21.2,14.7 C21.7,14.7 21.7,14.7 21.8,14.5 C21.8,14.4 21.9,14.2 21.9,14.1 C21.9,13.8 21.7,13.4 21.5,13.4 C21.4,13.4 21.4,13.3 21.4,13.3 C21.4,13.2 21.5,13.1 21.8,13.2 C21.9,13.2 21.9,13.2 22,13 C22,12.9 22,12.8 22.1,12.9 C22.2,13 22.2,13 22.4,12.9 C22.5,12.8 22.6,12.7 22.6,12.7 C22.6,12.6 22.7,12.6 22.8,12.5 C22.9,12.5 23,12.3 23.1,12.2 C23.2,12 23.3,12 23.3,12 C23.3,12.1 23.3,12.1 23.4,11.9 C23.4,11.7 23.5,11.7 23.9,11.7 C24,11.7 24.1,11.6 24,11.1 C24,10.9 24,10.8 24,10.8 C24,10.8 24.1,10.8 24.1,10.7 C24.2,10.6 24.4,10.5 24.3,10.7 C24.3,10.7 24.3,10.8 24.3,10.9 C24.3,11 24.3,11 24.2,11.1 C24.1,11.1 24.1,11.2 24.1,11.3 C24,11.5 24.2,11.6 24.5,11.6 C24.7,11.6 24.8,11.6 24.9,11.7 C24.9,11.7 25.1,11.7 25.3,11.6 C25.5,11.5 25.7,11.5 25.7,11.5 C25.8,11.6 26,11.6 26,11.5 C26,11.5 26,11.4 26.1,11.4 C26.2,11.4 26.2,11.3 26.2,11.1 C26.2,10.7 26.3,10.5 26.5,10.7 C26.6,10.8 26.7,10.8 26.7,10.6 C26.7,10.5 26.7,10.4 26.6,10.4 C26.5,10.4 26.5,10.3 26.5,10.3 C26.5,10.2 26.6,10.1 27.1,10.1 C27.3,10.1 27.5,10.1 27.5,10 C27.5,9.9 27.4,9.8 27.2,9.8 C27.1,9.8 26.9,9.8 26.8,9.9 C26.4,10 26.2,9.8 26.2,9.6 C26.2,9.5 26.2,9.4 26.2,9.3 C26.2,9.2 26.2,9.1 26.7,8.7 C26.9,8.6 26.8,8.5 26.5,8.4 C26.3,8.4 26,8.5 26.1,8.7 C26.1,8.8 26.1,8.9 25.8,9 C25.6,9.1 25.4,9.4 25.4,9.6 C25.4,9.7 25.4,9.7 25.5,9.7 C25.5,9.7 25.6,9.7 25.7,9.8 C25.8,9.9 25.8,9.9 25.7,10 C25.7,10.1 25.6,10.2 25.5,10.2 C25.4,10.3 25.4,10.3 25.4,10.5 C25.4,10.8 25.3,10.9 25.1,10.9 C25,10.9 25,10.9 25,11 C25,11.1 24.8,11.2 24.7,11 C24.7,10.9 24.7,10.8 24.7,10.8 C24.7,10.8 24.7,10.7 24.6,10.6 C24.5,10.5 24.5,10.4 24.5,10.3 C24.5,10.2 24.5,10.2 24.5,10.2 C24.5,10.2 24.5,10.2 24.5,10.1 C24.5,10 24.5,10 24.4,9.9 C24.4,9.8 24.3,9.8 24.3,9.9 C24.3,9.9 24.2,10.1 24.1,10.2 C23.9,10.3 23.8,10.4 23.7,10.3 C23.5,10.2 23.4,10.2 23.6,10.1 C23.7,10 23.7,10 23.6,10 C23.5,10 23.5,10 23.6,9.9 C23.7,9.8 23.7,9.8 23.6,9.7 C23.5,9.5 23.6,9.3 23.8,9.1 C23.9,9 24,9 24.1,9 C24.1,9 24.2,8.9 24.2,8.9 C24.2,8.8 24.2,8.8 24.3,8.8 C24.3,8.8 24.4,8.8 24.5,8.7 C24.6,8.6 24.6,8.6 24.7,8.6 C24.7,8.6 24.7,8.6 24.7,8.6 C24.7,8.6 24.7,8.5 24.8,8.5 C24.9,8.5 24.9,8.4 25,8.3 C25.1,8.2 25.2,8 25.4,7.9 C25.7,7.7 25.8,7.5 25.6,7.6 C25.6,7.6 25.5,7.6 25.5,7.6 C25.4,7.5 25.5,7.5 25.5,7.6 C25.6,7.6 25.6,7.6 25.6,7.6 C25.6,7.5 25.6,7.5 25.7,7.6 C25.8,7.7 26,7.6 25.9,7.5 C25.8,7.4 25.9,7.4 25.9,7.4 C26,7.4 26,7.4 26.1,7.4 C26.1,7.4 26.1,7.4 26.1,7.3 C26.1,7.2 26.1,7.2 26.2,7.3 C26.3,7.3 26.3,7.3 26.4,7.3 C26.5,7.2 26.6,7.2 26.6,7.2 C26.7,7.2 26.7,7.2 26.7,7.2 C26.7,7.2 26.8,7.1 26.9,7.1 C27,7 27.1,7 27,7.1 C27,7.2 26.9,7.2 26.9,7.3 C26.9,7.3 26.9,7.3 27,7.3 C27,7.3 27.1,7.2 27.2,7.2 C27.3,7.2 27.3,7.2 27.4,7.1 C27.4,7.1 27.5,7.1 27.5,7.1 C27.5,7.1 27.5,7.2 27.6,7.1 C27.6,7.1 27.7,7.1 27.8,7.1 C28,7.2 28,7.2 27.9,7.2 C27.8,7.2 27.8,7.3 28.1,7.3 C28.7,7.4 28.8,7.5 29.2,7.7 C29.4,7.8 29.6,8 29.7,8 C29.7,8.1 29.7,8.1 29.6,8.2 C29.5,8.3 29.4,8.3 29,8.2 C28.6,8.1 28.4,8.1 28.6,8.2 C28.7,8.2 28.7,8.3 28.7,8.4 C28.7,8.5 28.7,8.6 28.8,8.6 C28.9,8.7 29.1,8.9 29.3,8.9 C29.4,8.9 29.4,8.8 29.2,8.7 C29.1,8.7 29.1,8.6 29.1,8.6 C29.1,8.5 29.1,8.5 29.2,8.6 C29.3,8.6 29.4,8.7 29.5,8.7 C29.7,8.7 29.7,8.7 29.6,8.6 C29.5,8.4 29.5,8.4 29.7,8.3 C29.8,8.2 29.9,8.2 30,8.3 C30.1,8.4 30.2,8.2 30.1,8.1 C30.1,8.1 30,8 30,7.9 C30,7.8 30,7.8 29.9,7.7 C29.8,7.6 30.1,7.6 30.2,7.7 C30.3,7.8 30.3,7.9 30.2,7.9 C30.1,7.9 30.1,8 30.2,8.1 C30.3,8.2 30.5,8.2 30.5,8.1 C30.5,8 30.8,7.9 31,7.8 C31.1,7.8 31.1,7.8 31.2,7.7 C31.2,7.7 31.3,7.7 31.3,7.7 C31.3,7.8 31.4,7.8 31.7,7.7 C32,7.7 32,7.7 32.1,7.7 C32.1,7.8 32.2,7.8 32.2,7.7 C32.3,7.6 32.2,7.5 32,7.4 C31.9,7.3 31.9,7.3 32,7.3 C32.1,7.3 32.2,7.4 32.4,7.4 C32.6,7.5 32.8,7.6 33,7.7 C33.4,7.9 33.5,7.9 33.1,7.6 C33,7.5 32.9,7.4 32.9,7.4 C32.9,7.4 32.9,7.4 32.9,7.3 C32.9,7.2 32.8,7.2 32.8,7.2 C32.8,7.2 32.8,7.2 32.8,7.1 C32.8,7.1 32.9,7 32.9,6.9 C32.9,6.8 32.9,6.8 33,6.8 C33,6.8 33.1,6.8 33,6.7 C33,6.7 33,6.6 33.1,6.6 C33.2,6.6 33.2,6.6 33.1,6.7 C33.1,6.7 33.1,6.8 33.2,6.8 C33.3,6.8 33.4,6.9 33.4,7.1 C33.4,7.2 33.4,7.2 33.5,7.3 C33.5,7.3 33.6,7.5 33.6,7.6 C33.6,7.8 33.7,7.9 33.8,7.9 C33.9,8 33.9,8 33.8,8.2 C33.8,8.4 33.7,8.4 33.6,8.3 C33.5,8.3 33.5,8.3 33.5,8.3 C33.6,8.4 33.9,8.4 34,8.3 C34.1,8.2 34.1,8.1 34,8 C34,7.9 34,7.8 34,7.8 C34.1,7.8 34.3,7.9 34.3,8 C34.3,8.1 34.3,8.1 34.3,8 C34.3,7.8 34.1,7.7 33.9,7.7 C33.7,7.7 33.6,7.6 33.6,7.4 C33.6,7.3 33.6,7.3 33.5,7.2 C33.4,7.1 33.4,7.1 33.4,7 C33.4,7 33.5,6.9 33.5,6.9 C33.5,6.9 33.5,6.9 33.5,6.8 C33.5,6.7 33.5,6.7 33.5,6.7 C33.5,6.7 33.6,6.8 33.6,6.9 C33.6,7 33.7,7.1 33.8,7.1 C33.9,7.1 33.9,7.1 33.8,7.1 C33.6,7 33.6,6.9 33.8,7 C33.9,7.1 33.9,7.1 33.8,6.9 C33.7,6.8 33.7,6.8 33.8,6.8 C33.9,6.8 34,6.9 34.1,7 C34.2,7.1 34.3,7.1 34.3,7.1 C34.3,7.1 34.3,7.1 34.2,7 C34.1,6.9 33.9,6.7 33.9,6.6 C33.9,6.6 34.1,6.6 34.3,6.6 C34.5,6.6 34.6,6.6 34.6,6.6 C34.6,6.6 34.5,6.6 34.5,6.5 C34.5,6.5 34.5,6.5 34.5,6.4 C34.6,6.3 35.2,6.2 35.6,6.3 C35.7,6.3 35.8,6.3 35.8,6.3 C35.8,6.3 35.8,6.3 35.8,6.3 C35.8,6.3 35.9,6.3 35.9,6.3 C35.9,6.3 35.9,6.2 36,6.2 C36.1,6.1 36.4,6.2 36.4,6.4 C36.4,6.5 36.6,6.6 36.8,6.6 C36.9,6.6 37,6.7 37.1,6.7 C37.2,6.7 37.2,6.8 37.3,6.8 C37.4,6.8 37.4,6.8 37.4,6.9 C37.5,7 37.5,7.1 37.4,7.1 C37.4,7.1 37.3,7.2 37.2,7.2 C37.1,7.2 37.1,7.3 37,7.3 C36.9,7.3 37,7.4 37.1,7.4 C37.2,7.4 37.2,7.4 37.2,7.3 C37.2,7.2 37.2,7.2 37.3,7.3 C37.4,7.4 37.6,7.4 37.8,7.5 C37.9,7.6 38.1,7.6 38.2,7.7 C38.3,7.8 38.4,7.8 38.5,7.9 C38.6,7.9 38.7,7.9 38.6,7.9 C38.6,7.8 38.6,7.8 38.8,7.9 C38.9,8 39,8 39.1,8.1 C39.2,8.2 39.2,8.2 39.2,8.2 C39.2,8.2 39.2,8.2 39.2,8.3 C39.3,8.3 39.4,8.5 39.3,8.4 C39.3,8.4 39.3,8.4 39.4,8.5 C39.6,8.7 39.7,8.8 39.7,8.7 C39.7,8.6 39.7,8.6 39.9,8.7 C40,8.7 40.1,8.8 40.2,8.8 C40.2,8.8 40.3,8.8 40.3,8.8 C40.3,8.8 40.3,8.8 40.4,8.8 C40.5,8.9 40.5,8.8 40.4,8.7 C40.3,8.6 40.3,8.6 40.4,8.6 C40.4,8.6 40.5,8.6 40.5,8.6 C40.5,8.6 40.6,8.7 40.7,8.7 C40.8,8.8 40.9,8.8 40.9,8.9 C40.9,9 40.9,9 40.9,8.9 C40.9,8.8 41.1,8.9 41.2,9.1 C41.3,9.3 41.2,9.2 41.5,9.3 C41.6,9.4 41.7,9.4 41.8,9.5 C41.8,9.6 41.9,9.6 41.9,9.7 C41.9,9.7 41.9,9.7 41.9,9.7 C41.9,9.8 41.9,9.8 42,9.8 C42,9.8 42,9.8 42,9.8 C42,9.8 42,9.8 42.1,9.9 C42.1,9.9 42.1,9.9 42.1,9.9 C42.1,10 42.2,10 42.2,10 C42.7,10.7 43.3,11.4 43.7,12.1 C43.7,12.1 43.7,12.1 43.6,12.1 C43.5,12 43.5,12 43.5,12.1 C43.5,12.1 43.5,12.1 43.5,12.1 C43.5,12.1 43.5,12.1 43.5,12.1 C43.5,12.1 43.5,12.1 43.4,12.1 C43.4,12.1 43.4,12.1 43.4,12.3 C43.4,12.5 43.5,12.6 43.5,12.6 C43.5,12.6 43.5,12.6 43.6,12.7 C43.6,12.8 43.7,12.8 43.7,12.8 C43.7,12.8 43.7,12.8 43.8,12.9 C43.8,12.9 43.8,13 43.8,12.9 C43.7,12.8 43.7,13 43.8,13.1 C43.8,13.2 43.9,13.2 43.8,13.2 C43.8,13.2 43.8,13.3 43.8,13.3 C43.8,13.4 43.8,13.4 43.8,13.4 C43.8,13.4 43.8,13.5 43.8,13.5 C43.9,13.6 43.9,13.9 43.8,13.7 C43.8,13.7 43.7,13.5 43.6,13.3 C43.5,13.1 43.4,12.9 43.3,12.8 C43.2,12.5 43.1,12.3 43.2,12.2 C43.2,12.2 43.2,12.1 43.2,12 C43.2,11.9 43.2,11.8 43.2,11.8 C43.2,11.6 43.1,11.4 43.1,11.3 C43.1,11.3 43.1,11.3 43.1,11.4 C43.1,11.5 43.1,11.5 43.1,11.5 C43.1,11.5 43.1,11.5 43.1,11.6 C43.1,11.7 43,11.7 43,11.5 C43,11.4 42.9,11.4 42.9,11.4 C42.8,11.4 42.8,11.4 42.8,11.6 C42.8,11.8 42.8,11.8 42.9,11.9 C43,12 43,12 42.9,12 C42.9,12 42.8,12 42.8,12 C42.7,12 42.7,12 42.7,11.9 C42.7,11.8 42.5,11.7 42.5,11.7 C42.5,11.7 42.4,11.7 42.3,11.7 C42,11.6 42.2,11.7 42.2,12.2 C42.2,12.3 42.2,12.4 42.1,12.5 C42.1,12.5 42.1,12.6 42.1,12.6 C42.1,12.6 42.2,12.6 42.2,12.6 C42.3,12.6 42.3,12.7 42.3,12.8 C42.3,12.9 42.3,12.9 42.3,12.8 C42.3,12.7 42.3,12.8 42.4,12.9 C42.4,13 42.5,13 42.5,12.9 C42.5,12.7 42.9,13.2 42.9,13.5 C42.9,13.6 43,13.7 43,13.9 C43.1,14.2 43.1,14.3 43.1,14.8 C43.1,15.5 43.1,15.6 43,15.5 C42.9,15.4 42.9,15.4 42.9,15.6 C42.9,15.7 42.9,15.8 42.9,15.9 C42.9,16 42.9,16.2 42.9,16.3 C42.9,16.3 43,16.5 43.1,16.6 C43.3,16.9 43.3,17 43.4,17.2 C43.5,17.4 43.5,17.5 43.4,17.5 C43.3,17.5 43.3,17.6 43.3,17.5 C43.2,17.3 43.1,16.9 43.1,16.9 C43.1,16.8 43,16.7 43,16.7 C42.9,16.7 42.9,16.6 42.8,16.4 C42.8,16.3 42.8,16.2 42.7,16.2 C42.6,16.2 42.6,16.2 42.6,16.2 C42.5,16.3 42.5,16.2 42.5,16 C42.5,15.9 42.5,15.9 42.4,15.8 C42.4,15.8 42.3,15.8 42.3,16 C42.3,16.1 42.2,16.2 42.2,16.2 C42.1,16.2 42.2,16.4 42.3,16.4 C42.3,16.4 42.4,16.5 42.4,16.5 C42.4,16.6 42.5,16.7 42.5,16.6 C42.5,16.5 42.6,16.5 42.6,16.6 C42.7,16.7 42.8,16.8 42.7,16.8 C42.6,16.8 42.6,17.2 42.6,17.3 C42.7,17.3 42.7,17.4 42.9,17.8 C43.1,18.1 43.2,18.3 43.1,18.4 C43.1,18.4 43.1,18.4 43.1,18.5 C43.1,18.5 43.1,18.5 43.2,18.5 C43.3,18.5 43.4,18.7 43.4,19.2 C43.4,19.3 43.4,19.4 43.4,19.5 C43.4,19.5 43.4,19.6 43.4,19.6 C43.4,19.7 43.4,19.9 43.3,20.1 C43.2,20.3 43.1,20.5 43,20.3 C43,20.2 43,20.3 43,20.3 C43,20.4 43,20.5 42.9,20.5 C42.8,20.6 42.8,20.8 42.9,20.9 C42.9,21 43,21 43,21.1 C43,21.3 43,21.3 42.9,21.3 C42.8,21.2 42.8,20.9 42.9,20.9 C42.9,20.9 42.9,20.9 42.9,20.8 C42.9,20.7 42.8,20.7 42.8,20.6 C42.7,20.4 42.6,20.4 42.5,20.7 C42.4,21 42.5,21.2 42.8,21.6 C43.1,22.1 43.2,22.2 43.3,22.6 C43.4,22.9 43.4,23 43.3,23.1 C43.3,23.2 43.2,23.3 43.2,23.3 C43.2,23.3 43.2,23.3 43.2,23.4 C43.2,23.5 43.2,23.7 43.1,23.8 C43.1,23.8 43.1,23.7 43,23.6 C43,23.5 42.9,23.4 42.9,23.4 C42.9,23.4 42.7,23.2 42.6,23.1 C42.5,23 42.4,22.8 42.4,22.8 C42.4,22.8 42.3,22.8 42.3,22.7 C42.2,22.5 42.2,22.7 42.2,23 C42.2,23.5 42.3,23.6 42.4,23.7 C42.5,23.8 42.5,23.9 42.5,24 C42.5,24.1 42.6,24.2 42.6,24.2 C42.8,24.3 43.1,24.6 43,24.9 C43,25 43,25.2 43,25.3 C43,25.5 43,25.5 43,25.5 C42.8,25.5 42.7,25 42.6,24.6 C42.6,24.4 42.3,23.9 42.2,23.9 C42.2,23.9 42.1,23.6 42.1,23.3 C42,22.9 41.9,22.6 41.9,22.5 C41.8,22.3 41.7,22.1 41.7,21.9 C41.5,22.8 41.5,22.7 41.5,22.6 Z M22.8,16.1 C22.8,16.1 22.8,16.1 22.8,16.1 C22.9,16 23,16.1 22.8,16.1 C22.8,16.2 22.8,16.2 22.8,16.1 Z M24.1,15.7 C24.2,15.7 24.3,15.7 24.3,16 C24.3,16.2 24.2,16.3 24,16.3 C24,16.3 24,16.2 24,16 C24,15.8 24,15.7 24.1,15.7 Z M24.1,15.3 C24.2,15.2 24.2,15.3 24.2,15.4 C24.2,15.5 24.2,15.6 24.1,15.6 C24.1,15.5 24.1,15.3 24.1,15.3 Z M24.9,16.6 C24.9,16.6 25,16.5 25.2,16.5 C25.5,16.5 25.5,16.5 25.5,16.7 C25.5,16.8 25.5,16.9 25.4,16.9 C25.4,16.9 25.3,16.8 25.1,16.8 C25,16.7 24.9,16.6 24.9,16.6 Z M27.8,17.4 C27.9,17.4 28,17.4 27.9,17.4 C27.8,17.4 27.7,17.4 27.7,17.4 C27.6,17.4 27.7,17.4 27.8,17.4 Z M29.3,17.5 C29.3,17.5 29.4,17.4 29.5,17.4 C29.6,17.4 29.6,17.4 29.6,17.5 C29.6,17.5 29.5,17.6 29.4,17.6 C29.4,17.6 29.3,17.6 29.3,17.5 Z M24.7,11.7 C24.6,11.7 24.6,11.7 24.7,11.7 C24.6,11.6 24.6,11.6 24.7,11.6 C24.7,11.6 24.7,11.6 24.7,11.7 Z M24.9,11.5 C25.1,11.4 25.1,11.4 25.1,11.5 C25.1,11.6 25,11.7 24.9,11.7 C24.7,11.6 24.8,11.5 24.9,11.5 Z M26.1,11 C26.1,11 26.1,10.9 26.1,11 C26.2,10.9 26.2,11 26.2,11 C26.2,11 26.2,11.1 26.1,11 C26.1,11.1 26.1,11 26.1,11 Z M26.8,10.8 C26.8,10.8 26.8,10.7 26.9,10.7 C27,10.7 27,10.7 26.9,10.8 C26.8,10.9 26.8,10.9 26.8,10.8 Z M43.6,13 C43.6,13.1 43.6,13.1 43.6,13 C43.6,13.1 43.6,13.1 43.6,13 C43.6,13 43.6,13 43.6,13 C43.6,13 43.6,13 43.6,13 Z M42.4,13.5 C42.3,13.5 42.3,13.4 42.4,13.5 C42.3,13.4 42.3,13.4 42.3,13.4 C42.3,13.3 42.3,13.4 42.4,13.5 C42.4,13.4 42.4,13.5 42.4,13.5 Z M43.6,34 C43.6,34 43.6,34 43.6,34 C43.7,33.9 43.7,34 43.6,34 C43.7,34 43.6,34 43.6,34 Z M43.9,35 C43.9,35.1 43.8,35.1 43.8,35.1 C43.8,35.1 43.8,35.1 43.7,35.2 C43.6,35.3 43.6,35.3 43.7,35 C43.7,34.9 43.7,34.9 43.8,34.8 C43.9,34.8 43.9,34.8 43.9,34.7 C44.1,34.7 44.1,34.7 43.9,35 Z M45,34.5 C44.9,34.6 44.9,34.7 44.9,34.8 C44.9,34.8 44.9,34.9 44.9,34.8 C44.9,34.7 44.8,34.9 44.7,35.1 C44.6,35.4 44.5,35.5 44.4,35.5 C44.4,35.5 44.3,35.5 44.4,35.4 C44.4,35.3 44.6,35.1 44.8,34.8 C44.9,34.7 45,34.5 45.1,34.3 C45.2,34.1 45.2,34 45.2,34.1 C45.2,34.1 45.2,34.1 45.2,34.1 C45.2,34.1 45.2,34.2 45,34.5 Z M45.6,33.6 C45.5,33.6 45.5,33.6 45.6,33.6 C45.5,33.8 45.3,34.2 45.3,34.2 C45.3,34.2 45.3,34.1 45.4,34.1 C45.5,34 45.5,34 45.4,33.9 C45.4,33.9 45.4,33.8 45.4,33.7 C45.4,33.7 45.4,33.6 45.5,33.5 C45.6,33.3 45.6,33.1 45.6,33 C45.6,33 45.6,32.9 45.6,32.9 C45.6,32.8 45.6,32.8 45.7,32.8 C45.7,32.8 45.7,32.9 45.7,33 C45.7,33.1 45.7,33.2 45.7,33.1 C45.7,33.1 45.7,33.1 45.7,33.2 C45.7,33.3 45.7,33.3 45.7,33.2 C45.7,33.2 45.8,33.1 45.7,33.2 C45.7,33.4 45.6,33.6 45.6,33.6 Z M45.7,29.1 C45.7,29.1 45.7,29.2 45.7,29.3 C45.7,29.4 45.7,29.5 45.6,29.6 C45.6,29.7 45.6,29.8 45.6,29.9 C45.6,30 45.6,30.1 45.6,30.2 C45.6,30.3 45.6,30.4 45.6,30.5 C45.6,30.6 45.6,30.7 45.6,30.7 C45.6,30.7 45.6,30.8 45.6,30.8 C45.6,30.8 45.6,31 45.6,31.1 C45.6,31.2 45.6,31.4 45.5,31.5 C45.5,31.6 45.4,31.7 45.4,31.8 C45.4,31.9 45.3,32 45.3,32.2 C45.3,32.3 45.2,32.5 45.1,32.6 C45.1,32.7 45,32.8 45,32.9 C44.9,33.1 44.5,33.8 44.5,34 C44.5,34.1 44.4,34.1 44.4,34.2 C44.4,34.2 44.3,34.3 44.2,34.4 C44.1,34.6 44.1,34.6 44.1,34.5 C44.1,34.4 44.1,34.4 44,34.5 C43.9,34.6 43.9,34.6 43.9,34.6 C43.9,34.6 43.9,34.6 43.8,34.6 C43.7,34.6 43.7,34.5 43.8,34.4 C43.9,34.2 43.9,34.1 43.8,34.2 C43.8,34.2 43.8,34.2 43.8,34.1 C43.9,33.9 43.9,33.9 43.8,34 C43.7,34.2 43.7,34.1 43.8,33.9 C44,33.6 43.9,33.6 43.8,33.9 C43.6,34.2 43.6,34.2 43.6,34.1 C43.7,34 43.6,33.6 43.6,33.6 C43.6,33.6 43.5,33.6 43.5,33.6 C43.5,33.6 43.4,33.6 43.3,33.7 C42.9,34 42.7,34.1 42.6,34.3 C42.6,34.4 42.5,34.4 42.4,34.5 C42.3,34.5 42.2,34.6 42.1,34.7 C41.9,34.9 41.9,34.9 41.8,34.8 C41.7,34.7 41.7,34.7 41.8,34.6 C41.9,34.5 42,34.1 42,34.1 C42,34.1 42,34 42,33.9 C42,33.8 42.1,33.6 42.1,33.4 C42.1,33.1 42.2,33.1 42.2,33 C42.2,32.9 42.3,32.9 42.3,32.8 C42.3,32.6 42.5,32 42.6,32.1 C42.6,32.1 42.6,32.1 42.7,32 C42.8,31.9 42.7,31.9 42.8,31.9 C42.8,31.9 42.9,31.8 42.9,31.8 C42.9,31.7 43.1,31.6 43.2,31.5 C43.3,31.4 43.5,31.3 43.5,31.3 C43.6,31.2 43.7,31 43.7,30.8 C43.8,30.6 43.9,30.5 43.8,30.6 C43.8,30.6 43.8,30.7 43.8,30.7 C43.8,30.7 43.8,30.6 43.8,30.6 C43.8,30.5 43.8,30.5 43.9,30.5 C43.9,30.5 44,30.5 44,30.4 C44,30.3 44.2,30.1 44.2,30.1 C44.2,30.1 44.2,30.1 44.2,30 C44.2,29.9 44.3,29.8 44.4,29.9 C44.4,29.9 44.4,30 44.4,30 C44.4,30.1 44.4,30.1 44.5,30 C44.6,30 44.6,29.9 44.6,29.9 C44.6,29.9 44.6,29.8 44.7,29.7 C44.7,29.6 44.8,29.6 44.8,29.5 C44.8,29.4 44.9,29.3 45,29.3 C45.1,29.3 45.1,29.1 45.1,29.1 C45.1,29 45.1,29 45.2,29.1 C45.2,29.1 45.3,29.2 45.3,29.2 C45.4,29.2 45.4,29.2 45.4,29.3 C45.4,29.4 45.4,29.4 45.3,29.4 C45.3,29.4 45.2,29.5 45.2,29.6 C45.1,29.8 45.1,29.8 45.2,30 C45.2,30.1 45.3,30.1 45.3,30.2 C45.3,30.3 45.4,30.2 45.4,30.1 C45.4,30 45.5,29.8 45.6,29.6 C45.7,29.2 45.8,28.9 45.8,28.8 C45.9,28.7 45.9,28.7 45.8,29.1 C45.7,29 45.7,29.1 45.7,29.1 Z M45.2,29.2 C45.2,29.2 45.2,29.2 45.2,29.2 C45.2,29.3 45.2,29.3 45.2,29.3 C45.1,29.3 45.1,29.3 45.2,29.2 C45.2,29.2 45.2,29.2 45.2,29.2 Z M45.3,27.7 C45.3,27.6 45.3,27.6 45.3,27.5 C45.3,27.4 45.3,27.4 45.3,27.4 C45.5,27.4 45.4,27.5 45.3,27.7 C45.3,27.8 45.3,27.8 45.3,27.7 Z M46.1,27.9 C46.1,27.7 46,27.6 46,27.7 C46,27.7 45.9,27.8 45.9,27.9 C45.9,28.1 45.7,28.1 45.7,28 C45.7,27.9 45.7,27.9 45.6,28 C45.5,28.1 45.5,28.1 45.5,28 C45.5,27.9 45.5,27.9 45.6,27.9 C45.6,27.9 45.6,27.9 45.6,27.8 C45.6,27.7 45.6,27.4 45.6,27.4 C45.6,27.4 45.5,27.4 45.5,27.3 C45.4,27.2 45.4,27.2 45.4,27.2 C45.4,27.2 45.4,27.3 45.4,27.3 C45.4,27.3 45.4,27.3 45.4,27.2 C45.4,27.2 45.4,27.1 45.4,27.1 C45.4,27.1 45.4,27 45.5,27 C45.6,27 45.6,27 45.5,27 C45.5,27 45.4,27 45.4,26.9 C45.4,26.9 45.4,26.8 45.3,26.8 C45.3,26.8 45.3,26.8 45.3,26.8 C45.3,26.8 45.3,26.7 45.4,26.7 C45.5,26.6 45.6,26.6 45.6,26.7 C45.6,26.7 45.6,26.8 45.6,26.9 C45.6,27 45.6,27.1 45.6,27.2 C45.6,27.3 45.6,27.3 45.8,27.1 C45.9,26.9 45.9,26.9 46,26.9 C46,26.9 46.1,27 46.2,27.1 C46.4,27.2 46.4,27.3 46.4,27.5 C46.4,27.5 46.4,27.6 46.4,27.6 C46.4,27.7 46.4,27.7 46.4,27.7 C46.3,27.8 46.3,27.9 46.4,28 C46.4,28.1 46.4,28.1 46.4,28.2 C46.4,28.2 46.4,28.2 46.4,28.2 C46.4,28.2 46.4,28.2 46.4,28.3 C46.4,28.4 46.4,28.5 46.4,28.4 C46.4,28.4 46.3,28.4 46.3,28.4 C46.2,28.1 46.2,28 46.1,27.9 Z M46.3,30.3 C46.3,30.3 46.3,30.2 46.3,30.1 C46.3,29.9 46.3,29.9 46.3,30.1 C46.3,30.2 46.3,30.3 46.3,30.3 Z M46.5,27.2 C46.5,27.2 46.4,27.2 46.5,27.2 C46.4,27.2 46.4,27.2 46.4,27.1 C46.4,27.1 46.5,27.1 46.5,27 C46.6,27 46.6,26.9 46.6,26.8 C46.6,26.7 46.7,26.6 46.7,26.7 C46.6,26.9 46.5,27.2 46.5,27.2 Z M46.7,26.8 C46.7,26.8 46.7,26.8 46.7,26.8 C46.7,26.7 46.7,26.7 46.7,26.7 C46.7,26.7 46.7,26.8 46.7,26.8 C46.7,26.8 46.7,26.8 46.7,26.8 Z M46.8,27.2 C46.8,27.3 46.8,27.1 46.8,27 C46.8,27 46.8,27 46.8,27 C46.8,27.1 46.8,27.2 46.8,27.2 Z M46.9,27.7 C46.9,27.7 46.9,27.7 46.9,27.7 C46.9,27.6 46.9,27.6 46.9,27.7 C46.9,27.6 46.9,27.7 46.9,27.7 C46.9,27.7 46.9,27.7 46.9,27.7 Z M47,27.6 C47,27.6 47,27.6 47,27.6 C47,27.6 47,27.6 47,27.6 C47,27.4 47,27.5 47,27.6 Z M47.1,29 C47.1,29 47.1,29 47.1,29 C47.2,29 47.2,29 47.1,29 C47.1,29.1 47.1,29.1 47.1,29 Z M47.2,28.8 C47.2,28.8 47.2,28.8 47.2,28.8 C47.2,28.7 47.2,28.7 47.2,28.7 C47.3,28.7 47.3,28.7 47.2,28.8 C47.2,28.8 47.2,28.8 47.2,28.8 Z"></path>
                        <path d="M39,13.7 C39,13.8 39.1,13.8 39,13.7 C39,13.7 39,13.6 39,13.7 C39,13.5 39,13.6 39,13.7 Z"></path>
                        <path d="M39.5,9.1 C39.5,9.1 39.5,9.1 39.5,9.1 C39.5,9 39.4,9 39.4,9 C39.4,9 39.4,9 39.5,9.1 C39.5,9.1 39.5,9.1 39.5,9.1 Z"></path>
                        <path d="M38.1,13.7 C38.1,13.7 38.1,13.7 38.1,13.7 C38.1,13.8 38.1,13.9 38.2,13.9 C38.2,13.8 38.2,13.8 38.1,13.7 C38.2,13.7 38.1,13.7 38.1,13.7 Z"></path>
                        <path d="M29.9,27.3 C29.9,27.3 29.8,27.3 29.8,27.4 C29.8,27.5 29.7,27.6 29.7,27.6 C29.7,27.6 29.8,27.6 29.8,27.5 C29.9,27.4 29.9,27.3 29.9,27.3 Z"></path>
                        <path d="M31.3,16.5 C31.3,16.5 31.3,16.5 31.3,16.5 C31.3,16.6 31.4,16.6 31.3,16.5 C31.4,16.5 31.4,16.5 31.3,16.5 Z"></path>
                        <path d="M32.4,10.9 C32.4,10.9 32.4,10.8 32.4,10.9 C32.4,10.8 32.4,10.9 32.4,10.9 C32.4,11 32.4,11 32.4,10.9 C32.4,11 32.5,11 32.4,10.9 Z"></path>
                        <path d="M29.4,16.4 C29.4,16.5 29.5,16.5 29.4,16.4 C29.5,16.5 29.5,16.5 29.4,16.4 C29.5,16.4 29.5,16.4 29.4,16.4 C29.4,16.4 29.4,16.4 29.4,16.4 Z"></path>
                        <path d="M33.2,16.3 C33.2,16.3 33.2,16.2 33.2,16.3 C33.1,16.2 33,16.2 33,16.1 C33,16 33,16 33.1,16 C33.2,16 33.2,16 33.3,16 C33.3,16 33.3,15.9 33.2,15.8 C33.1,15.6 33,15.6 33,15.7 C32.9,15.8 32.9,15.8 32.9,15.6 C32.9,15.5 32.9,15.4 32.8,15.4 C32.8,15.4 32.6,15.3 32.5,15.1 C32.4,14.9 32.3,14.8 32.3,14.8 C32.3,14.8 32.4,14.8 32.4,14.7 C32.4,14.6 32.5,14.6 32.5,14.6 C32.6,14.6 32.6,14.5 32.6,14.3 C32.5,14.1 32.2,14 32,14.3 C31.7,14.6 31.6,14.7 31.8,15 C31.9,15.1 31.9,15.2 31.9,15.2 C31.9,15.2 32,15.4 32.2,15.6 C32.3,15.7 32.4,15.8 32.5,15.9 C32.5,16 32.5,16.1 32.5,16.2 C32.5,16.3 32.5,16.5 32.5,16.6 C32.6,16.9 33.2,17.1 33.4,17 C33.5,16.9 33.4,16.4 33.3,16.4 C33.2,16.4 33.2,16.4 33.2,16.3 Z"></path>
                        <path d="M31.8,16.7 C31.8,16.7 31.8,16.8 31.8,16.8 C31.8,16.9 31.9,16.9 31.9,16.9 C31.9,16.9 31.9,16.9 31.9,16.8 C31.8,16.7 31.8,16.7 31.8,16.7 Z"></path>
                        <path d="M28.3,15.7 C28.2,15.7 28.1,15.7 28.1,15.8 C28.1,15.8 28.2,15.9 28.3,15.9 C28.4,15.9 28.5,15.9 28.5,15.8 C28.5,15.8 28.5,15.7 28.3,15.7 Z"></path>
                        <path d="M31.6,12 C31.6,11.9 31.6,11.9 31.6,11.8 C31.6,11.8 31.6,11.8 31.6,12 C31.5,12.1 31.6,12.4 31.7,12.3 C31.7,12.3 31.7,12.2 31.7,12.2 C31.5,12.1 31.5,12.1 31.6,12 Z"></path>
                        <path d="M29.3,29.2 C29.3,29.4 29.3,29.6 29.4,29.7 C29.5,29.8 29.5,29.9 29.5,30 C29.5,30.1 29.6,30.2 29.6,30.2 C29.7,30.2 29.7,30.1 29.5,29.8 C29.4,29.7 29.4,29.4 29.4,29.3 C29.4,28.9 29.3,28.8 29.3,29.2 Z"></path>
                        <path d="M28.5,10.4 C28.7,10.4 28.7,10.2 28.5,10.1 C28.3,10 28.3,10 28.3,10.1 C28.1,10.1 28.3,10.4 28.5,10.4 Z"></path>
                        <path d="M34.1,14.7 C34,14.6 34,14.6 34,14.5 C34,14.4 34,14.4 33.9,14.4 C33.7,14.4 33.5,14.7 33.6,14.9 C33.6,15.1 33.7,15.1 33.9,15.2 C34,15.2 34.1,15.2 34.1,15.2 C34.1,15.2 34.1,15.1 34.1,15 C34.2,14.9 34.2,14.8 34.1,14.7 Z"></path>
                        <path d="M29.2,10.1 C29.2,10.1 29.2,10 29.1,9.8 C29,9.7 29,9.6 29,9.7 C29,9.8 29,9.8 28.9,9.8 C28.8,9.7 28.8,9.9 29,10 C29.1,10.1 29.1,10.2 29.2,10.1 Z"></path>
                        <path d="M29.7,10.9 C29.7,10.9 29.6,10.8 29.6,10.7 C29.5,10.6 29.5,10.6 29.5,10.7 C29.5,10.9 29.7,11.1 29.7,10.9 Z"></path>
                        <path d="M30.1,14.8 C30,14.7 29.8,14.6 29.8,14.6 C29.8,14.6 29.8,14.6 29.9,14.6 C30,14.6 30,14.4 30,14.3 C30,14.3 30,14.2 30.1,14.2 C30.1,14.2 30.2,14.1 30.2,14.1 C30.1,14.1 30.1,14.1 30.1,14.1 C30,14.1 29.9,14.1 29.9,14.2 C29.8,14.2 29.7,14.3 29.6,14.4 C29.4,14.5 29.4,14.5 29.5,14.6 C29.6,14.7 29.7,14.7 29.7,14.7 C29.8,14.7 29.8,14.7 29.8,14.8 C29.8,14.8 29.7,14.9 29.7,14.9 C29.7,14.9 29.5,14.9 29.5,15 C29.4,15.1 29.4,15 29.3,14.9 C29.2,14.7 29.2,14.7 29.3,14.7 C29.4,14.6 29.4,14.6 29.2,14.6 C29.1,14.6 29,14.6 29,14.5 C29,14.3 28.6,14.5 28.6,14.8 C28.6,14.9 28.6,14.9 28.5,14.9 C28.4,14.8 28.2,15.6 28.3,15.7 C28.4,15.9 28.9,16 29.2,15.8 C29.4,15.7 29.6,15.7 29.9,15.9 C30.2,16.1 30.8,16.1 30.9,16 C31.1,15.4 30.4,15 30.1,14.8 Z"></path>
                    </g>
                </g>
            </g>
            <g id="Group" transform="translate(98.000000, 0.000000)">
                <polygon id="Shape" points="0.4 102.2 0.4 30.4 22.4 30.4 22.4 102.2"></polygon>
                <path d="M11.2,0.3 C17,0.3 21.6,4.9 21.6,10.6 C21.6,16.3 17,20.9 11.2,20.9 C5.7,20.9 1,16.3 1,10.6 C1.1,5 5.7,0.3 11.2,0.3 Z" id="Shape"></path>
            </g>
        </g>
    </g>
</svg>
