<?xml version="1.0" encoding="utf-8"?>
<!-- Generator: Adobe Illustrator 24.1.3, SVG Export Plug-In . SVG Version: 6.00 Build 0)  -->
<svg version="1.1" id="Layer_1" xmlns="http://www.w3.org/2000/svg" xmlns:xlink="http://www.w3.org/1999/xlink" x="0px" y="0px"
	 viewBox="0 0 626 130" style="enable-background:new 0 0 626 130;" xml:space="preserve">
<style type="text/css">
	.st0{fill:#FFFFFF;}
</style>
<desc>Created with Sketch.</desc>
<g id="Page-1">
	<g id="DSC_Logo_2019_Wordmark_Void_RGB">
		<g id="Group">
			<path id="Shape" class="st0" d="M145.4,78.5c0.3,4.9,3.8,9.7,11.3,9.7c5.6,0,8.4-3,8.4-6.2c0-2.6-1.7-4.8-7.1-5.9l-8.2-1.9
				c-15.3-3.3-21.4-12-21.4-22.1c0-13.1,11.6-23.8,27.6-23.8c20.8,0,28,13,28.7,21.4L166.5,53c-0.6-4.8-3.6-8.8-10.3-8.8
				c-4.2,0-7.8,2.5-7.8,6.2c0,3,2.5,4.8,5.6,5.3l9.5,1.9c14.9,3,22.1,12,22.1,22.5c0,12.3-9.4,24.3-28.6,24.3
				c-22.5,0-29.7-14.6-30.3-22.5L145.4,78.5z"/>
			<path id="Shape_1_" class="st0" d="M212.5,66.4c0,11.4,7.7,17.8,16.8,17.8c8.5,0,13.3-5.3,14.9-10.7l19.4,5.9
				c-3.2,12.6-15,25-34.2,25c-21.4,0-38.6-15.7-38.6-38c0-22.4,16.8-38.1,37.8-38.1c19.8,0,31.3,12.1,34.5,25l-19.6,5.9
				c-1.6-5.5-5.9-10.7-14.4-10.7C219.9,48.5,212.5,54.9,212.5,66.4z"/>
			<path id="Shape_2_" class="st0" d="M343.3,66.3c0,22.2-16.6,38.1-38.1,38.1c-21.4,0-38.1-15.9-38.1-38.1s16.8-38,38.1-38
				C326.7,28.3,343.3,44,343.3,66.3z M321.4,66.3c0-12.1-7.8-17.8-16.2-17.8c-8.2,0-16.2,5.6-16.2,17.8c0,12,7.9,17.9,16.2,17.9
				C313.6,84.2,321.4,78.4,321.4,66.3z"/>
			<polygon id="Shape_3_" class="st0" points="391.3,102.2 369.2,102.2 339.7,30.5 363.5,30.5 380.1,75.1 395.4,30.5 418.6,30.5 			
				"/>
			<path id="Shape_4_" class="st0" d="M486.3,81.6c-3.5,12.4-14.9,22.8-33.1,22.8c-19.8,0-37.4-14.2-37.4-38.3
				c0-23.1,17.2-37.8,35.8-37.8c22.2,0,36,13.7,36,36.8c0,3-0.3,6.4-0.4,6.8h-50c0.4,8.1,7.8,13.9,16.3,13.9
				c7.9,0,12.4-3.8,14.4-9.4L486.3,81.6z M466.4,57.7c-0.3-5.5-4-12.1-14.4-12.1c-9.2,0-13.9,6.8-14.3,12.1H466.4z"/>
			<path id="Shape_5_" class="st0" d="M541.5,52.1c-2.5-0.6-4.8-0.7-6.9-0.7c-8.8,0-16.8,5.2-16.8,19.5v31.3h-22V30.4H517v9.7
				c3.8-8.1,12.9-10.4,18.6-10.4c2.2,0,4.3,0.3,5.8,0.7L541.5,52.1L541.5,52.1z"/>
			<polygon id="Shape_6_" class="st0" points="558.4,129.8 574.7,92.5 544.5,30.5 569,30.5 586.5,68.9 602.4,30.5 625.7,30.5 
				581.5,129.8 			"/>
			<g id="Shape_7_">
				<path class="st0" d="M67.4,51.3c0-16.9-13.6-30.5-30.4-30.5H6.5V0.4H37c29.5,0,52.8,21.6,52.8,50.9S66.5,102.2,37,102.2H6.5
					V81.8H37C53.8,81.9,67.4,68.2,67.4,51.3z"/>
				<g transform="translate(0.000000, 26.000000)">
					<path class="st0" d="M6.2,12.3C6.1,12.4,6.1,12.4,6.2,12.3C6.3,12.3,6.3,12.3,6.2,12.3L6.2,12.3z"/>
					<path class="st0" d="M21.4,7.4C21.4,7.3,21.4,7.3,21.4,7.4c-0.1,0.1-0.1,0.1-0.1,0.1C21.4,7.5,21.4,7.4,21.4,7.4z"/>
					<path class="st0" d="M23.1,5c0-0.1-0.1,0-0.1,0C22.9,5,22.9,5.1,23.1,5C23,5,23.1,5,23.1,5z"/>
					<path class="st0" d="M11.3,40.6C11.2,40.7,11.2,40.7,11.3,40.6C11.4,40.6,11.4,40.6,11.3,40.6C11.4,40.6,11.4,40.6,11.3,40.6z"
						/>
					<path class="st0" d="M18.7,47.2C18.8,47.2,18.8,47.2,18.7,47.2C18.8,47.2,18.8,47.2,18.7,47.2L18.7,47.2z"/>
					<path class="st0" d="M17.7,8.2C17.8,8.2,17.7,8.2,17.7,8.2C17.6,8.2,17.6,8.2,17.7,8.2L17.7,8.2z"/>
					<path class="st0" d="M42.6,23.8L42.6,23.8C42.5,23.6,42.5,23.6,42.6,23.8L42.6,23.8z"/>
					<path class="st0" d="M6.9,23.9c-0.1,0-0.1,0,0,0.1C6.9,24.1,7,24.1,6.9,23.9C7,23.9,6.9,23.9,6.9,23.9z"/>
					<path class="st0" d="M7,16C6.9,16,6.9,16,7,16c-0.1,0.1-0.1,0.1-0.1,0.1l0,0L7,16z"/>
					<path class="st0" d="M8.8,24.6c-0.1,0.1-0.1,0.3,0,0.3c0,0,0.1,0,0.1-0.1C8.9,24.7,8.9,24.5,8.8,24.6z"/>
					<path class="st0" d="M11.1,40.3C11.1,40.4,11.1,40.4,11.1,40.3C11.1,40.4,11.2,40.4,11.1,40.3L11.1,40.3L11.1,40.3z"/>
					<path class="st0" d="M9.5,32c0,0.1,0.1,0.1,0.1,0.1c0.1,0,0.1,0,0-0.1C9.5,31.9,9.4,31.9,9.5,32z"/>
					<path class="st0" d="M10.7,39.4C10.6,39.4,10.6,39.4,10.7,39.4c0,0.1,0.1,0.1,0.1,0.1C10.7,39.5,10.7,39.5,10.7,39.4L10.7,39.4
						z"/>
					<path class="st0" d="M16.7,6C16.7,6.1,16.7,6.1,16.7,6C16.7,6.1,16.8,6.1,16.7,6C16.8,6,16.8,6,16.7,6L16.7,6z"/>
					<path class="st0" d="M25.1,23.9c-0.2-0.1-0.2-0.1-0.1,0.1c0.1,0.1,0.3,0.2,0.3,0C25.3,24,25.2,23.9,25.1,23.9z"/>
					<path class="st0" d="M21.3,25.5C21.2,25.5,21.2,25.5,21.3,25.5c-0.1,0-0.1,0.1,0,0.1c0.1,0.1,0.1,0.1,0.1,0
						C21.4,25.6,21.3,25.6,21.3,25.5z"/>
					<path class="st0" d="M31.2,24.4C31.3,24.3,31.3,24.3,31.2,24.4c0.1-0.1,0-0.1,0-0.1C31.2,24.2,31.1,24.3,31.2,24.4L31.2,24.4z"
						/>
					<path class="st0" d="M21.2,25.9C21.2,26,21.2,26,21.2,25.9C21.3,26,21.3,25.9,21.2,25.9C21.4,25.9,21.3,25.8,21.2,25.9
						C21.3,25.8,21.3,25.9,21.2,25.9z"/>
					<path class="st0" d="M31.1,26.7c0,0.1,0,0.3,0.1,0.3c0.1,0.1,0.1,0.1,0,0C31.2,27,31.2,26.8,31.1,26.7c0-0.1,0-0.1,0-0.2
						C31.1,26.6,31.1,26.6,31.1,26.7z"/>
					<path class="st0" d="M42.9,15.7L42.9,15.7C42.8,15.7,42.8,15.7,42.9,15.7C42.8,15.8,42.9,15.8,42.9,15.7
						C42.9,15.8,42.9,15.8,42.9,15.7z"/>
					<path class="st0" d="M30.5,30.7c0-0.1,0-0.2,0-0.2s-0.1,0.1-0.1,0.4c0,0.2,0,0.4,0,0.5s0,0.2,0.1,0.2c0.1,0.1,0.1,0.1,0.1-0.3
						c0-0.2,0-0.4,0-0.4C30.5,30.8,30.5,30.8,30.5,30.7z"/>
					<path class="st0" d="M25.1,10.6c0,0.1-0.1,0.1-0.1,0.1c0,0.1,0.2,0,0.2-0.1C25.3,10.5,25.2,10.5,25.1,10.6z"/>
					<path class="st0" d="M30.1,28.6c0.1,0,0.2,0,0.3,0s0.1,0,0.1-0.1c0,0,0-0.2,0.1-0.3c0.1-0.2,0.1-0.3,0-0.3
						c-0.2-0.1-0.4,0-0.5,0.1c0,0-0.1,0.2-0.1,0.4C29.9,28.6,29.9,28.6,30.1,28.6z"/>
					<path class="st0" d="M34.3,8L34.3,8c0,0.1,0.1,0.1,0.1,0.1S34.4,8.1,34.3,8C34.4,8,34.3,8,34.3,8z"/>
					<path class="st0" d="M28,9.7C28,9.8,28,9.8,28,9.7c-0.1,0-0.1,0-0.2,0.1c0,0.1,0,0.1-0.1,0.1h-0.1c0,0,0,0.1,0.1,0.1
						C27.9,10,28,9.9,28,9.7L28,9.7L28,9.7z"/>
					<path class="st0" d="M27.5,8L27.5,8c0.1,0.1,0.1,0,0.1,0C27.6,7.9,27.6,7.9,27.5,8C27.5,7.9,27.5,7.9,27.5,8z"/>
					<path class="st0" d="M27.5,9.6C27.5,9.7,27.5,9.7,27.5,9.6C27.6,9.7,27.6,9.6,27.5,9.6C27.6,9.6,27.6,9.6,27.5,9.6L27.5,9.6z"
						/>
					<path class="st0" d="M27.3,9.9V10C27.4,10,27.4,10,27.3,9.9C27.4,9.8,27.3,9.8,27.3,9.9z"/>
					<path class="st0" d="M15.8,8.1c0-0.1-0.1,0-0.1,0l0,0C15.8,8.1,15.8,8.1,15.8,8.1z"/>
					<path class="st0" d="M13.1,13.2c0,0-0.1,0-0.1,0.1c-0.1,0.1-0.1,0.1,0.1,0C13.1,13.2,13.1,13.2,13.1,13.2z"/>
					<path class="st0" d="M15.4,9.2C15.5,9.2,15.5,9.2,15.4,9.2c0-0.1-0.1-0.1-0.2,0c0,0.1,0,0.1,0,0.1C15.3,9.2,15.4,9.2,15.4,9.2z
						"/>
					<path class="st0" d="M15.1,7.8l0.1-0.1l0,0c-0.1,0-0.1,0-0.2,0l0,0c0,0,0,0.1-0.1,0.1c-0.1,0.1,0,0.1,0.1,0.1
						C15,7.9,15.1,7.9,15.1,7.8z"/>
					<path class="st0" d="M13.8,8.4L13.8,8.4C13.9,8.3,13.9,8.3,13.8,8.4C13.8,8.3,13.8,8.3,13.8,8.4z"/>
					<path class="st0" d="M13.8,13.1C13.8,13,13.8,13,13.8,13.1c-0.1,0-0.1,0.1-0.1,0.1C13.7,13.3,13.7,13.2,13.8,13.1z"/>
					<path class="st0" d="M14.7,12.5C14.7,12.5,14.8,12.4,14.7,12.5c0.1-0.1,0-0.2,0-0.2S14.7,12.3,14.7,12.5
						C14.7,12.4,14.7,12.5,14.7,12.5z"/>
					<path class="st0" d="M15.3,5.8C15.2,5.8,15.2,5.8,15.3,5.8C15.3,5.9,15.3,5.9,15.3,5.8L15.3,5.8z"/>
					<path class="st0" d="M15.8,5.5c0.1-0.1,0-0.1-0.1,0c0,0-0.1,0-0.1,0.1h0.1C15.7,5.6,15.7,5.6,15.8,5.5z"/>
					<path class="st0" d="M13,9.7c0-0.1-0.1-0.1-0.1-0.1v0.1C12.9,9.7,12.9,9.7,13,9.7L13,9.7z"/>
					<path class="st0" d="M14.9,6C14.9,5.9,14.9,5.9,14.9,6c-0.1,0.1-0.1,0.1-0.2,0.1c-0.1,0-0.1,0,0,0C14.9,6.1,15,6,14.9,6z"/>
					<path class="st0" d="M13.3,36.7c0-0.1,0-0.1,0-0.1C13.3,36.5,13.2,36.7,13.3,36.7C13.2,36.8,13.2,36.8,13.3,36.7z"/>
					<path class="st0" d="M15.4,12.5C15.5,12.4,15.5,12.4,15.4,12.5c-0.2,0.1-0.2,0.1-0.1,0.1C15.3,12.5,15.4,12.5,15.4,12.5z"/>
					<path class="st0" d="M10.4,14.8c-0.1,0.1-0.5,0.9-0.5,1c0,0.1,0.2-0.1,0.3-0.4c0.1-0.3,0.2-0.3,0.3-0.5
						c0.2-0.2,0.2-0.2,0.3-0.1c0,0.1,0,0.2-0.1,0.2c-0.1,0.1-0.1,0.1-0.1,0.2c0,0,0,0,0.1,0c0.1-0.1,0.1-0.1,0.1,0.1
						c0,0.1,0,0.1,0,0.2c0.1-0.1,0.1-0.2,0.2-0.3c0.1-0.1,0.2-0.3,0.2-0.3s0,0,0.1,0.1c0,0.2,0.2,0,0.1-0.2c0-0.2-0.1-0.2-0.1-0.1
						c0,0,0,0.1-0.1,0.1c0,0,0,0,0-0.1C11.2,14.5,10.6,14.6,10.4,14.8z"/>
					<path class="st0" d="M11.4,15.4c0.1,0,0.3,0,0.3-0.1c0.1-0.1,0.1-0.2,0-0.2c0,0-0.1,0.1-0.2,0.1C11.2,15.2,11.1,15.4,11.4,15.4
						z"/>
					<path class="st0" d="M9.6,10.1c-0.1,0.1-0.1,0.1-0.2,0.2c-0.1,0.1-0.1,0.1-0.2,0.2c0,0,0,0,0.1,0l0.1-0.1l0.1-0.1
						c0,0,0,0,0,0.1c0,0.1,0,0,0.1,0c0.1-0.1,0.2-0.1,0.2-0.2C10,10.1,10,10,9.9,10.1c-0.1,0-0.1,0-0.1,0c0.1-0.1,0-0.1-0.3,0.1
						c-0.1,0.1-0.1,0.1-0.2,0.1c0.1,0,0.1,0,0.2-0.1C9.5,10.2,9.5,10.2,9.6,10.1z"/>
					<path class="st0" d="M11.3,10.4c0-0.1,0-0.1-0.1,0v0.1C11.2,10.6,11.2,10.5,11.3,10.4z"/>
					<path class="st0" d="M10.9,13.7C11,13.6,10.9,13.5,10.9,13.7C10.8,13.6,10.8,13.7,10.9,13.7L10.9,13.7z"/>
					<path class="st0" d="M10.1,12C10,12.1,10,12.1,10,12.1s0.3-0.3,0.3-0.4c0.1-0.1,0-0.1-0.1,0.1c-0.1,0.1-0.1,0.1-0.1,0.1
						C10.2,11.9,10.2,12,10.1,12z"/>
					<path class="st0" d="M10.4,14.4c0.1-0.1,0.1-0.1,0.1,0c-0.1,0.1,0,0.2,0.2,0.2c0.1,0,0.1,0,0.2,0c0-0.1,0-0.1,0.1-0.2
						c0-0.1,0-0.2,0-0.2s-0.1,0-0.1-0.1c0-0.2-0.1-0.2-0.5,0.1c-0.2,0.1-0.4,0.3-0.4,0.3S10.3,14.5,10.4,14.4z"/>
					<path class="st0" d="M12.3,9.2C12.3,9.2,12.3,9.3,12.3,9.2c-0.1,0.1-0.1,0.1-0.1,0.1S12.3,9.3,12.3,9.2L12.3,9.2z"/>
					<path class="st0" d="M9.8,13.6c0,0,0.1-0.1,0.1-0.2c0-0.1,0-0.1,0-0.1C9.8,13.4,9.7,13.6,9.8,13.6z"/>
					<path class="st0" d="M9.9,11.5c-0.1,0-0.2,0.1-0.2,0.1c-0.1,0.1-0.1,0.1,0.1,0C10,11.5,10,11.4,9.9,11.5z"/>
					<path class="st0" d="M9.9,12.8C9.8,12.9,9.8,13,9.8,13v0.1c0,0-0.1,0.1,0,0.1c0,0,0,0,0.1-0.1C9.9,13,10,12.8,9.9,12.8
						C10.1,12.6,10.1,12.6,9.9,12.8z"/>
					<path class="st0" d="M10.7,15.7c-0.2,0.1-0.2,0.2-0.1,0.2c0.1,0,0.6-0.2,0.6-0.3C11.3,15.4,11.2,15.4,10.7,15.7z"/>
					<path class="st0" d="M10.3,12.6C10.3,12.7,10.2,12.7,10.3,12.6c-0.1,0.1-0.2,0.1-0.2,0.1c-0.1,0.1-0.1,0.3,0,0.4
						c0,0,0,0.2,0,0.3c-0.1,0.1-0.1,0.2,0,0.1c0.1-0.1,0.1-0.3,0.2-0.5C10.2,12.8,10.3,12.6,10.3,12.6z"/>
					<path class="st0" d="M10,13.9l0.1-0.1c0-0.1,0-0.1,0-0.1L10,13.9C9.9,13.9,9.9,13.9,10,13.9z"/>
					<path class="st0" d="M9.7,10.9C9.7,10.8,9.7,10.8,9.7,10.9c-0.1,0.1-0.1,0.2-0.3,0.3c-0.1,0.1-0.1,0.1-0.2,0.1
						c0.1,0,0.1,0,0.1,0c0.1,0,0.2-0.1,0.2-0.1s0.2-0.1,0.2-0.2c0.1-0.1,0.2-0.1,0.2-0.1s0.1,0,0.1-0.1c0.1-0.1,0-0.1-0.2,0.1H9.7z"
						/>
					<path class="st0" d="M36.8,15.6C36.7,15.6,36.7,15.6,36.8,15.6c-0.1,0.2-0.1,0.2,0,0.2c0.1,0,0.1,0,0.1-0.1
						C36.9,15.7,36.9,15.6,36.8,15.6z"/>
					<path class="st0" d="M36.6,14.6C36.5,14.6,36.5,14.6,36.6,14.6C36.6,14.6,36.7,14.6,36.6,14.6C36.7,14.6,36.7,14.6,36.6,14.6z"
						/>
					<path class="st0" d="M37,7.7C36.9,7.7,36.9,7.8,37,7.7c0,0.1,0,0.1,0.1,0.1C37,7.9,37,7.9,37,7.7C37,7.8,37,7.8,37,7.7z"/>
					<path class="st0" d="M36.1,14.5c-0.1,0.1-0.2,0.1-0.1,0.3c0,0.2,0.1,0.1,0.1,0C36.1,14.7,36.2,14.6,36.1,14.5
						c0.1,0.1,0.2,0.1,0.1,0v-0.1C36.3,14.5,36.2,14.5,36.1,14.5z"/>
					<path class="st0" d="M34.9,8.1C34.9,8.2,34.9,8.2,34.9,8.1L35,8.3c0,0.1,0,0.1,0.1,0.1c0,0,0-0.1,0-0.2C35,8,34.9,8,34.9,8.1z"
						/>
					<path class="st0" d="M36.8,7.9c-0.1-0.1-0.2-0.2-0.2-0.1C36.6,7.8,36.7,7.9,36.8,7.9C36.8,8,36.8,8,36.8,7.9z"/>
					<path class="st0" d="M37.1,14.1C37.1,14.1,37.1,14.2,37.1,14.1c0.1,0.1,0.1,0.2,0.2,0.2c0,0,0,0,0-0.1
						C37.2,14.2,37.2,14.1,37.1,14.1z"/>
					<path class="st0" d="M39.6,12.6c0,0,0,0.1,0,0.2c0,0.3-0.1,0.6-0.2,0.7c-0.1,0-0.1,0,0,0.1c0,0,0.1,0,0.1-0.1s0.1-0.1,0.1-0.1
						c0.1,0,0.1-0.3,0-0.5C39.6,12.7,39.6,12.6,39.6,12.6z"/>
					<path class="st0" d="M40.2,17.3C40.2,17.3,40.2,17.4,40.2,17.3c0,0.1,0,0.2,0.1,0.2C40.3,17.5,40.3,17.4,40.2,17.3
						C40.3,17.4,40.3,17.3,40.2,17.3z"/>
					<path class="st0" d="M24.7,0.9C11.2,0.9,0.3,11.8,0.3,25.3s10.9,24.4,24.4,24.4s24.4-10.9,24.4-24.4S38.2,0.9,24.7,0.9z
						 M46.9,27.4L46.9,27.4C46.9,27.5,46.9,27.4,46.9,27.4S46.9,27.3,46.9,27.4z M45.4,26.4L45.4,26.4
						C45.4,26.4,45.3,26.4,45.4,26.4C45.3,26.4,45.3,26.4,45.4,26.4z M45.2,26.1C45.2,26,45.2,26,45.2,26.1S45.2,26.2,45.2,26.1
						C45.2,26.1,45.2,26,45.2,26.1c0.1,0-0.1,0.5-0.1,0.5S45.1,26.1,45.2,26.1z M45.1,27c0.1,0,0.1,0,0.1,0.1s0,0.1-0.1,0.1H45l0,0
						C45,27.1,45.1,27,45.1,27z M45.1,27.9V28c0,0,0,0.1,0,0C45.1,28,45.1,28,45.1,27.9L45.1,27.9z M44.8,24.5c0-0.1,0-0.2,0-0.2
						s0.2,0.5,0.2,0.6l0,0c0,0,0,0,0,0.1s0,0.1,0,0.1c-0.1,0-0.1-0.1-0.2-0.2c0-0.1-0.1-0.2-0.1-0.1l-0.1,0.1l0,0c0-0.1,0-0.2,0-0.2
						c0-0.1,0.1-0.1,0.1,0C44.7,24.7,44.8,24.7,44.8,24.5z M44.9,27.2C44.9,27.3,44.8,27.2,44.9,27.2c0-0.1,0-0.1,0-0.1
						S44.9,27.1,44.9,27.2L44.9,27.2z M44.9,28.8L44.9,28.8c0,0.1,0,0.1-0.1,0.1C44.8,28.9,44.8,28.9,44.9,28.8L44.9,28.8z
						 M44.9,26.3c-0.1,0.1-0.1,0.1-0.2,0.1c-0.1,0-0.2,0-0.2,0.1s0,0.2,0,0.2c0,0.1,0,0.1,0.1,0c0-0.1,0.1-0.1,0.1-0.1s0,0-0.1,0.2
						c0,0.1-0.1,0.1-0.1,0.2s0,0.1,0,0.2c0,0.1,0,0.2,0,0.3s0,0.3-0.1,0.3c0,0,0-0.1,0-0.2c0.1-0.1,0-0.1,0,0s0,0,0-0.1s0-0.2,0-0.2
						v-0.1c0,0-0.1,0.1-0.1,0.3s-0.1,0.3-0.1,0.3s0,0,0-0.2c0-0.1,0.1-0.2,0-0.3c0-0.1,0.1-0.5,0.1-0.6c0,0,0-0.1,0.1-0.2
						c0-0.1,0.2-0.4,0.2-0.4C44.7,26.3,44.8,26.3,44.9,26.3C45,26.1,45,26.1,44.9,26.3z M44.7,28.3C44.6,28.3,44.6,28.4,44.7,28.3
						c-0.1,0.1-0.2,0.2-0.2,0.3c-0.2,0.2-0.2,0.2-0.1,0.1C44.3,28.6,44.4,28.4,44.7,28.3C44.7,28.2,44.7,28.2,44.7,28.3z M43.9,28.7
						C44,28.7,44,28.7,43.9,28.7C44,28.9,43.9,28.9,43.9,28.7C43.9,28.7,43.9,28.7,43.9,28.7L43.9,28.7z M43.9,28.6
						c0,0-0.1,0-0.1,0.1c0,0-0.1,0,0,0C43.7,28.6,43.8,28.5,43.9,28.6C43.8,28.5,43.8,28.5,43.9,28.6c0-0.1,0-0.1,0-0.1V28.6z
						 M43.8,27.5C43.8,27.6,43.7,27.6,43.8,27.5c-0.1-0.1-0.1-0.1-0.2,0c-0.1,0-0.1,0-0.1,0s0,0-0.1,0c-0.1,0-0.1,0-0.1-0.2
						c0-0.1,0-0.2,0-0.2s0-0.4,0.1-0.6c0-0.1,0.1-0.1,0.1-0.1c0.1,0,0.1,0,0.1-0.1c0-0.1,0.1-0.2,0.1-0.2c0.1-0.1,0.2-0.2,0.2-0.3
						c0-0.1,0-0.2,0.1-0.2c0,0,0-0.1,0.1-0.2c0-0.3,0.1-0.3,0.2-0.1c0,0.1,0.1,0.1,0.1,0.2c0.1,0.1,0.1,0.1,0,0.1v0.1
						c0,0.1,0,0.1,0,0.1s0,0,0,0.1V26c0,0,0,0.1,0,0.2c0,0.1,0,0.2,0,0.2c0.1,0,0,0.1-0.1,0.1c0,0-0.1,0.1-0.1,0.2
						c0,0.1-0.1,0.2-0.1,0.3S44,27.2,44,27.2S43.9,27.4,43.8,27.5z M43.7,28.6L43.7,28.6C43.6,28.6,43.6,28.6,43.7,28.6
						C43.6,28.5,43.7,28.5,43.7,28.6C43.7,28.5,43.7,28.5,43.7,28.6z M42.1,27.2L42.1,27.2L42.1,27.2C42.1,27.3,42.1,27.3,42.1,27.2
						L42.1,27.2z M42,26.8C42,26.8,42,26.7,42,26.8C42,26.7,42,26.7,42,26.8C42.1,26.6,42.1,26.7,42,26.8
						C42.1,26.7,42.1,26.8,42,26.8z M42.1,26.2c-0.1-0.2-0.3-0.5-0.3-0.5s0-0.1,0.1,0H42c0,0,0.3,0.2,0.3,0.4c0,0.2,0.1,0.3,0.2,0.3
						s0.1,0,0.1,0.1s0.1,0.2,0.1,0.2c0,0.1,0,0.2,0,0.2s0,0.2,0.1,0.4c0.1,0.2,0.1,0.3,0,0.6c-0.1,0.2-0.1,0.3-0.2,0.3
						c-0.1,0-0.3-0.5-0.3-0.8c0-0.1,0-0.3,0-0.4s0-0.2,0-0.3C42.2,26.6,42.2,26.4,42.1,26.2z M42.9,28.3c0,0.1,0.1,0.1,0.2,0
						c0.2,0,0.2,0,0.2,0c0,0.1,0.1,0.1,0.1,0.1c0.1,0,0.1,0,0.1,0.1s-0.4,0.1-0.5,0.1s-0.2,0-0.2,0c-0.2,0-0.3-0.1-0.2-0.2
						C42.7,28.2,42.9,28.2,42.9,28.3z M42.9,27.2C43,27.1,43,27.1,42.9,27.2c0.1,0.2,0.1,0.3,0.1,0.3C42.9,27.5,42.8,27.3,42.9,27.2
						z M43,27.5C43,27.4,43.1,27.4,43,27.5C43.1,27.4,43.1,27.4,43,27.5C43.1,27.5,43,27.5,43,27.5z M43.4,28.3L43.4,28.3
						C43.5,28.2,43.5,28.3,43.4,28.3C43.5,28.3,43.4,28.3,43.4,28.3z M43.4,15.2c0,0,0.1,0.1,0.1,0.2c0.1,0.1,0.1,0.2,0.1,0.1h-0.1
						c0,0.1,0,0-0.2-0.6c-0.1-0.4-0.3-0.7-0.3-0.7c-0.1-0.1-0.2-0.4-0.2-0.4s0,0,0-0.1c0-0.1,0-0.1,0.1,0.1C43,13.9,43,14,43,14.1
						c0,0.1,0.2,0.5,0.3,0.7c0.1,0.1,0.1,0.2,0,0.2C43.3,14.9,43.4,15,43.4,15.2z M43.6,21.2C43.6,21.3,43.6,21.3,43.6,21.2
						C43.6,21.3,43.5,21.3,43.6,21.2c-0.1-0.1-0.1-0.2-0.2-0.4c0-0.1,0-0.2,0-0.2l0,0C43.5,20.6,43.6,21.1,43.6,21.2z M44.2,24.1
						c0,0,0,0.1,0,0.3c-0.1,0.3-0.1,0.3,0,0C44.2,24.2,44.2,24.1,44.2,24.1z M44.1,23.5C44.1,23.5,44.2,23.4,44.1,23.5
						c0.1,0,0.1,0.1,0.1,0.2c0,0.1,0,0.1,0,0C44.2,23.6,44.2,23.5,44.1,23.5z M44.6,24.4c0-0.1,0-0.1,0-0.2c0-0.2,0-0.2,0-0.1
						s0,0.1-0.1-0.1c0-0.1,0-0.2,0-0.1c0.1,0,0.1,0.2,0.2,0.4C44.6,24.4,44.6,24.5,44.6,24.4z M44.6,24.2
						C44.6,24.1,44.6,24.1,44.6,24.2c0.1,0,0.1,0.1,0.1,0.1l0,0C44.7,24.2,44.6,24.2,44.6,24.2C44.6,24.3,44.6,24.2,44.6,24.2z
						 M44.1,28.4c0.1,0,0.1,0.1,0,0.1c-0.1,0-0.1,0-0.1,0C44,28.4,44.1,28.4,44.1,28.4z M44.6,23.7c0.1,0,0.1,0.1,0.1,0.4
						c0,0.1,0,0.1,0,0s-0.1-0.1,0-0.2v-0.1C44.5,23.7,44.5,23.7,44.6,23.7z M44.5,23.8C44.5,23.8,44.5,23.7,44.5,23.8
						C44.4,23.7,44.5,23.7,44.5,23.8L44.5,23.8z M44.4,23.5C44.3,23.4,44.3,23.4,44.4,23.5c-0.1,0-0.1,0-0.1,0s-0.1-0.1-0.1,0
						c0,0-0.1,0-0.1-0.1s0-0.1,0-0.1s0,0-0.1-0.2c-0.1-0.1-0.1-0.2-0.1-0.2s0-0.1,0-0.2c0-0.1,0-0.2-0.1-0.3c0-0.1,0-0.1,0.1-0.1
						c0.1,0,0.1,0,0.1,0.2c0,0.1,0.1,0.3,0,0.3c0,0.2,0.1,0.5,0.2,0.5C44.4,23.3,44.4,23.4,44.4,23.5C44.5,23.6,44.5,23.6,44.4,23.5
						z M44.3,18c0.1,0.2,0.1,0.3,0,0.2c0-0.1,0-0.1,0,0c0,0,0,0.1-0.1,0.1c-0.1,0-0.1,0-0.1,0.1c0,0.2,0,0.2-0.1,0
						c0-0.1-0.1-0.1-0.1-0.1s0,0,0,0.1c0.1,0.1,0.1,0.3,0,0.2c0,0,0,0,0,0.1c0,0.1,0,0.1-0.1,0c0-0.1,0-0.1,0-0.2s0-0.1,0-0.1
						s0,0,0,0.1l0,0c-0.1-0.1-0.1,0,0,0.1c0.1,0.1,0.1,0.1,0.1,0.3c0,0.3,0,0.3-0.1,0c0-0.2-0.1-0.2-0.1-0.2c0,0.1-0.1-0.1-0.1-0.2
						c0-0.3,0.1-0.4,0.2-0.4c0.1,0,0.1,0,0.1-0.4c0-0.1,0-0.1,0,0c0,0.1,0,0.1,0.1,0c0-0.1,0-0.4-0.1-0.6c-0.1-0.3-0.1-0.4-0.1-0.3
						l0,0c0-0.1,0-0.1,0-0.1s0.1,0.1,0.1,0.3c0.1,0.2,0.1,0.3,0.2,0.4C44.2,17.6,44.2,17.6,44.3,18z M44,16.4
						C44,16.4,44,16.5,44,16.4c0,0.2,0,0.2-0.1,0.1c-0.1-0.1-0.2-0.1-0.2,0c0,0,0,0,0,0.1c0,0,0,0,0,0.1c0,0.1,0,0.1-0.1,0
						c-0.1-0.1-0.1-0.3-0.1-0.3s0-0.1-0.1-0.4c-0.1-0.2,0-0.2,0.1,0.1c0.1,0.1,0.1,0.2,0.2,0.2C44,16.2,44.1,16.4,44,16.4z
						 M43.9,14.8C43.9,14.8,43.9,14.7,43.9,14.8C43.9,14.7,43.9,14.8,43.9,14.8L43.9,14.8z M40.8,9.1C40.8,9.1,40.9,9.1,40.8,9.1
						c0.1,0.1,0.1,0.1,0.2,0.2C40.9,9.2,40.9,9.1,40.8,9.1C40.8,9,40.8,9,40.8,9.1z M40,8.6C40.1,8.6,40.1,8.6,40,8.6
						c0.1,0,0.2,0.1,0.3,0.2C40.5,8.9,40.6,9,40.6,9c0,0.1-0.4-0.1-0.5-0.2C40,8.7,40,8.6,40,8.6z M40.8,9.3
						C40.9,9.4,40.8,9.3,40.8,9.3c-0.2,0-0.2-0.1-0.2-0.1S40.7,9.2,40.8,9.3z M37.9,8.2C38,8.2,37.9,8.3,37.9,8.2L37.9,8.2
						C37.8,8.1,37.8,8.1,37.9,8.2C37.9,8.1,37.9,8.2,37.9,8.2z M36.2,6.8c0-0.1,0.2-0.1,0.2,0l0.1,0.1c0.1,0,0.2,0.1,0.2,0.1
						s-0.1,0-0.3,0c-0.1,0-0.2,0-0.3,0C36.1,6.9,36.1,6.9,36.2,6.8z M35.1,6.3C35.1,6.3,35.1,6.2,35.1,6.3c0-0.1,0-0.1,0-0.1
						c0.1-0.1,0.5,0,0.5,0.2c0,0,0.1,0.1,0.2,0.1c0.1,0,0.1,0.1,0.2,0.2c0.1,0.1,0,0.1-0.2,0c-0.3-0.1-0.4-0.2-0.4-0.3
						c0,0-0.1-0.1-0.2-0.1C35.1,6.3,35.1,6.3,35.1,6.3z M31.8,5.4h0.1c0.1,0,0.1,0,0,0.1C31.9,5.4,31.8,5.4,31.8,5.4
						C31.7,5.4,31.7,5.4,31.8,5.4z M31.4,5.3c0.1,0,0.2,0,0.2,0.1s-0.3,0-0.3,0C31.3,5.3,31.3,5.3,31.4,5.3z M31.1,5.3
						C31.2,5.3,31.2,5.4,31.1,5.3C31.1,5.5,31.1,5.5,31.1,5.3C31,5.4,31.1,5.3,31.1,5.3z M30.9,7.4L31,7.3c0-0.1,0.1-0.1,0.1-0.1
						s0,0,0-0.1s0-0.1,0-0.1s0.1-0.1,0.1-0.2c0.1-0.2,0.5-0.3,0.8-0.3c0.1,0,0.2,0,0.3,0c0.1-0.1,0.4,0,0.4,0.1c0,0-0.1,0.1-0.2,0.1
						c-0.5,0.1-0.7,0.1-0.7,0.2c0,0,0,0.1-0.1,0.1c-0.1,0-0.4,0.4-0.4,0.6c0,0.1,0.1,0.2,0.2,0.3s0.1,0.1,0.2,0.2
						c-0.1,0-0.1,0-0.2,0S31.2,8,31.2,8S31.1,7.9,31,7.9C30.9,7.5,30.8,7.4,30.9,7.4z M30.8,8.1c0,0.1-0.1,0.2-0.2,0.1V8.1
						C30.6,8,30.8,8,30.8,8.1z M30.1,5.2c0.1,0,0.1,0,0.2,0C30.2,5.2,30.2,5.2,30.1,5.2c-0.2,0.1-0.2,0.1-0.2,0
						C29.9,5.2,30,5.1,30.1,5.2z M25.5,4.6c0.2,0,0.3,0,0.3,0c0-0.1,0.5,0,0.6,0.1c0,0.1-0.4,0.2-0.5,0.2c0,0-0.2-0.1-0.3-0.1
						C25.1,4.7,25.1,4.6,25.5,4.6z M24.8,4.8C24.9,4.8,24.9,4.8,24.8,4.8c0.1,0,0.1-0.1,0.1-0.1c0-0.1,0.2-0.1,0.2,0
						c0,0,0.1,0.1,0.1,0h0.1c0,0,0.1,0.1,0.2,0.1s0.2,0.1,0.4,0.2c0.1,0.1,0.2,0.1,0.2,0.1s0,0,0,0.1c-0.1,0.1-0.4,0.1-0.4,0
						c0-0.1-0.1-0.2-0.2-0.2l-0.1,0.1c0,0.1-0.1,0.1-0.1,0.1l-0.1,0.1c0,0.1-0.1,0.1-0.2,0c-0.1-0.1-0.2-0.1-0.1-0.1s0,0,0-0.1
						C24.8,5,24.8,5,25,5s0.2-0.1,0.1-0.1s-0.1,0-0.2,0c-0.1,0.1-0.4,0-0.4-0.1V4.7c0,0-0.1,0-0.1-0.1C24.2,4.7,24.7,4.7,24.8,4.8z
						 M21,12.3c0,0,0-0.1,0-0.2c0-0.1,0.1-0.2,0.1-0.2c0.1,0,0.1-0.1,0.2-0.1c0.1-0.2,0.4-0.2,0.5,0c0,0.1,0,0.2-0.1,0.2
						c0,0-0.1,0.1-0.1,0.2c0,0.1-0.1,0.4-0.3,0.4c-0.1,0-0.2,0.1-0.3,0.1s-0.2,0-0.2,0c-0.1-0.1,0-0.1,0.1-0.2S21,12.3,21,12.3z
						 M21.7,10.9C21.7,10.8,21.7,10.8,21.7,10.9C21.8,10.8,21.8,10.8,21.7,10.9C21.7,10.9,21.7,11,21.7,10.9
						C21.6,11,21.6,10.9,21.7,10.9z M21.7,13c0.1-0.1,0.2-0.2,0.3-0.2s0.1,0,0-0.1c-0.1,0-0.2,0-0.2,0l0,0l0.1-0.1
						c0.1,0,0.1-0.1,0.1-0.2c0-0.1,0-0.1,0.1-0.1s0.1-0.1,0.2-0.1c0-0.1,0-0.1,0-0.1V12c0-0.1,0-0.1-0.1-0.1c-0.1,0-0.2,0-0.1-0.2
						s0-0.3-0.1-0.1c0,0.1,0,0,0-0.1s0-0.2,0-0.1c-0.1,0,0,0,0.1-0.2c0.1-0.1,0.1-0.3,0.2-0.3c0.1,0,0.1-0.1,0.2-0.1s0.1,0,0,0.1
						c-0.1,0.2-0.1,0.2,0.1,0.1c0.2,0,0.2,0.1,0,0.3c-0.1,0.1-0.1,0.1,0,0.2c0.1,0,0.1,0.1,0.1,0.2c0,0.1,0,0.2,0.1,0.2
						c0,0,0.1,0.1,0.1,0.2c0,0.1,0.1,0.2,0.1,0.2c0.1,0,0.2,0.2,0,0.3c-0.1,0.1-0.1,0.1-0.1,0.2v0.1c0,0-0.1,0-0.2,0
						c-0.1,0-0.3,0.1-0.5,0.1c-0.2,0-0.3,0.1-0.4,0.1C21.6,13.1,21.6,13.1,21.7,13z M22.9,9.3c-0.2,0-0.3-0.1-0.3-0.1
						c0.1-0.1,0.1-0.2,0-0.2s-0.1,0,0-0.1c0.1-0.1,0.1-0.1-0.1-0.1s-0.1-0.1,0.1-0.2c0.1,0,0.1,0,0.2,0.1c0,0.1,0.1,0.1,0.1,0.1
						s0.2-0.1,0.4-0.1c0.2,0,0.3-0.1,0.3-0.1V8.5c0.1,0,0.4,0.3,0.4,0.4C24,9.2,23.3,9.4,22.9,9.3z M19.5,4.2c0.1,0,0.1,0,0.1,0
						c0,0.1-0.3,0.1-0.3,0C19.4,4.2,19.5,4.2,19.5,4.2z M13.7,6.2l0.1-0.1L13.9,6c0,0,0.1-0.1,0.3-0.1c0.1,0,0.2,0,0.3,0.1h0.1h0.1
						h0.1c0-0.1,0.1-0.1,0.3-0.1c0.2,0,0.3-0.1,0.3-0.1s-0.1,0-0.4,0.1c-0.1,0-0.1,0-0.1,0c0.1-0.1,0.1-0.1,0-0.1c0,0-0.1,0-0.1,0.1
						c-0.1,0.1-0.2,0.1-0.3,0s0-0.1,0.2-0.2c0.1,0,0.2-0.1,0.3-0.1s0.2-0.1,0.2-0.1c0.1,0,0.1,0,0.2-0.1c0.1-0.1,0.3-0.1,0.4-0.2
						c0.5-0.2,1.4-0.5,2-0.3c0,0-0.2,0.1-0.3,0.1c-0.2,0-0.3,0.1-0.3,0.1S17.1,5.2,17,5.2s-0.3,0.1-0.4,0.2
						c-0.3,0.2-0.7,0.3-0.8,0.4c-0.1,0-0.2,0.1-0.1,0.1c0.1,0,0.1,0,0,0.1c-0.1,0.1-0.2,0.1-0.2,0.1c-0.1,0-0.1,0.1-0.2,0.1
						l-0.1,0.1c-0.1,0.1-0.1,0.1,0,0.1c0.1,0,0,0.1-0.7,0.2c-0.6,0.1-0.7,0.1-0.4,0c0.1-0.1,0.2-0.1,0.1-0.1c0,0,0,0,0.2-0.1
						c0.1,0,0.2,0,0.2,0s0,0,0-0.1c0,0,0,0-0.1,0s-0.2,0-0.1-0.1c0.1,0,0,0,0,0c-0.3,0.2-0.5,0.2-0.5,0.2c-0.1,0-0.1-0.1,0-0.2
						c0.1-0.1,0.1-0.1,0,0C13.7,6.3,13.7,6.3,13.7,6.2z M13.9,6.6c0-0.1,0.1-0.1,0.1,0C14.1,6.6,14,6.6,13.9,6.6
						C14,6.7,13.9,6.6,13.9,6.6z M14,6.7L14,6.7c0,0.1,0,0.1-0.1,0.1C13.9,6.8,13.9,6.8,14,6.7C13.9,6.7,13.9,6.7,14,6.7z M13.4,6.3
						L13.4,6.3C13.4,6.3,13.3,6.3,13.4,6.3C13.3,6.3,13.3,6.3,13.4,6.3z M13.3,6.5L13.3,6.5l0.2-0.1c0.1,0,0.1,0,0,0.1s0,0.1,0,0.1
						c0.1,0,0.1,0,0,0S13.4,6.6,13.3,6.5L13.3,6.5C13.3,6.7,13.3,6.6,13.3,6.5z M13.3,6.9C13.3,6.9,13.4,6.8,13.3,6.9
						c0.1,0,0.2,0,0.3,0c0.1,0,0.2,0,0.2,0.1s0.1,0.1,0.5,0c0.4-0.1,0.5-0.1,0.5-0.1s0,0,0,0.1c0,0-0.1,0-0.1,0.1
						c-0.1,0-0.4,0.1-0.7,0.2c-0.5,0.1-0.6,0.1-0.6,0V7.2c0,0,0,0,0-0.1L13.3,6.9C13.3,7,13.2,7,13.3,6.9z M13.3,7.1
						c0,0.1-0.2,0.3-0.3,0.2l0,0l0.1-0.1C13.3,7.1,13.3,7.1,13.3,7.1z M12.7,6.6c0,0,0.1-0.1,0.2-0.1c0.1,0,0.2,0,0.2,0
						c0.1,0,0.2,0.1,0.1,0.2c0,0.1-0.2,0.1-0.2,0c0,0-0.1,0-0.2,0C12.6,6.8,12.6,6.8,12.7,6.6C12.8,6.7,12.8,6.7,12.7,6.6
						C12.7,6.7,12.6,6.7,12.7,6.6z M12.5,7C12.5,7,12.5,7.1,12.5,7C12.4,7.1,12.4,7.1,12.5,7C12.4,7,12.5,6.9,12.5,7z M12.5,7.2
						c0,0.1,0.1,0.1,0.1,0c0-0.1,0.1-0.1,0.1,0c0,0.1,0.1,0,0.1,0s0-0.1,0.1-0.1c0.1,0,0.1,0,0.1,0.1c-0.1,0.2-0.2,0.3-0.3,0.3
						c-0.1,0-0.1,0,0-0.1C12.7,7.2,12.7,7.2,12.5,7.2c0,0.1-0.1,0.1-0.1,0.1l0,0c0,0-0.1,0,0,0C12.4,7.2,12.5,7.1,12.5,7.2z
						 M12.3,7.4L12.3,7.4C12.2,7.5,12.2,7.5,12.3,7.4C12.2,7.5,12.2,7.4,12.3,7.4z M12.3,7.9C12.4,7.8,12.4,7.8,12.3,7.9
						c-0.1,0,0-0.2,0.1-0.2c0.2-0.1,0.3-0.1,0.3-0.1s0,0-0.1,0.1c-0.1,0.1-0.1,0.1,0,0.1C12.7,7.8,12.6,8,12.3,7.9v0.2h-0.1
						C12.2,8,12.1,8,12.1,8s0,0,0-0.1h0.1C12.2,8,12.3,7.9,12.3,7.9z M11.9,7C12,7,12,6.9,12.1,6.9l0,0C12.2,6.9,12.1,7,11.9,7
						C11.8,7.1,11.8,7.1,11.9,7z M11.9,7.1C12,7.1,12,7.1,11.9,7.1C12,7.1,11.9,7.2,11.9,7.1c-0.2,0.1-0.2,0.1-0.2,0.1
						S11.8,7.1,11.9,7.1z M11.6,7.5C11.6,7.5,11.7,7.6,11.6,7.5c0.2,0,0.2,0,0.2-0.1s0-0.1,0.1-0.1C12,7.2,12,7.2,12,7.3
						c0,0.1,0,0.1,0.1,0c0.1,0,0.1,0,0.1,0c-0.1,0.1-0.2,0.2-0.4,0.2c-0.1,0-0.2,0.1-0.4,0.2c-0.2,0.1-0.3,0.1-0.3,0.1
						s0-0.1,0.1-0.1c0.1,0,0.1,0,0.1-0.1c0,0,0,0-0.1,0l-0.1,0.1H11c0,0,0,0-0.1,0C11,7.6,11,7.6,11.1,7.5c0.1-0.1,0.2-0.2,0.3-0.2
						C11.4,7.5,11.5,7.5,11.6,7.5z M10.9,7.8L11,7.7C11,7.7,11,7.7,10.9,7.8C10.8,7.9,10.8,7.9,10.9,7.8z M10.8,7.7
						c0.3-0.2,0.6-0.4,0.5-0.2C11.2,7.6,11,7.7,11,7.7s0,0-0.1,0.1C10.9,7.7,10.9,7.8,10.8,7.7C10.9,7.7,10.9,7.7,10.8,7.7
						c0,0.1-0.1,0.2-0.2,0.2h-0.1C10.7,7.8,10.7,7.7,10.8,7.7z M9.9,8.6c0.1-0.1,0.2-0.2,0.2-0.2s0-0.1,0.1-0.1
						c0.1,0,0.2-0.1,0.3-0.1s0.2,0,0.2-0.1c0.1,0,0.2,0,0.1,0.1c0,0,0,0.1,0,0c0.1,0,0.1,0,0.1,0c0,0.1,0,0.1,0.1,0
						c0.1-0.1,0.1-0.1,0.1,0c0,0.1,0,0,0.1,0c0.2-0.1,0.2-0.1,0.2,0c0,0.2,0,0.1,0.1-0.1c0-0.1,0.1-0.1,0.1-0.2l0.1-0.1
						c0.1-0.1,0.3-0.1,0.2-0.1l-0.1,0.1c-0.1,0.1-0.1,0.1-0.2,0.3c0,0.1,0,0.2,0,0.2s0.1,0,0.1,0.1c0,0,0,0,0.1,0.1h-0.1
						c-0.1,0-0.1,0-0.1,0.1c0.1,0.1-0.3,0.2-0.4,0.2c0,0-0.1,0-0.2,0c-0.2,0.1-0.7,0.3-0.7,0.2c0,0,0-0.1-0.1,0c-0.1,0-0.1,0-0.1,0
						s0,0,0-0.1c0.1,0,0.1-0.1,0.2-0.1c0.1,0,0.2-0.1,0.3-0.1c0.1,0,0.1,0,0.1-0.1c0,0-0.1,0-0.2,0c-0.2,0-0.3,0.1-0.3,0l0.1-0.1
						c0.1,0,0.1-0.1,0-0.1c0,0,0,0-0.1,0c0.1-0.1,0.1-0.1,0.2-0.1c0.1-0.1,0.1-0.1,0.2-0.1c0,0-0.1,0-0.1,0.1
						c-0.2,0.1-0.3,0.2-0.3,0.3C10.1,8.7,9.9,8.8,9.9,8.6c-0.1,0.1-0.1,0.1-0.2,0C9.8,8.7,9.8,8.7,9.9,8.6z M2.5,21.3
						c0,0,0,0.1-0.1,0.1C2.5,21.4,2.5,21.4,2.5,21.3C2.5,21.2,2.5,21.2,2.5,21.3C2.5,21.2,2.5,21.2,2.5,21.3z M5.7,27.3L5.7,27.3
						v-0.2C5.7,27.1,5.7,27.2,5.7,27.3L5.7,27.3z M11.5,40.7c0,0.1,0,0.2,0,0.2s-0.1,0-0.1-0.1c0,0,0,0-0.1,0c-0.1,0-0.1,0-0.1-0.1
						v-0.1c0,0,0-0.1-0.1-0.3C11,40.1,10.9,40,10.9,40s-0.1,0,0,0v-0.3c0,0,0,0-0.1,0.1c0,0.1,0,0.1-0.1-0.1c0-0.1-0.1-0.2-0.1-0.2
						l-0.1-0.1c0,0,0.1,0,0.1,0.1c0.1,0.1,0.1,0.1,0.1,0.1c-0.1-0.4-0.1-0.5-0.3-0.5c0,0,0,0,0-0.1c0,0,0.1-0.1,0.2,0
						c0.1,0,0.1,0,0.1-0.1c0-0.1,0-0.2,0-0.3c0-0.4-0.1-0.5-0.2-0.5c0,0-0.1,0.1,0,0.2c0,0.1,0,0.2,0,0.2s-0.1,0-0.1-0.1
						c0-0.1,0-0.2-0.1-0.4c-0.1-0.2,0-0.3,0-0.3s0-0.2-0.1-0.3c-0.1-0.2-0.1-0.3-0.1-0.5c0-0.5,0-0.8-0.1-1.1
						c-0.1-0.2-0.1-0.3,0-0.3v-0.1c0,0,0-0.2-0.1-0.4c0-0.6-0.1-1.2-0.2-1.7c-0.1-0.5-0.3-0.8-0.6-1.1c-0.3-0.3-0.6-0.7-0.6-0.8
						s-0.1-0.3-0.2-0.5C8.2,30.7,8,30.3,7.9,30s-0.3-0.6-0.3-0.7c-0.2-0.3-0.3-0.7-0.2-0.9c0.1-0.1,0.1-0.3,0-0.3
						c0,0-0.1-0.1-0.1-0.2c0-0.2,0-0.9,0.1-0.9c0,0,0.1-0.1,0.1-0.2c0-0.1,0-0.2,0.1-0.2c0.1-0.1,0.2-1.1,0.3-1.4c0-0.2,0-0.4,0-0.4
						c0-0.1-0.3,0.2-0.3,0.3s-0.1,0.1-0.2,0c0-0.1-0.1-0.2-0.1-0.2c-0.1-0.1-0.1-0.1-0.1-0.2c0-0.1,0-0.2-0.2-0.3c0,0,0-0.1,0-0.2
						c0-0.1,0-0.3,0-0.4c0-0.1,0-0.3,0-0.3s0-0.1-0.1-0.1c-0.2,0-0.4-0.3-0.5-0.5c-0.1-0.4-0.1-0.4-0.3-0.3
						c-0.1,0.1-0.2,0.1-0.3-0.1c-0.1-0.1-0.2-0.3-0.2-0.3S5.5,22.1,5.5,22c-0.1-0.1-0.2-0.4-0.1-0.5c0,0,0-0.1,0.1-0.2
						c0.1-0.2,0.2-0.5,0.1-1c0-0.2,0-0.4,0-0.4s0-0.2,0-0.4s0-0.5,0.1-0.6c0.1-0.2,0.1-0.3,0-0.3c-0.1-0.1-0.1-0.1-0.1,0.2
						c0,0.1-0.1,0.3-0.1,0.3s0,0.2,0,0.4s0,0.3,0,0.4c0,0,0,0.2-0.1,0.3c0,0.2-0.1,0.3,0,0.3c0,0,0,0.2,0,0.3
						c-0.1,0.1-0.1-0.5,0-0.6c0-0.1,0-0.2,0-0.2c-0.1-0.4-0.1-0.3,0-0.4s0.1-0.1,0.1-0.3c0-0.1,0-0.4,0.1-0.6c0.1-0.5,0.1-0.6,0-0.7
						c0,0-0.1-0.1,0-0.1c0,0,0.1-0.2,0.1-0.4s0.1-0.3,0.1-0.4s0.1-0.1,0-0.1c-0.1,0.1,0-0.2,0.1-0.3v-0.1c0.2-0.4,0.4-0.9,0.7-1.3
						c0.2-0.3,0.3-0.5,0.3-0.6C7,14.5,7,14.5,7,14.6c0.1,0.1,0.1,0.1,0.2,0c0.1-0.2,0.1-0.3,0-0.3v-0.1v-0.1c0,0-0.1,0.2-0.1,0.3
						c0,0.1,0,0.1,0,0.2c-0.1,0-0.2-0.4-0.1-0.5c0,0,0-0.1,0,0c0,0.1,0.1,0.1,0.1,0V14c-0.1,0,0-0.1,0-0.1s0-0.1,0.1-0.2
						c0-0.1,0-0.1,0-0.1c-0.1,0,0,0,0.1-0.1c0.1-0.1,0.1-0.1,0-0.1c-0.2,0.2-0.2,0.1,0-0.1c0.1-0.1,0.1-0.2,0.1-0.2
						c-0.1,0,0-0.2,0-0.3l0,0c-0.1,0-0.1,0-0.1,0.1c0,0.1,0,0.1,0,0.1s0,0,0,0.1c-0.1,0.1-0.1,0.1-0.1,0.1s0-0.1,0.1-0.2
						c0-0.1,0-0.1,0-0.1l0,0l0.1-0.1c0,0,0.2-0.2,0.1-0.2c0,0,0,0-0.1,0.1c0,0.1-0.1,0.1-0.1,0.1s0,0,0-0.1l0.1-0.1
						c0,0,0-0.1,0.1-0.1c0-0.1,0-0.1,0,0c0,0,0,0.1-0.1,0.1c0,0,0,0,0,0.1l-0.2,0.4c0,0,0.1-0.3,0.2-0.4c0.1-0.1,0.1-0.1,0-0.1
						c-0.1,0.1-0.1,0.1-0.1,0c0-0.1,0.1-0.2,0-0.2c-0.1,0-0.1-0.1-0.1-0.1c0-0.1,0-0.1-0.1,0.1c0,0.1-0.1,0.1-0.1,0.1
						s-0.1,0.1-0.2,0.1c-0.1,0.1-0.3,0.2-0.1,0.1c0.1-0.1,0.1-0.1,0-0.1c0,0,0.2-0.2,0.3-0.3c0.1,0,0.1,0,0,0c0,0-0.3,0.2-0.3,0.3
						l-0.1,0.1c-0.1,0.1-0.2,0.2-0.1,0.2c0,0,0,0-0.1,0.1s-0.2,0.1-0.2,0.2c-0.1,0.1-0.1,0.1-0.2,0.2c-0.1,0.1,0,0.1-0.1,0.1
						s-0.1,0.1-0.2,0.1c-0.1,0.1-0.2,0.2-0.3,0.2l-0.1,0.1c0,0,0-0.1,0.1-0.1c0,0,0.1-0.1,0.1,0l0,0c0,0,0.1-0.1,0.2-0.2
						c0.1-0.1,0.2-0.2,0.3-0.3c0.1-0.1,0.1-0.2,0.1-0.1L6,13.3l0,0c0,0,0,0-0.1,0c-0.1,0.1-0.1,0,0-0.1c0.1-0.1,0.1-0.1,0-0.1
						c0.2-0.2,0.3-0.5,0.5-0.7c0.1-0.1,0.2-0.1,0.2-0.2l0.1-0.1c0.1-0.1,0.1-0.1,0,0c0,0-0.1,0-0.1,0.1c0.1-0.1,0.1-0.2,0.2-0.3
						c0,0,0.1,0,0.1-0.1C7,11.7,7,11.6,7,11.7l0,0c0.2-0.2,0.4-0.5,0.6-0.7c0.1-0.1,0.2-0.1,0.3-0.2c0,0,0.1-0.1,0.2-0.1
						c0,0,0.1-0.1,0.1,0c0,0,0,0,0.1,0h0.1h0.1c0.3-0.1,0.2,0,0.3,0.1c0.1,0,0.1,0,0.2-0.1c0.1-0.1,0.3-0.2,0.6-0.3
						c0.1,0,0.2-0.1,0.2-0.1c0.1-0.1,0.1-0.1,0.1,0c0,0.1,0,0.1,0.1,0c0.1-0.1,0.1-0.1,0.1,0c0,0,0,0,0.1,0c0.1,0,0.2-0.1,0.3,0
						c0.1,0,0.2,0,0.3,0c0.1,0,0.2,0,0.1,0.1l-0.1,0.1c0,0,0,0,0.2,0c0.3-0.1,0.5-0.1,0.4,0.1c0,0.1,0,0.1,0,0.1s0.1-0.1,0.1-0.2
						c0.1-0.1,0.1-0.1,0.2-0.2c0.1,0,0.1-0.1,0.1-0.1s-0.1,0-0.2,0.1c-0.1,0-0.1,0.1-0.1,0c0-0.1,0.3-0.2,0.4-0.1
						c0,0.1,0.5,0.1,0.7-0.1c0.1-0.1,0.1-0.2,0.1-0.2c-0.1,0,0,0,0.1-0.1c0.2-0.1,0.3-0.1,0.3,0c0,0.1,0,0.1-0.1,0.1h-0.1
						c0,0,0,0,0,0.1c0,0,0,0.1,0,0.2v0.1c0,0,0.1,0,0.1-0.1c0-0.1,0.1-0.1,0.2-0.2c0.1-0.1,0.3-0.2,0.2-0.2c0,0,0,0,0-0.1V9.6
						c-0.1,0-0.2-0.1-0.1-0.2c0.1-0.1,0.1-0.2,0.2-0.2c0.1-0.1,0.2-0.2,0.2-0.3c0-0.1,0.1-0.1,0.1-0.2c0.1-0.1,0.6-0.2,0.6-0.2
						C14.3,8.6,14,8.8,14,8.8s-0.1,0-0.2,0.1C13.7,9,13.7,9,13.7,9c0.1,0,0.1,0.3,0,0.3c-0.1,0.1-0.1,0.2,0,0.1c0.1,0,0.1,0,0,0.1
						c-0.1,0.2-0.1,0.2,0.1,0c0.1-0.1,0.1-0.1,0.2,0c0,0.1,0,0.1,0,0.1s-0.1,0.1-0.1,0.2c0,0.1,0.1,0.1,0.2-0.1
						c0-0.1,0.1-0.1,0.1-0.1s0.1,0,0.2-0.1c0.1-0.1,0.1-0.2,0.1-0.1c-0.1,0,0-0.1,0.1-0.2c0,0,0,0-0.1-0.1c-0.2,0-0.2-0.1-0.2-0.2
						c0-0.1,0-0.1,0.2-0.3c0.2-0.2,0.4-0.3,0.5-0.4c0.1,0,0.1,0,0,0.1c-0.1,0-0.1,0.1-0.1,0.1l-0.1,0.1c0,0.1,0,0.1,0,0.2
						c0,0.1,0.1,0.1,0.1,0V8.6V8.5c0.1-0.2,0.2-0.3,0.5-0.4c0.2-0.1,0.2-0.1,0.2,0c0,0.1,0,0.1,0,0C15.6,8,15.7,8,15.8,8
						C16,8,16.1,8.1,16,8.2v0.1c0,0,0.1,0.1,0.1,0.2s0.1,0.1,0.1,0.1c0.1-0.1,0.3,0,0.2,0.1c0,0,0,0.1,0.1,0c0.1,0,0.2,0,0.1,0.1
						c0,0.1,0,0.1,0,0c0.1,0,0.1,0,0.1,0s0,0.1-0.1,0.1s-0.1,0,0,0.1c0.1,0,0.1,0,0,0.1c-0.2,0-0.2,0.3,0.1,0.3
						c0.1,0,0.1,0.1,0.1,0.1s0,0.1,0.1,0.1s0.1,0,0.1,0c-0.1,0.1-0.1,0.1-0.2,0.2c-0.1,0.1-0.2,0.2-0.2,0.1c0,0,0,0-0.1,0.1
						s-0.2,0.1-0.2,0c-0.1-0.2-0.1-0.3-0.2-0.1C16,10,16,10,16,10.1c0,0.1,0.1,0.1,0.1,0.1s0.1,0.1,0.1,0.2c0,0.1,0,0.2-0.1,0.3
						c-0.1,0.1-0.1,0.1-0.2,0c-0.2-0.2-0.2-0.1-0.1,0.1c0.1,0.1,0.1,0.3,0,0.3c0,0-0.1-0.1-0.2-0.1c-0.1,0-0.1-0.1-0.1-0.1
						s0,0-0.1,0c-0.1,0.1-0.2-0.1-0.1-0.2v-0.1c0,0-0.1,0-0.1-0.1s-0.1-0.1-0.3,0c-0.2,0-0.3,0-0.3,0c0.1-0.1,0.2-0.3,0.3-0.2
						c0,0,0.1,0,0.2,0c0.1,0,0.2-0.1,0.2-0.1c0-0.1,0-0.1,0.1-0.1c0.3-0.2,0.4-0.4,0.2-0.5c-0.1,0-0.1-0.1-0.1-0.1s0,0-0.1,0
						c-0.1,0-0.1,0-0.1,0s0-0.1,0-0.2c-0.1-0.1-0.1-0.1-0.1,0c0,0.1-0.1,0.1-0.4,0.1c-0.2,0-0.3,0-0.3,0s0.1,0,0.1,0.1
						c0,0,0.1,0.1,0,0.1l-0.1,0.1c0,0-0.1,0.1-0.1,0.2V10l-0.1,0.1c-0.1,0-0.2,0.1-0.2,0.1c-0.1,0-0.1,0.1-0.1,0.1c0,0.1,0,0.1,0,0
						l-0.1-0.1h-0.1c0,0.1-0.5,0.6-0.6,0.6c-0.1,0-0.3,0.2-0.3,0.2s0,0.1-0.1,0.1c-0.1,0-0.4,0.3-0.7,0.6c-0.3,0.3-0.4,0.5-0.3,0.5
						c0.1,0,0.1,0.1,0,0.2c-0.1,0.2,0,0.2,0.1,0.2c0.1,0,0.2,0,0.2,0.1c0,0.1,0.1,0.1,0.1,0.1s0.1,0,0.1,0.1c0,0,0.1,0.1,0.2,0.1
						c0.2,0,0.2,0,0,0.5c0,0,0,0.2,0,0.3c0,0.2,0,0.2,0.2,0.1c0.2-0.1,0.2-0.2,0.3-0.6c0-0.1,0.1-0.2,0.1-0.3
						c0.1-0.1,0.1-0.1,0.2-0.2c0.1-0.1,0.3-0.2,0.3-0.3c0.1-0.2,0.2-0.5,0.2-0.5c-0.1-0.1-0.1-0.1,0.1-0.2c0.1-0.1,0.2-0.2,0.3-0.5
						c0.1-0.2,0.1-0.3,0.2-0.4c0,0,0.1,0,0.2,0c0.1,0,0.2,0,0.3,0c0.1,0,0.3,0.1,0.2,0.2c0,0,0,0.1,0.1,0.1c0.1,0,0.1,0.1,0,0.3
						c-0.1,0.2-0.1,0.3-0.1,0.2c0,0,0.1,0,0.1,0.1c0,0.1,0.2,0,0.5-0.3c0.1-0.1,0.1-0.1,0.2-0.2c0,0.2,0,0.3,0,0.4
						c0,0.2,0,0.5,0,0.5c0,0.1,0,0.1,0,0.2c0,0,0,0.1,0,0.2c0,0,0,0.1,0.1,0.1h0.1l0.1,0.1c0,0,0,0,0,0.1c-0.1,0,0,0.1,0,0.2
						c0.1,0.1,0.1,0.1,0,0.3c-0.1,0.2-0.1,0.2-0.3,0.3c-0.1,0-0.3,0.2-0.4,0.2C15.3,14,15.2,14,14.9,14c-0.3,0-0.4,0-0.6,0.1
						c-0.1,0.1-0.2,0.2-0.3,0.2c-0.1,0.1-0.3,0.2-0.4,0.4c-0.2,0.2-0.2,0.2-0.1,0.1c0.3-0.3,0.6-0.4,0.8-0.5c0.2,0,0.2,0,0.2,0.1
						c0,0.1-0.1,0.1-0.2,0.2c-0.1,0-0.1,0.1-0.1,0.1c0.1,0,0.1,0.1,0,0.2c-0.1,0.2,0,0.4,0.2,0.4c0.1,0,0.2,0,0.3-0.2
						c0.1-0.2,0.2-0.2,0.1-0.1c0,0.1,0,0.1,0,0.1s0,0,0,0.1c-0.1,0-0.1,0-0.1,0c0-0.1,0-0.1,0,0c0,0.1-0.4,0.3-0.5,0.4
						c-0.1,0-0.2,0.1-0.3,0.2c-0.1,0.1-0.2,0.1-0.2,0.1c0-0.1,0.1-0.3,0.1-0.3s0.1-0.1,0.2-0.1c0.1-0.1,0.1-0.1,0-0.1
						s-0.2,0.1-0.2,0.1s-0.1,0.1-0.2,0.1c-0.1,0-0.2,0.1-0.3,0.2c-0.2,0.1-0.5,0.4-0.5,0.6c0,0.1,0,0.1-0.2,0.2
						c-0.2,0-0.2,0.1-0.2,0.1s0,0.1-0.1,0.1c-0.1,0-0.1,0-0.2,0.2c-0.1,0.1-0.1,0.2-0.2,0.2c-0.1,0-0.1,0-0.1,0.1
						c0,0.1-0.1,0.2-0.1,0.3c-0.1,0.1-0.1,0.1,0-0.1c0.1-0.2,0.1-0.2,0-0.2c-0.1,0.1-0.2,0.4-0.2,0.6c0,0,0,0.1-0.1,0.2
						c-0.1,0.1-0.1,0.1,0,0.1c0,0,0,0,0,0.1c0,0-0.1,0.1-0.1,0c0,0,0,0-0.1,0.1c0,0.1-0.1,0.1-0.1,0.1s-0.1,0.1-0.2,0.1
						c-0.1,0.1-0.1,0.1-0.1,0.1s-0.1,0.1-0.2,0.2c-0.1,0.1-0.2,0.2-0.2,0.2s-0.3,0.3-0.3,0.5c0,0-0.1,0.2-0.1,0.3
						c-0.1,0.6-0.2,0.8-0.3,1c-0.1,0.1-0.1,0.2-0.1,0.2s-0.1-0.2-0.1-0.3c0,0,0-0.1,0-0.2s0-0.3,0.1-0.3c0.1-0.2,0.1-0.5-0.1-0.4
						c-0.1,0.1-0.1,0-0.1,0c0-0.1-0.1-0.1-0.3-0.1c-0.2,0-0.2,0-0.3,0.2c-0.1,0.2-0.1,0.2-0.2,0.1C8.4,20,8.1,20,8,20.1
						c-0.1,0.1-0.2,0.1-0.2,0.1c-0.1,0-0.3,0.3-0.4,0.6c0,0.1-0.1,0.2-0.1,0.3c0,0-0.1,0.3-0.2,0.5c-0.2,0.4-0.2,0.5-0.2,0.9
						c0,0.5,0,0.6,0.3,0.5c0.1,0,0.2,0,0.2,0c0,0.1,0.3-0.2,0.3-0.4c0.1-0.2,0.2-0.3,0.4-0.4c0.2,0,0.2,0,0.1,0.3
						c0,0.1-0.1,0.2-0.2,0.3C7.9,22.9,7.9,23,7.9,23s-0.1,0.1-0.1,0.2c-0.1,0.1-0.1,0.3-0.2,0.4s-0.1,0.1,0.3,0.1
						c0.2,0,0.3,0.1,0.3,0.2s0,0.2-0.2,0.7s-0.2,0.5-0.2,0.7c0,0.1,0,0.3,0.1,0.3c0.1,0.1,0.1,0.1,0.2,0c0.2-0.1,0.3-0.1,0.4,0.2
						c0,0.2,0,0.2,0.2-0.1c0.1-0.1,0.2-0.3,0.2-0.3c0-0.1,0.1-0.1,0.1-0.1h0.1c0,0,0.1,0,0.1-0.1h0.1c0,0,0.1-0.1,0.3-0.1
						c0.2-0.2,0.3-0.1,0.1,0.1c-0.1,0.2-0.1,0.3,0,0.2c0-0.1,0.1-0.1,0.2-0.1c0,0,0.1,0,0.1-0.1c0,0,0-0.1,0,0c0,0,0,0.1,0.1,0.1
						c0,0,0.1,0.1,0.1,0.2s0.1,0.2,0.2,0.2c0.1,0,0.2,0,0.2,0.1c0,0.1,0.1,0.1,0.3,0c0.2-0.1,0.2-0.1,0.2,0c0,0.1,0.1,0.2,0.1,0.2
						c0.1,0.1,0.1,0.1,0,0.2c-0.1,0.1-0.1,0.2,0.1,0.2c0.1,0,0.2,0.1,0.3,0.4c0.1,0.4,0.2,0.4,0.5,0.5c0.3,0.1,0.4,0.1,0.5,0.4
						c0.1,0.2,0.2,0.4,0.2,0.6c0,0.1,0.1,0.3,0.2,0.4c0.1,0.1,0.1,0.1,0,0.4c-0.1,0.1-0.1,0.3-0.1,0.4s0,0.1,0.1,0
						c0.1-0.2,0.1-0.2,0.2-0.1c0.2,0.1,0.3,0.2,0.1,0.4c-0.1,0.1-0.1,0.2-0.1,0.2s0.1,0,0.2-0.2c0-0.1,0.1-0.1,0.1-0.2
						c0.1,0.1,0.2,0.1,0.3,0.2c0.3,0.2,0.4,0.3,0.4,0.4c0,0.1,0,0.2,0.1,0.1c0.1,0,0.2,0,0.3,0c0.1,0,0.2,0.1,0.4,0.1
						s0.3,0.1,0.6,0.4c0.2,0.2,0.4,0.4,0.5,0.4s0.2,0.1,0.3,0.4c0.1,0.2,0.1,0.4,0.1,0.5c-0.1,0.4-0.4,0.8-0.6,1.2
						c-0.1,0.1-0.1,0.3,0,0.6c0,0.2,0,0.6,0,0.7c0,0.2,0,0.3,0,0.3s0,0.2-0.1,0.3c-0.1,0.1-0.1,0.3-0.1,0.3c0,0.1-0.2,0.3-0.4,0.3
						s-0.8,0.3-0.9,0.4c0,0.1-0.1,0.3,0,0.4c0,0.2,0,0.4-0.1,0.5c-0.1,0.1-0.1,0.3-0.2,0.3c0,0.1,0,0.1,0,0c0-0.1,0-0.1,0-0.1
						c-0.1-0.1-0.1,0.1-0.2,0.4c0,0.1-0.1,0.3-0.1,0.4c-0.1,0.2-0.1,0.2-0.4,0.1c-0.2,0-0.3-0.1-0.4-0.2s-0.1-0.1-0.1,0
						c0,0,0.1,0.1,0.1,0.2c0.1,0,0.1,0.1,0.1,0.2c0,0.1,0.1,0.1,0.1,0.1c0.1,0,0.1,0.2,0,0.3C13.1,39,12.9,39,12.6,39
						c-0.1,0-0.2,0-0.1,0.1v0.2c0,0.2,0,0.2-0.2,0.1c-0.2-0.1-0.2-0.1-0.2,0.1c0,0.1,0.1,0.2,0.1,0.2v0.1c0,0-0.1,0,0,0
						c0,0.1,0,0.2,0,0.4l-0.1,0.1c-0.2,0-0.1,0.4,0.1,0.4c0.1,0,0.1,0.2,0,0.3c-0.1,0-0.1,0.1-0.1,0.2c0,0.1,0,0.1-0.1,0.1
						s-0.1,0.1,0,0.3c0.1,0.1,0.1,0.2,0,0.2s0,0,0,0.1c0.1,0,0.1,0.1,0.1,0.1c0,0.1,0.4,0.4,0.5,0.4c0.2,0,0.1,0.1-0.1,0.1
						c-0.1,0-0.2,0-0.3-0.1c-0.1-0.1-0.1-0.1,0,0c0,0.1,0,0.1-0.1,0.1c-0.1,0-0.1,0-0.1-0.1l-0.1-0.1c-0.1,0-0.1,0-0.1-0.1
						c0,0,0,0,0.1,0c0,0,0.1,0,0.1-0.1c0-0.1,0-0.1,0-0.1c-0.1,0-0.1,0,0-0.1c0.1-0.1,0-0.1,0-0.1C11.5,40.5,11.5,40.6,11.5,40.7z
						 M6,12.8c-0.1,0.1,0,0,0.1-0.1c0.1,0,0.1-0.1,0.1-0.1l0.1-0.1c0,0,0,0,0,0.1l-0.1,0.1C6.2,12.6,6.1,12.8,6,12.8z M6.7,13.2
						C6.7,13.2,6.8,13.2,6.7,13.2C6.9,13.1,6.8,13.2,6.7,13.2c0,0.2-0.1,0.3-0.1,0.3S6.7,13.3,6.7,13.2z M15,8.8
						C14.9,9,14.8,9,14.7,9.1C14.5,9.1,14.7,8.9,15,8.8c0-0.1,0.1-0.1,0.1-0.1L15,8.8z M15.1,8.9C15.1,8.8,15.2,8.9,15.1,8.9
						C15.1,8.9,15,8.9,15.1,8.9C15,8.9,15,8.9,15.1,8.9z M14.7,8.6C14.6,8.7,14.6,8.7,14.7,8.6C14.6,8.7,14.6,8.6,14.7,8.6
						C14.8,8.4,14.9,8.4,14.7,8.6z M14,10.1L14,10.1C14,10.1,14,10,14,10.1C14.1,10,14.1,10,14,10.1z M13.5,10
						c-0.1-0.1-0.1,0-0.3,0.1c-0.1,0.1-0.2,0.1-0.2,0.1s0-0.1-0.1,0c-0.1,0-0.1,0,0-0.1c0.1-0.1,0.2-0.2,0.2-0.3
						c0.1-0.1,0.2-0.2,0.2-0.2s0.1,0,0.1-0.1c0,0,0,0,0,0.1v0.1c0.1,0,0.2,0.2,0.2,0.2V10c0,0,0.1,0,0,0.1
						C13.7,10.1,13.6,10.1,13.5,10z M13.7,10.3C13.7,10.3,13.7,10.4,13.7,10.3C13.7,10.4,13.6,10.4,13.7,10.3
						C13.6,10.4,13.6,10.4,13.7,10.3C13.6,10.4,13.6,10.3,13.7,10.3z M13.4,10.3L13.4,10.3C13.3,10.4,13.2,10.4,13.4,10.3
						C13.2,10.3,13.3,10.2,13.4,10.3C13.4,10.2,13.4,10.2,13.4,10.3z M12.9,11.9L12.9,11.9C12.8,12,12.7,12,12.8,12
						C12.8,11.9,12.9,11.9,12.9,11.9L12.9,11.9z M12.2,12.8L12.2,12.8C12.2,12.8,12.1,12.8,12.2,12.8C12.2,12.7,12.2,12.7,12.2,12.8
						C12.3,12.7,12.3,12.7,12.2,12.8z M15.6,14.3c0,0.1-0.1,0.1-0.1,0c-0.1,0,0-0.1,0.1-0.2c0.1-0.2,0.2-0.2,0.1-0.1v0.1
						C15.7,14.2,15.7,14.3,15.6,14.3z M15.7,13.8C15.6,13.9,15.6,14,15.7,13.8c0,0.1,0,0.2-0.2,0.3c-0.3,0.2-0.4,0.3-0.2,0.1
						c0.1-0.1,0-0.1-0.3-0.1c-0.2,0-0.3,0-0.3-0.1s0.1-0.1,0.1-0.1l0.1-0.1c0-0.1,0.1-0.1,0.1-0.1s0.1-0.1,0.1-0.2s0.2-0.2,0.3-0.4
						c0.2-0.2,0.4-0.3,0.2-0.1c-0.2,0.2-0.3,0.4-0.2,0.3c0,0,0.1,0,0.1,0.1c0,0.1,0.1,0.1,0.2,0.1C15.8,13.6,15.8,13.6,15.7,13.8z
						 M14.4,13.7C14.3,13.7,14.3,13.6,14.4,13.7C14.2,13.5,14.4,13.5,14.4,13.7C14.5,13.8,14.5,13.8,14.4,13.7z M14,14.6
						c-0.1,0-0.1,0-0.1-0.1s0-0.1,0-0.1S13.9,14.5,14,14.6L14,14.6z M10.7,24.7C10.7,24.8,10.6,24.8,10.7,24.7
						C10.6,24.8,10.6,24.7,10.7,24.7C10.6,24.7,10.6,24.6,10.7,24.7C10.7,24.6,10.7,24.7,10.7,24.7z M10.5,22.5l-0.1,0.1
						c-0.1,0-0.1-0.1-0.1-0.1C10.3,22.4,10.4,22.4,10.5,22.5C10.5,22.4,10.5,22.4,10.5,22.5z M8.9,21.6c-0.1,0-0.1-0.1-0.1-0.1
						c0-0.1,0-0.1-0.1-0.1c-0.1,0-0.1,0-0.1-0.1c0,0,0-0.1-0.1-0.1s-0.1,0-0.1-0.1s-0.1-0.1-0.2,0c0,0-0.1,0.1-0.2,0.1
						c-0.1,0-0.1,0,0-0.1C8.1,21,8.2,21,8.3,20.9c0.3-0.1,0.4,0,0.8,0.5c0.1,0.1,0.2,0.2,0.2,0.2c0.1,0.1,0,0.2-0.3,0.2
						c-0.2,0-0.2,0-0.1-0.1C8.9,21.6,8.9,21.6,8.9,21.6z M8.8,22.3c0,0.1,0,0.1-0.1,0.1c-0.1,0-0.1-0.1-0.1-0.1
						C8.6,22.2,8.7,22.2,8.8,22.3z M9.2,20.5C9.2,20.4,9.3,20.4,9.2,20.5C9.3,20.4,9.3,20.4,9.2,20.5C9.3,20.5,9.2,20.6,9.2,20.5
						C9.2,20.6,9.2,20.5,9.2,20.5z M9.3,22.3c0.1,0.1,0.2-0.1,0.2-0.3s0.4-0.1,0.5,0.1c0.1,0.1,0.1,0.2,0.1,0.2s-0.1,0-0.2,0
						c-0.1,0-0.2,0-0.3,0.1c-0.1,0.1-0.5-0.1-0.5-0.1C9.2,22.2,9.2,22.2,9.3,22.3z M15.6,44C15.6,44.1,15.6,44.1,15.6,44
						C15.5,44.1,15.5,44,15.6,44C15.5,44,15.5,44,15.6,44z M15,45c0,0-0.1-0.1-0.2,0c-0.1,0-0.1,0-0.2-0.1v-0.1h0.1c0,0,0.1,0,0.2,0
						c0.1,0,0.2,0,0-0.1c-0.1,0-0.1,0-0.1-0.1v-0.1c0-0.1,0-0.1,0-0.1c0.1,0,0.1,0,0.4,0.2c0.4,0.4,0.3,0.5,0,0.4
						C14.9,45.2,14.9,45.1,15,45C15.1,45.1,15.1,45.1,15,45z M14.6,44.7C14.7,44.8,14.7,44.8,14.6,44.7c-0.1,0-0.1,0-0.1,0
						C14.4,44.7,14.5,44.7,14.6,44.7z M14.5,44.6L14.5,44.6L14.5,44.6C14.4,44.6,14.4,44.6,14.5,44.6z M15.1,44.3L15.1,44.3
						C15.2,44.4,15.2,44.4,15.1,44.3C15.1,44.5,15,44.4,15.1,44.3z M14.4,45C14.4,45,14.3,45,14.4,45c-0.1,0-0.1,0-0.2-0.1
						C14.2,44.9,14.2,44.9,14.4,45L14.4,45z M13.4,40.8C13.3,40.8,13.3,40.8,13.4,40.8c-0.1-0.1,0-0.1,0.1-0.1S13.5,40.8,13.4,40.8z
						 M13.2,40.8C13.1,40.8,13.1,40.8,13.2,40.8C13.1,40.7,13.2,40.7,13.2,40.8C13.3,40.7,13.3,40.7,13.2,40.8z M12.9,44.5
						L12.9,44.5C12.8,44.5,12.8,44.5,12.9,44.5C12.8,44.4,12.8,44.4,12.9,44.5C12.8,44.4,12.8,44.4,12.9,44.5z M12,38.6L12,38.6
						C11.9,38.6,11.9,38.6,12,38.6C11.9,38.5,11.9,38.5,12,38.6C11.9,38.5,12,38.5,12,38.6z M12.1,44.2c-0.1,0-0.2-0.1-0.2-0.1
						s-0.1,0-0.1-0.1l-0.1-0.1c0,0,0,0,0.2,0.1C12.2,44.1,12.4,44.3,12.1,44.2z M15.9,46.4L15.9,46.4c-0.2,0-0.2-0.1-0.3-0.1h0.1
						C16,46.3,16,46.4,15.9,46.4z M16.5,45.7c-0.1,0-0.1,0-0.1,0S16.4,45.7,16.5,45.7c0,0.1,0,0.1,0,0.2c0,0.1-0.1,0.1-0.1,0.1h-0.1
						c0,0-0.1,0.1-0.3,0c-0.1,0-0.3,0-0.4,0c-0.2,0-0.5-0.1-0.8-0.3c-0.1-0.1-0.3-0.1-0.3-0.1s0.3,0.3,0.5,0.4
						c0.1,0.1,0.2,0.1,0.2,0.1s-0.4-0.1-0.8-0.3c-0.1-0.1-0.1-0.1-0.1,0c0,0,0.1,0.1,0.2,0.1s0.2,0.1,0.2,0.1s0,0-0.1,0
						c-1-0.5-1.9-1-2.8-1.6c0,0-0.1,0-0.1-0.1c0,0-0.1,0-0.1-0.1l-0.1-0.1c0,0,0,0,0.1,0c0.1,0,0.2,0.1,0.1,0c0,0-0.1-0.1-0.2-0.1
						s-0.2-0.1-0.2-0.1s0,0,0.1,0c0.4,0.2,0.9,0.4,1.4,0.6c0.1,0,0.1,0,0.1,0s0.1,0.1,0.2,0.1c0.1,0,0.2,0.1,0.2,0.1
						s0.1,0.1,0.3,0.2c0.2,0.1,0.2,0.1,0.3,0H14c0.1,0,0.1,0.1,0.2,0.1c0.1,0,0.2,0.1,0.2,0.1c0.1,0.1,0.1,0.1,0.1,0
						c0,0,0-0.1-0.1-0.1l0,0c0,0,0.1,0,0.1,0.1c0.1,0.1,0.1,0.1,0.4,0.2c0.3,0.1,0.5,0,0.4-0.1c0,0-0.1-0.1-0.1-0.2
						c-0.3-0.4-0.3-0.4-0.2-0.3c0.1,0,0.1,0,0.1-0.1c0-0.1-0.1-0.2-0.1-0.1c0,0,0,0-0.1,0c0,0,0-0.1,0.1-0.1s0.2-0.1,0.2-0.1
						s0.3-0.1,0.4-0.1c0.1,0,0.1,0,0.1,0h0.1h0.1h-0.1c-0.1,0-0.1,0-0.1,0.1c0,0,0,0-0.1,0c-0.1,0-0.3,0.1-0.3,0.2s0,0.1-0.1,0.1
						c-0.1,0-0.1,0-0.2,0.1c0,0,0,0.1,0.1,0.1c0,0.1,0.1,0.1,0.1,0.1c0.1,0,0.4,0.3,0.4,0.3s0,0.1,0.1,0.1c0.1,0,0.1,0.1,0.1,0.2
						s0,0.1,0.1,0.1l0,0C16.4,45.5,16.4,45.6,16.5,45.7h0.1C16.5,45.7,16.5,45.7,16.5,45.7z M16.3,44.2L16.3,44.2
						C16.2,44.2,16.2,44.2,16.3,44.2C16.2,44.1,16.2,44.1,16.3,44.2C16.3,44.1,16.3,44.1,16.3,44.2z M16.8,46.9L16.8,46.9
						c0-0.1,0.1,0,0.2,0c0,0,0,0,0,0.1C16.9,46.9,16.9,46.9,16.8,46.9z M17.4,9.7c-0.1-0.3-0.1-0.3,0.1-0.5c0.1-0.2,0.1-0.2,0-0.1
						c-0.2,0.1-0.2,0.1-0.1,0c0-0.1,0-0.2,0-0.3c0-0.1,0-0.2,0-0.2c0.1,0,0.1-0.1,0-0.1c0-0.1,0-0.1,0.1-0.3C17.6,8.1,17.7,8,17.8,8
						c0.1,0,0.1-0.1,0.2-0.2c0.1-0.2,0.1-0.2,0-0.1c0,0-0.1,0.1-0.1,0c0,0,0-0.1-0.1-0.1c-0.1,0-0.1,0-0.1,0.1c0,0,0,0.1,0.1,0.1
						c0,0-0.1,0-0.1,0.1c-0.2,0.1-0.3,0-0.2-0.1c0-0.1,0.1-0.1,0.1-0.1s0,0,0-0.1s0-0.1,0.1-0.1c0,0,0.1,0,0,0c0,0,0,0.1,0.1,0.1
						c0.1,0,0.1,0,0.2,0c0.1,0.1,0.1-0.1,0-0.2s-0.2-0.1-0.3,0c-0.2,0.1-0.2,0,0-0.2c0.1-0.1,0.1-0.1,0.1-0.4c0-0.1-0.1-0.3-0.1-0.3
						s-0.1,0-0.1-0.1c0-0.2-0.3-0.2-0.8-0.1c-0.3,0.1-0.4,0.1-0.5,0l-0.1-0.1c-0.1,0,0,0,0.1-0.1c0.1,0,0.2-0.1,0.2-0.1s0-0.1,0,0
						c-0.1,0.1-0.4,0-0.4-0.1c0,0,0.2-0.1,0.7-0.3c0.3-0.1,0.4-0.1,0.4-0.2c0,0,0-0.1-0.1,0c-0.1,0-0.1,0-0.1,0
						c0.1-0.1,0.5-0.3,0.7-0.3c0.1,0,0.2-0.1,0.2-0.1c0-0.1,0.9-0.3,0.9-0.2c0,0.1,0,0.1,0.1,0c0,0,0.1-0.1,0.1,0
						c0.1,0.1,0.2,0.1,0.2-0.1c0-0.1,0-0.1,0.4,0c0.3,0.1,0.3,0.1,0.3,0V4.6c0.1,0,0-0.1-0.1-0.1c-0.1,0,0.1-0.1,0.4-0.1
						c0.3,0,0.5,0,0.5-0.1c0,0,0.1-0.1,0.3-0.1c0.4-0.1,0.9-0.1,1.4,0c0.1,0,0.2,0.1,0.3,0.1c0.1,0,0.2,0,0.1,0.1
						c0,0-0.1,0.1-0.2,0.1s-0.2,0-0.2,0.1c0,0,0,0.1,0.2,0c0.2,0,0.2,0,0.1,0.1c-0.1,0.1-0.1,0.1-0.1,0.1l0,0c0,0,0.1,0,0.2-0.1
						c0.1-0.1,0.2-0.1,0.3-0.1s0.2,0,0.3,0c0.1-0.1,0.3-0.1,0.4,0c0.1,0,0.1,0,0.2,0.1c-0.1,0-0.1,0.1-0.2,0.1
						c-0.2,0.1-0.3,0.2-0.5,0.3c0,0-0.1,0.1-0.2,0.1c0,0-0.1,0-0.1,0.1c0,0.1-0.1,0.1-0.1,0.1s-0.1,0.1-0.2,0.2
						c0,0.1-0.1,0.1-0.1,0.2c0,0,0.1,0,0.1-0.1c0.1,0,0.1,0,0.1,0l0.1,0.1C23,5.8,23.1,5.9,23,6c0,0.1-0.1,0.1-0.1,0
						c0,0-0.1-0.1-0.2-0.1c0,0,0,0-0.1,0l0,0c-0.2,0-0.2,0.1,0,0.1c0.1,0,0.2,0.1,0.2,0.3h-0.1c-0.2,0-0.2,0.1,0,0.2
						c0.1,0,0.1,0,0.1,0c-0.1,0-0.1,0-0.1,0c-0.1,0-0.1,0.1-0.1,0.1c0,0.1-0.3,0.2-0.4,0.1c-0.1,0-0.1-0.1-0.2,0
						c-0.1,0.1,0,0.1,0.1,0.1C22.2,6.9,22.3,7,22.2,7c-0.1,0.1-0.3-0.1-0.3-0.2V6.7c-0.1,0,0,0.2,0.1,0.3c0.1,0,0.3,0.3,0.2,0.4
						c0,0.1-0.4,0-0.4-0.1l-0.1-0.1c-0.1,0-0.1,0-0.1,0.1c0,0.1,0,0.1-0.1,0.2c-0.1,0,0,0,0.1,0.1c0.1,0,0.2,0,0.3,0.1
						c0.1,0,0,0.1-0.2,0.2c-0.5,0.2-1,0.3-1.1,0.2c-0.1-0.1-0.1-0.1-0.1,0c0,0.1-0.9,0.1-0.9,0.1s0.7,0.1,0.6,0.2
						c-0.1,0.1-0.3,0.2-0.4,0.2c-0.1,0-0.2,0.1-0.3,0.1c-0.1,0.1-0.1,0.1,0-0.1c0.1-0.1,0.1-0.1,0,0c-0.1,0.1-0.2,0.1-0.3,0.2
						C19,8.8,19,8.9,19,9s0,0.1-0.1,0.1c0,0-0.1,0,0,0c0.1,0.1,0,0.2-0.2,0.3c-0.1,0.1-0.2,0.2-0.2,0.2s-0.1,0.2-0.2,0.3
						c-0.1,0.2-0.2,0.3-0.3,0.3s-0.1,0-0.1-0.1V10c0,0-0.1,0,0-0.1c0,0,0,0-0.1,0C17.5,10.1,17.4,10.1,17.4,9.7z M18.9,47.5
						c-0.1,0-0.1,0-0.2,0c-0.3-0.1-0.6-0.2-0.9-0.3h0.1c0.1,0,0.2,0,0.2-0.1c0-0.1,0.1-0.1,0.1-0.1c0.2,0,0.6,0.1,0.6,0.2
						C18.8,47.2,18.8,47.3,18.9,47.5C19,47.4,19,47.4,18.9,47.5z M19,41.5C18.9,41.4,18.9,41.4,19,41.5c0.1,0,0.1,0,0.2,0
						C19.3,41.7,19.2,41.6,19,41.5z M24.7,48.3c-1.4,0-2.7-0.1-4.1-0.4h0.1l-0.1-0.1h-0.1c0,0,0,0,0.1-0.1c0.1-0.1,0.1-0.1-0.1-0.1
						c-0.1,0-0.2,0-0.2,0l-0.5-0.2c0.1-0.2,1.4-0.3,1.8-0.2c0.1,0,0.2,0,0.2,0s0.1-0.1,0.2-0.2c0.2-0.1,0.2-0.1,0.1-0.1
						s-0.1,0-0.1-0.1l0.1-0.1c0,0,0.1,0,0.1-0.1h0.1c0,0,0.1,0,0.2,0s0.1,0,0-0.1s-0.1-0.1,0-0.1c0,0,0.1,0,0.2,0c0.1,0,0.1,0,0.2,0
						c0.1,0.1,0.1,0.1,0.2,0c0.1-0.1,0.2-0.1,0.2,0c0,0,0.1,0.1,0.3,0.1c0.3,0,0.5,0,0.7-0.1c0.1-0.1,0.9,0,1,0c0.1,0,0.1,0,0.2,0
						c0.3-0.1,0.7,0,1,0c0.2,0,0.5,0,0.8,0c0.4-0.1,0.6-0.1,0.7-0.3c0.1-0.1,0.1,0,0.2,0c0,0.1,0.1,0.1,0.2,0.1h0.1
						c0,0.1,0.2,0,0.2-0.1c0.1-0.1,0.3-0.2,0.5-0.2c0.1,0,0.2-0.1,0.2-0.1c0.1,0,0.2,0,0.3,0c0.1,0,0.1,0,0.1,0s0-0.1,0.1,0
						c0.1,0,0.1,0,0.1-0.1c0-0.1,0.6-0.3,0.7-0.2l0.1,0.1c0,0,0.4,0.1,0.9,0c0.2,0,0.3,0,0.3,0c0,0.1-0.2,0.3-0.3,0.3
						c0,0-0.1,0-0.1,0.1c-0.1,0.1,0,0.1,0.1,0c0.1,0,0.1,0,0,0l-0.1,0.1c-0.1,0-0.2,0.2-0.1,0.2s0.3-0.1,0.4-0.3
						c0.1-0.1,0.1-0.1,0.1-0.1s0,0,0.1-0.1c0,0,0.2-0.1,0.3-0.2c0.1,0,0.3-0.2,0.4-0.2c0.1-0.1,0.2-0.2,0.3-0.2c0.1,0,0.1,0,0.2-0.1
						c0.1-0.1,0.2-0.1,0.5-0.2c0,0,0.1-0.1,0.2-0.1l0,0c0,0,0,0,0.1-0.1c0.1-0.1,0.2-0.1,0.5-0.1c0.3,0,0.3,0,0.4-0.1
						s0.3-0.2,0.3-0.2c0,0.1,0.2,0.1,0.3,0c0.2-0.1,0.6-0.2,0.7-0.3h0.1c0,0.1,0.1,0,0.2-0.1c0.1-0.1,0.1-0.1,0.2-0.1
						c0.1-0.1,0.2-0.1,0.2-0.1c0-0.1,0.1-0.1,0.1-0.1s0,0,0,0.1c-0.1,0.1-0.1,0.1,0,0.1c0.1,0,0.1,0,0.2-0.1c0.2,0,0.3-0.1,0.3-0.1
						l0,0c0,0,0.1,0.1,0.2,0c0,0,0.1,0,0,0c0,0,0,0,0.1,0c0.1,0,0.1-0.1,0.1-0.1c0-0.1,0.1-0.1,0,0c0,0,0,0,0.1,0c0.1,0,0.1,0,0.1,0
						s0.1,0,0.2-0.1C34.5,46.6,29.8,48.3,24.7,48.3z M21.5,46.9L21.5,46.9L21.5,46.9C21.5,47,21.5,47,21.5,46.9
						C21.5,47,21.5,47,21.5,46.9z M23.5,46.4C23.6,46.4,23.6,46.4,23.5,46.4C23.6,46.4,23.6,46.4,23.5,46.4
						C23.6,46.5,23.6,46.5,23.5,46.4C23.5,46.5,23.5,46.5,23.5,46.4z M32.3,32.6c0-0.4,0.1-0.6,0.5-0.8c0.1-0.1,0.3-0.2,0.3-0.3
						c0.1-0.1,0.2-0.2,0.2-0.3c0.1-0.1,0.1-0.2,0.1-0.2c0-0.1,0-0.1,0.1-0.2l0.1-0.1c0,0,0.1,0.4,0.1,0.7c0,0.2,0,0.3-0.1,0.2
						c-0.1,0-0.1,0-0.1,0.1c0,0.1,0,0.2,0,0.2c0,0.1-0.1,0.1-0.1,0.2c-0.2,0.6-0.5,1.3-0.8,1.8c0,0-0.1,0.1-0.3,0.1
						c-0.3,0.1-0.4-0.1-0.4-0.5c0-0.3,0-0.3,0.2-0.5C32.4,32.9,32.4,32.9,32.3,32.6z M34.4,40.3C34.5,40.3,34.5,40.3,34.4,40.3
						c-0.1,0.2-0.2,0.2-0.1,0.1C34.3,40.3,34.3,40.3,34.4,40.3z M34.4,33C34.4,32.9,34.4,32.9,34.4,33C34.5,32.9,34.5,32.9,34.4,33
						C34.5,33,34.5,33,34.4,33L34.4,33z M34.7,24c0.1,0,0.1,0,0.1,0.1S34.7,24.2,34.7,24C34.7,24.1,34.7,24,34.7,24z M36.8,42.3
						L36.8,42.3C36.9,42.3,36.9,42.3,36.8,42.3C36.9,42.3,36.9,42.4,36.8,42.3z M39.9,25.7c-0.1,0.1-0.1,0.1-0.2,0
						c-0.1-0.1-0.2-0.6-0.2-0.8c0-0.2,0-0.1,0.2,0.2C40,25.4,40.1,25.5,39.9,25.7z M41.5,22.6c0,0.1,0,0.1,0,0.2
						c0,0.2-0.1,0.2-0.2,0.1c0,0-0.1-0.1-0.1-0.2c0-0.2-0.2-0.6-0.2-0.6V22c0-0.1,0-0.1-0.1-0.2c-0.1-0.1-0.2-0.2-0.3-0.4
						c-0.2-0.3-0.3-0.4-0.3-0.2c0,0.1,0,0.1,0,0.1s-0.1,0-0.2,0c-0.1,0-0.2,0-0.2,0v0.1c0,0.2,0,0.3-0.1,0.3c0,0-0.1,0.1-0.1,0.2
						c-0.1,0.4-0.2,0.7-0.3,0.7c0,0,0,0,0,0.1c0,0,0,0.1-0.1,0.1c-0.1,0-0.1,0.1,0,0.4c0.1,0.4,0.2,0.9,0.1,1.4
						C39.3,25,39.2,25,39,24.5c-0.1-0.2-0.2-0.4-0.3-0.6c-0.1-0.2-0.2-0.4-0.2-0.4c0-0.1-0.1-0.3-0.2-0.5c-0.2-0.5-0.4-1-0.5-1.5
						c0,0,0-0.2-0.1-0.3c-0.1-0.2-0.1-0.2-0.1,0c0,0.3-0.1,0.3-0.4,0C37,21,37,21,37.1,21c0.1,0,0.1,0,0.1-0.1c0,0,0-0.1-0.1,0
						c-0.1,0.1-0.3-0.2-0.6-0.5c-0.1-0.1-0.2-0.3-0.2-0.2c-0.4,0.1-1.1,0.1-1.5-0.1c0,0-0.1-0.1-0.1-0.2c-0.1-0.2-0.2-0.3-0.2-0.1
						c0,0,0,0.1,0,0h-0.1c-0.4,0.1-0.8-0.4-1-0.7c-0.2-0.3-0.3-0.4-0.5-0.2C32.8,19,32.8,19,33,19.3c0.1,0.2,0.2,0.3,0.3,0.4
						c0,0,0.1,0.2,0.2,0.4c0.1,0.3,0.1,0.3,0.1,0.1c0-0.2,0.2-0.1,0.2,0.1c0,0.5,0.5,0.5,0.7,0c0.1-0.1,0.1-0.2,0.1-0.3
						c0,0.1,0,0.1,0.1,0.2c0.1,0.3,0.2,0.4,0.4,0.5c0.1,0,0.2,0.1,0.3,0.2c0.1,0.1,0.1,0.1,0.1,0.2s0,0.2-0.1,0.3
						c0,0.1-0.1,0.3-0.1,0.3c-0.1,0-0.1,0.2,0,0.3c0,0,0,0.1-0.1,0.2c-0.1,0.1-0.1,0.1-0.1,0.2c0,0,0,0.1-0.1,0.1s-0.1,0-0.1,0.1
						s-0.1,0.1-0.2,0.2c-0.1,0-0.3,0.1-0.3,0.2c-0.1,0.1-0.2,0.2-0.3,0.3c-0.1,0.1-0.3,0.2-0.3,0.2c-0.1,0.1-0.1,0.1-0.2,0.1
						c0,0-0.1,0-0.2,0.1c-0.1,0-0.2,0.1-0.2,0.1s-0.1,0.1-0.2,0.1S32.8,24,32.8,24c-0.1,0-0.3-0.7-0.4-1c0-0.1-0.1-0.3-0.3-0.5
						c-0.1-0.2-0.2-0.4-0.2-0.4c0-0.1-0.1-0.2-0.3-0.3c-0.2-0.2-0.3-0.3-0.3-0.4c0-0.3-0.2-0.6-0.4-0.8c-0.1-0.1-0.2-0.2-0.2-0.2
						c0-0.1-0.1-0.3-0.3-0.5c-0.2-0.2-0.3-0.5-0.3-0.6c0-0.1,0-0.1,0,0.1c0,0.3-0.1,0.2-0.3-0.1c-0.1-0.1-0.2-0.3-0.2-0.3
						s0,0.1,0.1,0.3c0.1,0.2,0.2,0.4,0.3,0.5c0.1,0.2,0.2,0.4,0.3,0.6c0.1,0.2,0.2,0.4,0.2,0.4c0,0.1,0.1,0.2,0.2,0.4
						c0.1,0.1,0.2,0.3,0.3,0.6c0.1,0.3,0.1,0.5,0.3,0.6c0.1,0.1,0.2,0.3,0.3,0.5c0.1,0.2,0.2,0.4,0.4,0.5c0.4,0.3,0.8,0.8,0.7,0.9
						c0,0,0,0.1,0.1,0.2c0.1,0.1,0.1,0.1,0.2,0.2c0.2-0.1,0.4-0.1,0.6-0.2c0.3-0.1,0.6-0.2,0.7-0.2c0.1-0.1,0.1,0,0.1,0.3
						c0,0.2,0,0.4,0,0.5c0,0-0.1,0.3-0.2,0.6c-0.1,0.6-0.4,1-0.8,1.4c-0.1,0.1-0.3,0.3-0.5,0.5c-0.2,0.2-0.5,0.5-0.6,0.7
						c-0.1,0.1-0.3,0.4-0.4,0.6c-0.2,0.3-0.2,0.4-0.2,0.6c0,0.1,0.1,0.3,0,0.5c0,0.2,0,0.4,0.1,0.4c0.1,0.1,0.1,0.2,0,0.7
						c-0.1,0.6-0.1,0.6-0.2,0.8c-0.1,0.1-0.3,0.2-0.4,0.3c-0.1,0.1-0.3,0.2-0.4,0.3c-0.1,0.1-0.3,0.3-0.3,0.3
						c-0.1,0.1-0.2,0.1-0.1,0.4c0,0.1,0,0.4,0,0.5c0,0.3,0,0.3-0.3,0.4c-0.3,0.1-0.3,0.2-0.3,0.5c0,0.2-0.1,0.4-0.2,0.5
						c-0.1,0.1-0.3,0.3-0.4,0.5c-0.4,0.5-1,0.7-1.6,0.8c-0.2,0-0.4,0.1-0.5,0.1c-0.1,0.1-0.2,0.1-0.3,0c-0.2-0.1-0.3-0.3-0.3-0.4
						c0.1-0.1-0.3-0.8-0.5-1c-0.2-0.1-0.3-0.4-0.4-0.9c0-0.2-0.1-0.5-0.2-0.6c-0.2-0.3-0.6-0.8-0.6-1.2c0-0.3,0.1-0.9,0.3-1.1
						c0.1-0.1,0.1-0.2,0.1-0.5c0-0.2-0.1-0.4-0.1-0.6c-0.1-0.6-0.4-1.1-0.8-1.5c-0.4-0.4-0.6-0.7-0.5-0.8c0,0,0.1-0.3,0.1-0.5
						c0-0.2,0-0.5,0.1-0.5c0-0.1-0.1-0.2-0.2-0.3c-0.2-0.2-0.2-0.2-0.5-0.2c-0.4,0.1-0.5,0-0.5-0.2c0-0.1-0.1-0.2-0.2-0.2
						c-0.4-0.2-0.9,0-1.3,0.2c-0.4,0.2-0.5,0.2-0.7,0.1c-0.2,0-0.4,0-0.6,0c-0.6,0.2-0.7,0.2-0.8,0c-0.3-0.3-0.8-0.7-0.9-1.1
						c0-0.1-0.1-0.3-0.2-0.5c-0.1-0.2-0.2-0.4-0.2-0.4l-0.1-0.1c-0.1,0-0.1-0.1-0.1-0.3c0-0.1,0-0.3,0-0.4s0-0.2,0-0.2
						c0.1,0,0.3-0.6,0.3-0.9c0.1-0.5,0.1-0.7,0-0.8s0-0.2,0.1-0.5c0.1-0.2,0.3-0.4,0.3-0.5c0.1-0.1,0.1-0.2,0.2-0.3
						c0-0.2,0.5-0.7,0.7-0.9c0.4-0.2,0.6-0.5,0.6-0.7c0-0.3,0.3-0.7,0.6-0.9c0.1-0.1,0.3-0.2,0.3-0.4c0.1-0.3,0.2-0.3,0.2-0.2
						c0.1,0.1,0.7,0.2,0.8,0.1c0.3-0.3,1-0.4,1.4-0.5c0.4,0,0.8-0.1,0.9-0.1s0.2,0,0.2,0c0,0.1,0,0.1,0.1,0c0.1-0.1,0.1,0,0,0.1
						c-0.1,0.1-0.1,0.2,0,0.3s0.1,0.2-0.1,0.3c-0.1,0.1-0.2,0.2-0.2,0.2c0,0.1,0.6,0.4,0.6,0.3c0.1-0.1,0.6,0.2,0.6,0.3
						c0,0.1,0.1,0.2,0.2,0.1c0.1,0,0.3,0.1,0.4,0.2c0.3,0.1,0.3,0.2,0.4,0c0-0.1,0.1-0.2,0.1-0.3c0-0.2,0.3-0.4,0.5-0.3
						c0.1,0,0.2,0.1,0.2,0.1s0.2,0.1,0.4,0.2c0.2,0.1,0.5,0.2,0.6,0.2c0.3,0.1,0.5,0.1,0.7,0c0.2-0.1,0.2-0.1,0.4,0
						c0.3,0.2,0.5,0,0.6-0.5c0.1-0.2,0.1-0.6,0.1-0.8c0-0.1,0-0.2,0-0.3c-0.1,0-0.1,0-0.2,0c-0.1,0-0.2,0.1-0.2,0.1
						c0,0.1-0.3,0.1-0.5-0.1c-0.2-0.1-0.2-0.1-0.3,0c-0.1,0.1-0.1,0.1-0.2,0c-0.1-0.1-0.2-0.1-0.3-0.2c-0.1-0.1-0.2-0.1-0.2-0.2
						s0-0.1-0.1-0.1c0,0,0-0.1,0-0.2s0-0.2-0.1-0.2l-0.1-0.1c0.1-0.3-0.4-0.4-0.5-0.2c0,0.1-0.1,0.1-0.2,0.1c-0.1-0.1-0.2,0.1,0,0.2
						c0,0,0,0.1,0,0.2s0,0.1,0,0.1c0.3-0.1,0.4,0.1,0.1,0.3C27,16.6,27,16.6,27,16.7c0,0.1,0,0.1-0.1,0.1s-0.4-0.4-0.3-0.4
						c0,0-0.1-0.2-0.2-0.3c-0.2-0.2-0.3-0.4-0.3-0.5c0-0.2-0.1-0.3-0.3-0.4c-0.1-0.1-0.3-0.2-0.4-0.3c-0.1,0-0.2-0.2-0.3-0.3
						c-0.1-0.2-0.1-0.2-0.2-0.2s-0.1,0-0.1-0.1c0-0.2-0.3-0.1-0.3,0.2c0,0.1,0,0.2,0.1,0.2c0,0,0.2,0.1,0.3,0.3s0.3,0.3,0.3,0.3
						c0.1,0,0.1,0,0.1,0.1c0,0,0,0.1,0.1,0.1s0.5,0.3,0.5,0.4c0,0-0.1,0-0.2-0.1c-0.1-0.1-0.1-0.1-0.2,0c-0.1,0.1-0.1,0.1,0,0.2
						s0.1,0.1-0.1,0.3c-0.2,0.2-0.2,0.2-0.1,0c0.1-0.3,0-0.5-0.4-0.8c-0.2-0.1-0.5-0.4-0.7-0.6c-0.1-0.2-0.3-0.4-0.3-0.4
						s-0.2,0.1-0.4,0.2c-0.2,0.2-0.3,0.2-0.4,0.1c-0.2-0.1-0.4,0-0.5,0.3c0,0.2-0.1,0.2-0.2,0.3c-0.2,0.1-0.5,0.5-0.5,0.6
						c0,0.2-0.2,0.5-0.3,0.5l-0.1,0.1c0,0.1-0.1,0.1-0.3,0.1c-0.1,0-0.3,0-0.4,0.1c-0.1,0.1-0.2,0.1-0.3-0.1
						c-0.1-0.1-0.1-0.2-0.3-0.1c-0.2,0.1-0.2,0-0.2-0.1s0-0.2,0-0.3c0-0.1,0-0.2,0.1-0.4c0.1-0.1,0.1-0.4,0.1-0.6
						c0-0.3,0-0.4,0.2-0.5c0.1-0.1,0.2-0.1,0.2-0.1s0.3,0,0.6,0.1c0.5,0,0.5,0,0.6-0.2c0-0.1,0.1-0.3,0.1-0.4c0-0.3-0.2-0.7-0.4-0.7
						c-0.1,0-0.1-0.1-0.1-0.1c0-0.1,0.1-0.2,0.4-0.1c0.1,0,0.1,0,0.2-0.2c0-0.1,0-0.2,0.1-0.1c0.1,0.1,0.1,0.1,0.3,0
						c0.1-0.1,0.2-0.2,0.2-0.2c0-0.1,0.1-0.1,0.2-0.2c0.1,0,0.2-0.2,0.3-0.3c0.1-0.2,0.2-0.2,0.2-0.2c0,0.1,0,0.1,0.1-0.1
						c0-0.2,0.1-0.2,0.5-0.2c0.1,0,0.2-0.1,0.1-0.6c0-0.2,0-0.3,0-0.3s0.1,0,0.1-0.1c0.1-0.1,0.3-0.2,0.2,0c0,0,0,0.1,0,0.2
						c0,0.1,0,0.1-0.1,0.2c-0.1,0-0.1,0.1-0.1,0.2c-0.1,0.2,0.1,0.3,0.4,0.3c0.2,0,0.3,0,0.4,0.1c0,0,0.2,0,0.4-0.1
						c0.2-0.1,0.4-0.1,0.4-0.1c0.1,0.1,0.3,0.1,0.3,0c0,0,0-0.1,0.1-0.1s0.1-0.1,0.1-0.3c0-0.4,0.1-0.6,0.3-0.4
						c0.1,0.1,0.2,0.1,0.2-0.1c0-0.1,0-0.2-0.1-0.2s-0.1-0.1-0.1-0.1c0-0.1,0.1-0.2,0.6-0.2c0.2,0,0.4,0,0.4-0.1s-0.1-0.2-0.3-0.2
						c-0.1,0-0.3,0-0.4,0.1c-0.4,0.1-0.6-0.1-0.6-0.3c0-0.1,0-0.2,0-0.3c0-0.1,0-0.2,0.5-0.6c0.2-0.1,0.1-0.2-0.2-0.3
						c-0.2,0-0.5,0.1-0.4,0.3c0,0.1,0,0.2-0.3,0.3c-0.2,0.1-0.4,0.4-0.4,0.6c0,0.1,0,0.1,0.1,0.1c0,0,0.1,0,0.2,0.1
						c0.1,0.1,0.1,0.1,0,0.2c0,0.1-0.1,0.2-0.2,0.2c-0.1,0.1-0.1,0.1-0.1,0.3c0,0.3-0.1,0.4-0.3,0.4c-0.1,0-0.1,0-0.1,0.1
						s-0.2,0.2-0.3,0c0-0.1,0-0.2,0-0.2s0-0.1-0.1-0.2c-0.1-0.1-0.1-0.2-0.1-0.3c0-0.1,0-0.1,0-0.1s0,0,0-0.1c0-0.1,0-0.1-0.1-0.2
						c0-0.1-0.1-0.1-0.1,0c0,0-0.1,0.2-0.2,0.3c-0.2,0.1-0.3,0.2-0.4,0.1c-0.2-0.1-0.3-0.1-0.1-0.2c0.1-0.1,0.1-0.1,0-0.1
						s-0.1,0,0-0.1c0.1-0.1,0.1-0.1,0-0.2c-0.1-0.2,0-0.4,0.2-0.6C23.9,9,24,9,24.1,9l0.1-0.1c0-0.1,0-0.1,0.1-0.1
						c0,0,0.1,0,0.2-0.1c0.1-0.1,0.1-0.1,0.2-0.1l0,0c0,0,0-0.1,0.1-0.1c0.1,0,0.1-0.1,0.2-0.2c0.1-0.1,0.2-0.3,0.4-0.4
						c0.3-0.2,0.4-0.4,0.2-0.3h-0.1c-0.1-0.1,0-0.1,0,0c0.1,0,0.1,0,0.1,0c0-0.1,0-0.1,0.1,0c0.1,0.1,0.3,0,0.2-0.1s0-0.1,0-0.1
						c0.1,0,0.1,0,0.2,0c0,0,0,0,0-0.1c0-0.1,0-0.1,0.1,0c0.1,0,0.1,0,0.2,0c0.1-0.1,0.2-0.1,0.2-0.1c0.1,0,0.1,0,0.1,0
						s0.1-0.1,0.2-0.1C27,7,27.1,7,27,7.1c0,0.1-0.1,0.1-0.1,0.2c0,0,0,0,0.1,0c0,0,0.1-0.1,0.2-0.1c0.1,0,0.1,0,0.2-0.1h0.1
						c0,0,0,0.1,0.1,0c0,0,0.1,0,0.2,0C28,7.2,28,7.2,27.9,7.2s-0.1,0.1,0.2,0.1c0.6,0.1,0.7,0.2,1.1,0.4C29.4,7.8,29.6,8,29.7,8
						c0,0.1,0,0.1-0.1,0.2c-0.1,0.1-0.2,0.1-0.6,0c-0.4-0.1-0.6-0.1-0.4,0c0.1,0,0.1,0.1,0.1,0.2c0,0.1,0,0.2,0.1,0.2
						c0.1,0.1,0.3,0.3,0.5,0.3c0.1,0,0.1-0.1-0.1-0.2c-0.1,0-0.1-0.1-0.1-0.1c0-0.1,0-0.1,0.1,0c0.1,0,0.2,0.1,0.3,0.1
						c0.2,0,0.2,0,0.1-0.1c-0.1-0.2-0.1-0.2,0.1-0.3c0.1-0.1,0.2-0.1,0.3,0c0.1,0.1,0.2-0.1,0.1-0.2c0,0-0.1-0.1-0.1-0.2
						s0-0.1-0.1-0.2c-0.1-0.1,0.2-0.1,0.3,0c0.1,0.1,0.1,0.2,0,0.2c-0.1,0-0.1,0.1,0,0.2c0.1,0.1,0.3,0.1,0.3,0
						c0-0.1,0.3-0.2,0.5-0.3c0.1,0,0.1,0,0.2-0.1h0.1c0,0.1,0.1,0.1,0.4,0c0.3,0,0.3,0,0.4,0c0,0.1,0.1,0.1,0.1,0
						c0.1-0.1,0-0.2-0.2-0.3c-0.1-0.1-0.1-0.1,0-0.1c0.1,0,0.2,0.1,0.4,0.1c0.2,0.1,0.4,0.2,0.6,0.3c0.4,0.2,0.5,0.2,0.1-0.1
						c-0.1-0.1-0.2-0.2-0.2-0.2s0,0,0-0.1c0-0.1-0.1-0.1-0.1-0.1s0,0,0-0.1c0,0,0.1-0.1,0.1-0.2s0-0.1,0.1-0.1c0,0,0.1,0,0-0.1
						c0,0,0-0.1,0.1-0.1c0.1,0,0.1,0,0,0.1c0,0,0,0.1,0.1,0.1c0.1,0,0.2,0.1,0.2,0.3c0,0.1,0,0.1,0.1,0.2c0,0,0.1,0.2,0.1,0.3
						c0,0.2,0.1,0.3,0.2,0.3c0.1,0.1,0.1,0.1,0,0.3c0,0.2-0.1,0.2-0.2,0.1c-0.1,0-0.1,0-0.1,0c0.1,0.1,0.4,0.1,0.5,0
						c0.1-0.1,0.1-0.2,0-0.3c0-0.1,0-0.2,0-0.2c0.1,0,0.3,0.1,0.3,0.2c0,0.1,0,0.1,0,0c0-0.2-0.2-0.3-0.4-0.3
						c-0.2,0-0.3-0.1-0.3-0.3c0-0.1,0-0.1-0.1-0.2c-0.1-0.1-0.1-0.1-0.1-0.2l0.1-0.1c0,0,0,0,0-0.1c0-0.1,0-0.1,0-0.1
						s0.1,0.1,0.1,0.2s0.1,0.2,0.2,0.2c0.1,0,0.1,0,0,0c-0.2-0.1-0.2-0.2,0-0.1c0.1,0.1,0.1,0.1,0-0.1c-0.1-0.1-0.1-0.1,0-0.1
						c0.1,0,0.2,0.1,0.3,0.2c0.1,0.1,0.2,0.1,0.2,0.1s0,0-0.1-0.1c-0.1-0.1-0.3-0.3-0.3-0.4c0,0,0.2,0,0.4,0s0.3,0,0.3,0
						s-0.1,0-0.1-0.1c0,0,0,0,0-0.1c0.1-0.1,0.7-0.2,1.1-0.1c0.1,0,0.2,0,0.2,0l0,0h0.1c0,0,0-0.1,0.1-0.1c0.1-0.1,0.4,0,0.4,0.2
						c0,0.1,0.2,0.2,0.4,0.2c0.1,0,0.2,0.1,0.3,0.1c0.1,0,0.1,0.1,0.2,0.1c0.1,0,0.1,0,0.1,0.1c0.1,0.1,0.1,0.2,0,0.2
						c0,0-0.1,0.1-0.2,0.1c-0.1,0-0.1,0.1-0.2,0.1s0,0.1,0.1,0.1c0.1,0,0.1,0,0.1-0.1c0-0.1,0-0.1,0.1,0c0.1,0.1,0.3,0.1,0.5,0.2
						c0.1,0.1,0.3,0.1,0.4,0.2c0.1,0.1,0.2,0.1,0.3,0.2c0.1,0,0.2,0,0.1,0c0-0.1,0-0.1,0.2,0C38.9,8,39,8,39.1,8.1
						c0.1,0.1,0.1,0.1,0.1,0.1s0,0,0,0.1c0.1,0,0.2,0.2,0.1,0.1c0,0,0,0,0.1,0.1c0.2,0.2,0.3,0.3,0.3,0.2c0-0.1,0-0.1,0.2,0
						c0.1,0,0.2,0.1,0.3,0.1h0.1c0,0,0,0,0.1,0c0.1,0.1,0.1,0,0-0.1c-0.1-0.1-0.1-0.1,0-0.1h0.1c0,0,0.1,0.1,0.2,0.1
						c0.1,0.1,0.2,0.1,0.2,0.2c0,0.1,0,0.1,0,0c0-0.1,0.2,0,0.3,0.2c0.1,0.2,0,0.1,0.3,0.2c0.1,0.1,0.2,0.1,0.3,0.2
						c0,0.1,0.1,0.1,0.1,0.2l0,0c0,0.1,0,0.1,0.1,0.1l0,0c0,0,0,0,0.1,0.1l0,0c0,0.1,0.1,0.1,0.1,0.1c0.5,0.7,1.1,1.4,1.5,2.1
						c0,0,0,0-0.1,0c-0.1-0.1-0.1-0.1-0.1,0l0,0l0,0c0,0,0,0-0.1,0c0,0,0,0,0,0.2s0.1,0.3,0.1,0.3s0,0,0.1,0.1
						c0,0.1,0.1,0.1,0.1,0.1s0,0,0.1,0.1c0,0,0,0.1,0,0c-0.1-0.1-0.1,0.1,0,0.2c0,0.1,0.1,0.1,0,0.1v0.1c0,0.1,0,0.1,0,0.1v0.1
						c0.1,0.1,0.1,0.4,0,0.2c0,0-0.1-0.2-0.2-0.4c-0.1-0.2-0.2-0.4-0.3-0.5c-0.1-0.3-0.2-0.5-0.1-0.6c0,0,0-0.1,0-0.2s0-0.2,0-0.2
						c0-0.2-0.1-0.4-0.1-0.5c0,0,0,0,0,0.1c0,0.1,0,0.1,0,0.1s0,0,0,0.1c0,0.1-0.1,0.1-0.1-0.1c0-0.1-0.1-0.1-0.1-0.1
						c-0.1,0-0.1,0-0.1,0.2c0,0.2,0,0.2,0.1,0.3C43,12,43,12,42.9,12h-0.1c-0.1,0-0.1,0-0.1-0.1c0-0.1-0.2-0.2-0.2-0.2s-0.1,0-0.2,0
						c-0.3-0.1-0.1,0-0.1,0.5c0,0.1,0,0.2-0.1,0.3v0.1h0.1c0.1,0,0.1,0.1,0.1,0.2c0,0.1,0,0.1,0,0c0-0.1,0,0,0.1,0.1
						c0,0.1,0.1,0.1,0.1,0c0-0.2,0.4,0.3,0.4,0.6c0,0.1,0.1,0.2,0.1,0.4c0.1,0.3,0.1,0.4,0.1,0.9c0,0.7,0,0.8-0.1,0.7
						s-0.1-0.1-0.1,0.1c0,0.1,0,0.2,0,0.3c0,0.1,0,0.3,0,0.4c0,0,0.1,0.2,0.2,0.3c0.2,0.3,0.2,0.4,0.3,0.6c0.1,0.2,0.1,0.3,0,0.3
						c-0.1,0-0.1,0.1-0.1,0c-0.1-0.2-0.2-0.6-0.2-0.6c0-0.1-0.1-0.2-0.1-0.2c-0.1,0-0.1-0.1-0.2-0.3c0-0.1,0-0.2-0.1-0.2
						c-0.1,0-0.1,0-0.1,0c-0.1,0.1-0.1,0-0.1-0.2c0-0.1,0-0.1-0.1-0.2c0,0-0.1,0-0.1,0.2c0,0.1-0.1,0.2-0.1,0.2
						c-0.1,0,0,0.2,0.1,0.2l0.1,0.1c0,0.1,0.1,0.2,0.1,0.1s0.1-0.1,0.1,0c0.1,0.1,0.2,0.2,0.1,0.2c-0.1,0-0.1,0.4-0.1,0.5
						c0.1,0,0.1,0.1,0.3,0.5c0.2,0.3,0.3,0.5,0.2,0.6c0,0,0,0,0,0.1c0,0,0,0,0.1,0c0.1,0,0.2,0.2,0.2,0.7c0,0.1,0,0.2,0,0.3v0.1
						c0,0.1,0,0.3-0.1,0.5c-0.1,0.2-0.2,0.4-0.3,0.2c0-0.1,0,0,0,0c0,0.1,0,0.2-0.1,0.2c-0.1,0.1-0.1,0.3,0,0.4
						c0,0.1,0.1,0.1,0.1,0.2c0,0.2,0,0.2-0.1,0.2c-0.1-0.1-0.1-0.4,0-0.4c0,0,0,0,0-0.1c0-0.1-0.1-0.1-0.1-0.2
						c-0.1-0.2-0.2-0.2-0.3,0.1c-0.1,0.3,0,0.5,0.3,0.9c0.3,0.5,0.4,0.6,0.5,1c0.1,0.3,0.1,0.4,0,0.5c0,0.1-0.1,0.2-0.1,0.2
						s0,0,0,0.1s0,0.3-0.1,0.4c0,0,0-0.1-0.1-0.2c0-0.1-0.1-0.2-0.1-0.2s-0.2-0.2-0.3-0.3c-0.1-0.1-0.2-0.3-0.2-0.3s-0.1,0-0.1-0.1
						c-0.1-0.2-0.1,0-0.1,0.3c0,0.5,0.1,0.6,0.2,0.7c0.1,0.1,0.1,0.2,0.1,0.3s0.1,0.2,0.1,0.2c0.2,0.1,0.5,0.4,0.4,0.7
						c0,0.1,0,0.3,0,0.4c0,0.2,0,0.2,0,0.2c-0.2,0-0.3-0.5-0.4-0.9c0-0.2-0.3-0.7-0.4-0.7c0,0-0.1-0.3-0.1-0.6
						c-0.1-0.4-0.2-0.7-0.2-0.8c-0.1-0.2-0.2-0.4-0.2-0.6C41.5,22.8,41.5,22.7,41.5,22.6z M22.8,16.1L22.8,16.1
						C22.9,16,23,16.1,22.8,16.1C22.8,16.2,22.8,16.2,22.8,16.1z M24.1,15.7c0.1,0,0.2,0,0.2,0.3c0,0.2-0.1,0.3-0.3,0.3
						c0,0,0-0.1,0-0.3C24,15.8,24,15.7,24.1,15.7z M24.1,15.3c0.1-0.1,0.1,0,0.1,0.1c0,0.1,0,0.2-0.1,0.2
						C24.1,15.5,24.1,15.3,24.1,15.3z M24.9,16.6c0,0,0.1-0.1,0.3-0.1c0.3,0,0.3,0,0.3,0.2c0,0.1,0,0.2-0.1,0.2c0,0-0.1-0.1-0.3-0.1
						C25,16.7,24.9,16.6,24.9,16.6z M27.8,17.4c0.1,0,0.2,0,0.1,0S27.7,17.4,27.8,17.4C27.6,17.4,27.7,17.4,27.8,17.4z M29.3,17.5
						c0,0,0.1-0.1,0.2-0.1s0.1,0,0.1,0.1c0,0-0.1,0.1-0.2,0.1C29.4,17.6,29.3,17.6,29.3,17.5z M24.7,11.7
						C24.6,11.7,24.6,11.7,24.7,11.7C24.6,11.6,24.6,11.6,24.7,11.7C24.7,11.6,24.7,11.6,24.7,11.7z M24.9,11.5
						c0.2-0.1,0.2-0.1,0.2,0s-0.1,0.2-0.2,0.2C24.7,11.6,24.8,11.5,24.9,11.5z M26.1,11C26.1,11,26.1,10.9,26.1,11
						c0.1-0.1,0.1,0,0.1,0S26.2,11.1,26.1,11C26.1,11.1,26.1,11,26.1,11z M26.8,10.8c0,0,0-0.1,0.1-0.1s0.1,0,0,0.1
						C26.8,10.9,26.8,10.9,26.8,10.8z M43.6,13C43.6,13.1,43.6,13.1,43.6,13C43.6,13.1,43.6,13.1,43.6,13L43.6,13L43.6,13z
						 M42.4,13.5C42.3,13.5,42.3,13.4,42.4,13.5c-0.1-0.1-0.1-0.1-0.1-0.1C42.3,13.3,42.3,13.4,42.4,13.5
						C42.4,13.4,42.4,13.5,42.4,13.5z M43.6,34L43.6,34C43.7,33.9,43.7,34,43.6,34C43.7,34,43.6,34,43.6,34z M43.9,35
						c0,0.1-0.1,0.1-0.1,0.1s0,0-0.1,0.1c-0.1,0.1-0.1,0.1,0-0.2c0-0.1,0-0.1,0.1-0.2c0.1,0,0.1,0,0.1-0.1
						C44.1,34.7,44.1,34.7,43.9,35z M45,34.5c-0.1,0.1-0.1,0.2-0.1,0.3c0,0,0,0.1,0,0c0-0.1-0.1,0.1-0.2,0.3
						c-0.1,0.3-0.2,0.4-0.3,0.4c0,0-0.1,0,0-0.1c0-0.1,0.2-0.3,0.4-0.6c0.1-0.1,0.2-0.3,0.3-0.5c0.1-0.2,0.1-0.3,0.1-0.2l0,0
						C45.2,34.1,45.2,34.2,45,34.5z M45.6,33.6C45.5,33.6,45.5,33.6,45.6,33.6c-0.1,0.2-0.3,0.6-0.3,0.6s0-0.1,0.1-0.1
						c0.1-0.1,0.1-0.1,0-0.2c0,0,0-0.1,0-0.2C45.4,33.7,45.4,33.6,45.6,33.6c0-0.3,0-0.5,0-0.6v-0.1c0-0.1,0-0.1,0.1-0.1
						c0,0,0,0.1,0,0.2s0,0.2,0,0.1c0,0,0,0,0,0.1c0,0.1,0,0.1,0,0c0,0,0.1-0.1,0,0C45.7,33.4,45.6,33.6,45.6,33.6z M45.7,29.1
						c0,0,0,0.1,0,0.2c0,0.1,0,0.2-0.1,0.3c0,0.1,0,0.2,0,0.3s0,0.2,0,0.3c0,0.1,0,0.2,0,0.3s0,0.2,0,0.2v0.1c0,0,0,0.2,0,0.3
						s0,0.3-0.1,0.4c0,0.1-0.1,0.2-0.1,0.3c0,0.1-0.1,0.2-0.1,0.4c0,0.1-0.1,0.3-0.2,0.4c0,0.1-0.1,0.2-0.1,0.3
						c-0.1,0.2-0.5,0.9-0.5,1.1c0,0.1-0.1,0.1-0.1,0.2c0,0-0.1,0.1-0.2,0.2c-0.1,0.2-0.1,0.2-0.1,0.1s0-0.1-0.1,0s-0.1,0.1-0.1,0.1
						s0,0-0.1,0c-0.1,0-0.1-0.1,0-0.2c0.1-0.2,0.1-0.3,0-0.2c0,0,0,0,0-0.1c0.1-0.2,0.1-0.2,0-0.1c-0.1,0.2-0.1,0.1,0-0.1
						c0.2-0.3,0.1-0.3,0,0c-0.2,0.3-0.2,0.3-0.2,0.2c0.1-0.1,0-0.5,0-0.5h-0.1c0,0-0.1,0-0.2,0.1c-0.4,0.3-0.6,0.4-0.7,0.6
						c0,0.1-0.1,0.1-0.2,0.2c-0.1,0-0.2,0.1-0.3,0.2c-0.2,0.2-0.2,0.2-0.3,0.1c-0.1-0.1-0.1-0.1,0-0.2c0.1-0.1,0.2-0.5,0.2-0.5
						s0-0.1,0-0.2c0-0.1,0.1-0.3,0.1-0.5c0-0.3,0.1-0.3,0.1-0.4s0.1-0.1,0.1-0.2c0-0.2,0.2-0.8,0.3-0.7c0,0,0,0,0.1-0.1
						c0.1-0.1,0-0.1,0.1-0.1l0.1-0.1c0-0.1,0.2-0.2,0.3-0.3c0.1-0.1,0.3-0.2,0.3-0.2c0.1-0.1,0.2-0.3,0.2-0.5
						c0.1-0.2,0.2-0.3,0.1-0.2v0.1v-0.1c0-0.1,0-0.1,0.1-0.1c0,0,0.1,0,0.1-0.1s0.2-0.3,0.2-0.3s0,0,0-0.1s0.1-0.2,0.2-0.1V30
						c0,0.1,0,0.1,0.1,0c0.1,0,0.1-0.1,0.1-0.1s0-0.1,0.1-0.2c0-0.1,0.1-0.1,0.1-0.2s0.1-0.2,0.2-0.2s0.1-0.2,0.1-0.2
						c0-0.1,0-0.1,0.1,0l0.1,0.1c0.1,0,0.1,0,0.1,0.1c0,0.1,0,0.1-0.1,0.1c0,0-0.1,0.1-0.1,0.2c-0.1,0.2-0.1,0.2,0,0.4
						c0,0.1,0.1,0.1,0.1,0.2c0,0.1,0.1,0,0.1-0.1s0.1-0.3,0.2-0.5c0.1-0.4,0.2-0.7,0.2-0.8C45.9,28.7,45.9,28.7,45.7,29.1
						C45.7,29,45.7,29.1,45.7,29.1z M45.2,29.2L45.2,29.2C45.2,29.3,45.2,29.3,45.2,29.2C45.1,29.3,45.1,29.3,45.2,29.2L45.2,29.2z
						 M45.3,27.7c0-0.1,0-0.1,0-0.2s0-0.1,0-0.1C45.5,27.4,45.4,27.5,45.3,27.7C45.3,27.8,45.3,27.8,45.3,27.7z M46.1,27.9
						c0-0.2-0.1-0.3-0.1-0.2c0,0-0.1,0.1-0.1,0.2c0,0.2-0.2,0.2-0.2,0.1s0-0.1-0.1,0c-0.1,0.1-0.1,0.1-0.1,0s0-0.1,0.1-0.1
						c0,0,0,0,0-0.1c0-0.1,0-0.4,0-0.4s-0.1,0-0.1-0.1c-0.1-0.1-0.1-0.1-0.1-0.1v0.1c0,0,0,0,0-0.1v-0.1c0,0,0-0.1,0.1-0.1
						s0.1,0,0,0c0,0-0.1,0-0.1-0.1c0,0,0-0.1-0.1-0.1l0,0c0,0,0-0.1,0.1-0.1c0.1-0.1,0.2-0.1,0.2,0c0,0,0,0.1,0,0.2s0,0.2,0,0.3
						c0,0.1,0,0.1,0.2-0.1c0.1-0.2,0.1-0.2,0.2-0.2c0,0,0.1,0.1,0.2,0.2c0.2,0.1,0.2,0.2,0.2,0.4v0.1c0,0.1,0,0.1,0,0.1
						c-0.1,0.1-0.1,0.2,0,0.3c0,0.1,0,0.1,0,0.2l0,0c0,0,0,0,0,0.1c0,0.1,0,0.2,0,0.1h-0.1C46.2,28.1,46.2,28,46.1,27.9z M46.3,30.3
						c0,0,0-0.1,0-0.2c0-0.2,0-0.2,0,0C46.3,30.2,46.3,30.3,46.3,30.3z M46.5,27.2C46.5,27.2,46.4,27.2,46.5,27.2
						c-0.1,0-0.1,0-0.1-0.1c0,0,0.1,0,0.1-0.1c0.1,0,0.1-0.1,0.1-0.2c0-0.1,0.1-0.2,0.1-0.1C46.6,26.9,46.5,27.2,46.5,27.2z
						 M46.7,26.8L46.7,26.8C46.7,26.7,46.7,26.7,46.7,26.8L46.7,26.8L46.7,26.8z M46.8,27.2c0,0.1,0-0.1,0-0.2l0,0
						C46.8,27.1,46.8,27.2,46.8,27.2z M46.9,27.7L46.9,27.7C46.9,27.6,46.9,27.6,46.9,27.7C46.9,27.6,46.9,27.7,46.9,27.7L46.9,27.7
						z M47,27.6L47,27.6L47,27.6C47,27.4,47,27.5,47,27.6z M47.1,29L47.1,29C47.2,29,47.2,29,47.1,29C47.1,29.1,47.1,29.1,47.1,29z
						 M47.2,28.8L47.2,28.8C47.2,28.7,47.2,28.7,47.2,28.8C47.3,28.7,47.3,28.7,47.2,28.8L47.2,28.8z"/>
					<path class="st0" d="M39,13.7C39,13.8,39.1,13.8,39,13.7C39,13.7,39,13.6,39,13.7C39,13.5,39,13.6,39,13.7z"/>
					<path class="st0" d="M39.5,9.1L39.5,9.1C39.5,9,39.4,9,39.4,9S39.4,9,39.5,9.1L39.5,9.1z"/>
					<path class="st0" d="M38.1,13.7L38.1,13.7c0,0.1,0,0.2,0.1,0.2C38.2,13.8,38.2,13.8,38.1,13.7C38.2,13.7,38.1,13.7,38.1,13.7z"
						/>
					<path class="st0" d="M29.9,27.3c0,0-0.1,0-0.1,0.1s-0.1,0.2-0.1,0.2s0.1,0,0.1-0.1C29.9,27.4,29.9,27.3,29.9,27.3z"/>
					<path class="st0" d="M31.3,16.5L31.3,16.5C31.3,16.6,31.4,16.6,31.3,16.5C31.4,16.5,31.4,16.5,31.3,16.5z"/>
					<path class="st0" d="M32.4,10.9C32.4,10.9,32.4,10.8,32.4,10.9C32.4,10.8,32.4,10.9,32.4,10.9C32.4,11,32.4,11,32.4,10.9
						C32.4,11,32.5,11,32.4,10.9z"/>
					<path class="st0" d="M29.4,16.4C29.4,16.5,29.5,16.5,29.4,16.4C29.5,16.5,29.5,16.5,29.4,16.4C29.5,16.4,29.5,16.4,29.4,16.4
						L29.4,16.4z"/>
					<path class="st0" d="M33.2,16.3C33.2,16.3,33.2,16.2,33.2,16.3c-0.1-0.1-0.2-0.1-0.2-0.2s0-0.1,0.1-0.1c0.1,0,0.1,0,0.2,0
						c0,0,0-0.1-0.1-0.2c-0.1-0.2-0.2-0.2-0.2-0.1c-0.1,0.1-0.1,0.1-0.1-0.1c0-0.1,0-0.2-0.1-0.2c0,0-0.2-0.1-0.3-0.3
						c-0.1-0.2-0.2-0.3-0.2-0.3s0.1,0,0.1-0.1c0-0.1,0.1-0.1,0.1-0.1c0.1,0,0.1-0.1,0.1-0.3c-0.1-0.2-0.4-0.3-0.6,0
						c-0.3,0.3-0.4,0.4-0.2,0.7c0.1,0.1,0.1,0.2,0.1,0.2s0.1,0.2,0.3,0.4c0.1,0.1,0.2,0.2,0.3,0.3c0,0.1,0,0.2,0,0.3
						c0,0.1,0,0.3,0,0.4c0.1,0.3,0.7,0.5,0.9,0.4c0.1-0.1,0-0.6-0.1-0.6C33.2,16.4,33.2,16.4,33.2,16.3z"/>
					<path class="st0" d="M31.8,16.7L31.8,16.7c0,0.2,0.1,0.2,0.1,0.2s0,0,0-0.1C31.8,16.7,31.8,16.7,31.8,16.7z"/>
					<path class="st0" d="M28.3,15.7c-0.1,0-0.2,0-0.2,0.1c0,0,0.1,0.1,0.2,0.1c0.1,0,0.2,0,0.2-0.1C28.5,15.8,28.5,15.7,28.3,15.7z
						"/>
					<path class="st0" d="M31.6,12c0-0.1,0-0.1,0-0.2C31.6,11.8,31.6,11.8,31.6,12c-0.1,0.1,0,0.4,0.1,0.3v-0.1
						C31.5,12.1,31.5,12.1,31.6,12z"/>
					<path class="st0" d="M29.3,29.2c0,0.2,0,0.4,0.1,0.5c0.1,0.1,0.1,0.2,0.1,0.3s0.1,0.2,0.1,0.2c0.1,0,0.1-0.1-0.1-0.4
						c-0.1-0.1-0.1-0.4-0.1-0.5C29.4,28.9,29.3,28.8,29.3,29.2z"/>
					<path class="st0" d="M28.5,10.4c0.2,0,0.2-0.2,0-0.3c-0.2-0.1-0.2-0.1-0.2,0C28.1,10.1,28.3,10.4,28.5,10.4z"/>
					<path class="st0" d="M34.1,14.7C34,14.6,34,14.6,34,14.5s0-0.1-0.1-0.1c-0.2,0-0.4,0.3-0.3,0.5c0,0.2,0.1,0.2,0.3,0.3
						c0.1,0,0.2,0,0.2,0s0-0.1,0-0.2C34.2,14.9,34.2,14.8,34.1,14.7z"/>
					<path class="st0" d="M29.2,10.1c0,0,0-0.1-0.1-0.3C29,9.7,29,9.6,29,9.7c0,0.1,0,0.1-0.1,0.1C28.8,9.7,28.8,9.9,29,10
						C29.1,10.1,29.1,10.2,29.2,10.1z"/>
					<path class="st0" d="M29.7,10.9c0,0-0.1-0.1-0.1-0.2c-0.1-0.1-0.1-0.1-0.1,0C29.5,10.9,29.7,11.1,29.7,10.9z"/>
					<path class="st0" d="M30.1,14.8c-0.1-0.1-0.3-0.2-0.3-0.2s0,0,0.1,0s0.1-0.2,0.1-0.3c0,0,0-0.1,0.1-0.1l0.1-0.1
						c-0.1,0-0.1,0-0.1,0c-0.1,0-0.2,0-0.2,0.1c-0.1,0-0.2,0.1-0.3,0.2c-0.2,0.1-0.2,0.1-0.1,0.2c0.1,0.1,0.2,0.1,0.2,0.1
						c0.1,0,0.1,0,0.1,0.1l-0.1,0.1c0,0-0.2,0-0.2,0.1c-0.1,0.1-0.1,0-0.2-0.1c-0.1-0.2-0.1-0.2,0-0.2c0.1-0.1,0.1-0.1-0.1-0.1
						c-0.1,0-0.2,0-0.2-0.1c0-0.2-0.4,0-0.4,0.3c0,0.1,0,0.1-0.1,0.1c-0.1-0.1-0.3,0.7-0.2,0.8c0.1,0.2,0.6,0.3,0.9,0.1
						c0.2-0.1,0.4-0.1,0.7,0.1c0.3,0.2,0.9,0.2,1,0.1C31.1,15.4,30.4,15,30.1,14.8z"/>
				</g>
			</g>
		</g>
		<g id="Group_1_" transform="translate(98.000000, 0.000000)">
			<polygon id="Shape_8_" class="st0" points="0.4,102.2 0.4,30.4 22.4,30.4 22.4,102.2 			"/>
			<path id="Shape_9_" class="st0" d="M11.2,0.3c5.8,0,10.4,4.6,10.4,10.3S17,20.9,11.2,20.9C5.7,20.9,1,16.3,1,10.6
				C1.1,5,5.7,0.3,11.2,0.3z"/>
		</g>
	</g>
</g>
</svg>
